<svg width="14000" height="12000" viewBox="0 0 14000 12000" xmlns="http://www.w3.org/2000/svg" xmlns:xlink="http://www.w3.org/1999/xlink"><svg width="2000" height="2000" viewBox="-1.73 -1.73 34.6 34.6" xmlns="http://www.w3.org/2000/svg"><g transform="translate(-19 -219)"><circle fill="#fff" cx="15.571" cy="15.571" r="15.571" transform="translate(19 219)"/><g transform="translate(25.969 225)" fill="#4d72aa"><path d="M6.446 9.953a1.756 1.756 0 111.756-1.756 1.758 1.758 0 01-1.756 1.756zm0-2.342a.585.585 0 10.585.585.586.586 0 00-.585-.585zM11.129 9.953a1.756 1.756 0 111.756-1.756 1.758 1.758 0 01-1.756 1.756zm0-2.342a.585.585 0 10.585.585.586.586 0 00-.585-.585z"/><path d="M8.787 18.733a5.959 5.959 0 01-4.542-1.781 7.922 7.922 0 01-1.87-4.711 2.927 2.927 0 01-.005-5.748 2.922 2.922 0 012.1-2.477A4.706 4.706 0 018.2 1.207V.585a.585.585 0 011.171 0v.623a4.677 4.677 0 013.714 2.8A2.927 2.927 0 0115.2 6.481v.015a2.926 2.926 0 010 5.743 7.921 7.921 0 01-1.871 4.714 5.957 5.957 0 01-4.542 1.78zm-5.226-6.44A6.717 6.717 0 005.1 16.152a4.837 4.837 0 003.687 1.41 4.837 4.837 0 003.687-1.41 6.719 6.719 0 001.54-3.858H3.562zm10.495-1.171V7.066a.352.352 0 010-.042V6.819a1.822 1.822 0 00-.012-.2A1.762 1.762 0 0012.3 5.071a1.827 1.827 0 00-.216.013 30.607 30.607 0 01-3.3.178A30.785 30.785 0 015.5 5.085a1.723 1.723 0 00-.207-.013l-.013-.293v.293a1.762 1.762 0 00-1.761 1.754v4.3zM2.348 7.711a1.752 1.752 0 000 3.311zm12.879 3.306a1.752 1.752 0 000-3.3zM5.834 3.943a29.44 29.44 0 002.949.148 29.483 29.483 0 002.948-.148 3.514 3.514 0 00-5.9 0z"/><circle cx=".781" cy=".781" r=".781" transform="translate(5.659 13.855)"/><circle cx=".781" cy=".781" r=".781" transform="translate(8.001 13.855)"/><circle cx=".781" cy=".781" r=".781" transform="translate(10.342 13.855)"/></g></g></svg></svg>