<svg width="14000" height="12000" viewBox="0 0 14000 12000" xmlns="http://www.w3.org/2000/svg" xmlns:xlink="http://www.w3.org/1999/xlink"><path xmlns="http://www.w3.org/2000/svg" data-name="Caminho 91" d="M6.5 41.585a1.294 1.294 0 01-1.293-1.17L4.022 28.589H1.3a1.3 1.3 0 01-1.3-1.3v-3.894a10.4 10.4 0 1120.793 0v3.9a1.3 1.3 0 01-1.3 1.3h-2.722l-1.183 11.82a1.3 1.3 0 01-1.293 1.17zm6.621-2.6L14.3 27.16a1.3 1.3 0 011.293-1.17h2.6v-2.595a7.8 7.8 0 00-15.593 0v2.6h2.6a1.294 1.294 0 011.293 1.17l1.182 11.826z" fill="#585858"/></svg>