<svg width="14000" height="12000" viewBox="0 0 14000 12000" xmlns="http://www.w3.org/2000/svg" xmlns:xlink="http://www.w3.org/1999/xlink"><path xmlns="http://www.w3.org/2000/svg" d="M12.469 23.915l-4.391-4.39a4.522 4.522 0 00-3.216-1.332H1.82a.91.91 0 100 1.819h3.042a2.748 2.748 0 011.928.8l2.84 2.84H1.82a.91.91 0 000 1.819h10.005a.911.911 0 00.644-1.554zM11.825 28.198a.91.91 0 00-.91.91v2.729a.911.911 0 01-.91.91H4.548a.911.911 0 01-.91-.91v-3.638a.91.91 0 10-1.819 0v3.638a2.732 2.732 0 002.729 2.729h5.458a2.732 2.732 0 002.729-2.729v-2.729a.91.91 0 00-.91-.91z" fill="#585858"/></svg>