<svg width="14000" height="12000" viewBox="0 0 14000 12000" xmlns="http://www.w3.org/2000/svg" xmlns:xlink="http://www.w3.org/1999/xlink"><path xmlns="http://www.w3.org/2000/svg" d="M39.533 12.838c-2.507-1.312-8.134-1.923-17.7-1.923s-15.2.611-17.7 1.923C1.272 14.33 0 16.822 0 20.921a32.4 32.4 0 00.941 7.511.907.907 0 00.879.675h7.971l3.446 1.723a.913.913 0 00.408.1h16.372a.9.9 0 00.406-.1l3.447-1.723h7.972a.907.907 0 00.879-.675 32.4 32.4 0 00.941-7.511c-.001-4.099-1.273-6.591-4.129-8.083zm1.59 14.45h-7.466a.9.9 0 00-.408.1L29.8 29.107H13.859l-3.446-1.726a.913.913 0 00-.408-.1H2.54a31.279 31.279 0 01-.72-6.367c0-3.426.913-5.3 3.149-6.471 2.179-1.139 7.852-1.715 16.862-1.715s14.683.577 16.862 1.715c2.236 1.17 3.149 3.045 3.149 6.471a31.439 31.439 0 01-.719 6.374z" fill="#585858"/></svg>