<svg width="14000" height="12000" viewBox="0 0 14000 12000" xmlns="http://www.w3.org/2000/svg" xmlns:xlink="http://www.w3.org/1999/xlink"><path xmlns="http://www.w3.org/2000/svg" d="M41.842 23.65h-7.81l2.838-2.84a2.752 2.752 0 011.93-.8h3.042a.91.91 0 000-1.819H38.8a4.522 4.522 0 00-3.216 1.334l-4.392 4.392a.911.911 0 00.644 1.554h10.006a.91.91 0 000-1.819zM32.66 18.716a.911.911 0 00-.824-.524H11.825a.909.909 0 00-.7 1.492l4.548 5.458a.911.911 0 00.7.327h10.915a.911.911 0 00.7-.327l4.548-5.458a.907.907 0 00.124-.968zm-5.8 4.934H16.799l-3.033-3.638h16.127zM39.949 13.282c-1.035-2.38-4.5-10.222-5.7-11.246C32.749.761 28.449 0 22.749 0h-1.827c-5.7 0-10 .76-11.5 2.034-1.2 1.024-4.67 8.867-5.7 11.246a.91.91 0 001.67.726c2.054-4.728 4.566-9.982 5.212-10.584.7-.595 3.664-1.6 10.326-1.6h1.811c6.662 0 9.625 1.008 10.322 1.6.649.606 3.162 5.858 5.216 10.588a.91.91 0 001.67-.724zM40.932 27.288a.91.91 0 00-.91.91v3.638a.911.911 0 01-.91.91h-5.458a.911.911 0 01-.91-.91v-2.729a.91.91 0 10-1.819 0v2.729a2.732 2.732 0 002.729 2.729h5.458a2.732 2.732 0 002.729-2.729v-3.638a.91.91 0 00-.909-.91z" fill="#585858"/></svg>