<svg width="14000" height="12000" viewBox="0 0 14000 12000" xmlns="http://www.w3.org/2000/svg" xmlns:xlink="http://www.w3.org/1999/xlink"><path xmlns="http://www.w3.org/2000/svg" d="M34.3 14.629a7.273 7.273 0 00-3 .646l-1.12-1.669a10.786 10.786 0 015.343-1.414 1.219 1.219 0 001.219-1.219V8.534A8.543 8.543 0 0028.2 0h-2.437a1.219 1.219 0 100 2.438h1.219v2.438h-3.738a1.219 1.219 0 00-1.014.543l-1.264 1.9H10.811L10.2 6.4a3.407 3.407 0 00-2.84-1.52H1.219A1.219 1.219 0 000 6.1a6.1 6.1 0 005.418 6.058l1.653 2.48a7.314 7.314 0 107.14 9.748h7.234a3.423 3.423 0 003.347-2.744l.173-.864a10.6 10.6 0 013.235-5.735l1.068 1.592a7.311 7.311 0 105.032-2.006zM19.34 9.753l-1.625 2.438h-3.653l-1.625-2.438zM7.314 26.82a4.877 4.877 0 110-9.753 4.95 4.95 0 01.652.044 3.653 3.653 0 00.567 7.262h3a4.9 4.9 0 01-4.219 2.447zm1.219-4.876a1.219 1.219 0 110-2.438h6.642l1.219 2.438zM22.574 20.3l-.173.864a.978.978 0 01-.956.784h-1.721a.97.97 0 01-.872-.539l-1.832-3.668a1.219 1.219 0 00-1.09-.674h-3.784a.973.973 0 01-.811-.434L7.11 10.3a1.219 1.219 0 00-1.01-.547 3.664 3.664 0 01-3.448-2.438h4.707a.973.973 0 01.811.434l.976 1.464 3.254 4.873a1.219 1.219 0 001.014.543h4.958a1.219 1.219 0 001.014-.543l3.246-4.869L23.9 7.306h4.3A1.212 1.212 0 0029.42 6.1V2.561a6.106 6.106 0 014.88 5.973v1.275A13.2 13.2 0 0022.574 20.3zM34.3 26.82a4.873 4.873 0 01-3.64-8.116l2.628 3.919a1.22 1.22 0 002.025-1.358l-2.633-3.921a4.876 4.876 0 111.62 9.476z" fill="#585858"/></svg>