<svg width="14000" height="12000" viewBox="0 0 14000 12000" xmlns="http://www.w3.org/2000/svg" xmlns:xlink="http://www.w3.org/1999/xlink"><path xmlns="http://www.w3.org/2000/svg" d="M49.493 16.002L46 14.496l-2.962-5.765a4.665 4.665 0 00-4.2-2.551h-5.1V4.735a4.706 4.706 0 00-4.685-4.739H4.667A4.694 4.694 0 000 4.735v22.076a2.875 2.875 0 002.837 2.917h.652c0 .114-.011.16-.011.229a5.925 5.925 0 1011.85.046v-.057a1.779 1.779 0 00-.011-.229h19.707v.229a5.925 5.925 0 1011.85.046v-.286h1.476a2.885 2.885 0 002.882-2.882v-8.169a2.868 2.868 0 00-1.739-2.653zM9.414 33.628a3.637 3.637 0 113.637-3.637 3.632 3.632 0 01-3.637 3.637zm22.041-6.165H14.779a5.917 5.917 0 00-10.729 0H2.883a.592.592 0 01-.595-.629v-5.891h29.167zm0-22.716v13.908H2.288V4.747a2.407 2.407 0 012.379-2.451h24.386a2.424 2.424 0 012.4 2.436zm2.288 3.729h5.1a2.414 2.414 0 012.173 1.292l2.284 4.428h-9.557zm7.217 25.152a3.637 3.637 0 113.64-3.638 3.632 3.632 0 01-3.64 3.638zm8-6.794a.592.592 0 01-.595.629h-2.04a5.92 5.92 0 00-10.729 0h-1.853V16.482h11.209l3.637 1.6a.673.673 0 01.366.618z" fill="#585858"/></svg>