<svg width="14000" height="12000" viewBox="0 0 14000 12000" xmlns="http://www.w3.org/2000/svg" xmlns:xlink="http://www.w3.org/1999/xlink"><path xmlns="http://www.w3.org/2000/svg" d="M52.742 24.02h-.026a4.9 4.9 0 001.016-2.97 4.958 4.958 0 00-4.952-4.952h0a4.949 4.949 0 00-3.946-7.922A4.9 4.9 0 0045.85 5.15a4.968 4.968 0 00-4.952-4.9H24.33a8.851 8.851 0 00-6.3 2.611l-3.912 3.912V1.24a.99.99 0 00-.99-.99H1.24a.99.99 0 00-.99.99v35.655a.989.989 0 00.99.99h11.885a.989.989 0 00.99-.99v-6.321l5.308 2.653a3.01 3.01 0 011.33 1.33l2.952 5.9a2.98 2.98 0 01.314 1.329v6.994a4.952 4.952 0 109.9 0V36.895a2.975 2.975 0 012.971-2.971h15.852a4.952 4.952 0 000-9.9zM12.135 35.905h-9.9V2.231h9.9zm40.607-3.962H36.895a4.958 4.958 0 00-4.952 4.952V48.78a2.971 2.971 0 11-5.942 0v-6.988a5 5 0 00-.522-2.215l-2.954-5.907a4.985 4.985 0 00-2.214-2.214l-6.2-3.1V9.574l5.313-5.313a6.889 6.889 0 014.9-2.03h16.574a2.971 2.971 0 11-.041 5.942.99.99 0 000 1.981h3.962a2.971 2.971 0 010 5.942.99.99 0 000 1.981h3.961a2.971 2.971 0 110 5.942.99.99 0 100 1.981h3.962a2.971 2.971 0 010 5.942z" fill="#585858" stroke="#585858" stroke-width=".5"/></svg>