<svg width="14000" height="12000" viewBox="0 0 14000 12000" xmlns="http://www.w3.org/2000/svg" xmlns:xlink="http://www.w3.org/1999/xlink"><path xmlns="http://www.w3.org/2000/svg" d="M51.243 61.444v6.806a1.153 1.153 0 01-2.305 0v-6.806a9.586 9.586 0 00-9.593-9.594 7.077 7.077 0 01-6.089-3.419 1.153 1.153 0 011.969-1.2 4.789 4.789 0 004.12 2.313 11.89 11.89 0 0111.898 11.9zm3.382-21.169a4.661 4.661 0 00-.251-5.576l-2.206-2.715a2.376 2.376 0 01-.437-2.185l1.3-4.326a4.684 4.684 0 00-1.9-5.255l-2.591-1.744a2.4 2.4 0 01-.992-2.625 4.747 4.747 0 00-4.435-5.975l-1.146-.049a4.183 4.183 0 01-3.964-3.321l-.081-.4a4.784 4.784 0 00-7.038-3.165 2.521 2.521 0 01-2.981-.389l-.963-.943a4.832 4.832 0 00-6.724 0l-2.1 2.059a2.475 2.475 0 01-1.336.674l-4.348.719a6.2 6.2 0 00-5.034 7.746l.854 3.067a2.354 2.354 0 01-.973 2.582l-2.64 1.777a4.641 4.641 0 00-1.879 5.207l1.319 4.378a2.334 2.334 0 01-.429 2.146l-2.24 2.757a4.618 4.618 0 00-.251 5.531l2.157 3.2a2.327 2.327 0 01-.121 2.775l-.319.4a5.321 5.321 0 00.427 7.168 1.153 1.153 0 001.613-1.647 3.024 3.024 0 01-.246-4.074l.319-.4a4.621 4.621 0 00.238-5.511l-2.157-3.2a2.326 2.326 0 01.126-2.782l2.24-2.757a4.637 4.637 0 00.847-4.264L4.964 24.78a2.347 2.347 0 01.96-2.63l2.64-1.777a4.656 4.656 0 001.906-5.113l-.854-3.067a3.893 3.893 0 013.189-4.853l4.349-.719a4.768 4.768 0 002.572-1.3l2.1-2.06a2.514 2.514 0 013.5 0l.963.943a4.838 4.838 0 005.728.747 2.477 2.477 0 013.652 1.608l.081.4a6.484 6.484 0 006.126 5.17l1.146.049a2.443 2.443 0 012.311 3.057 4.7 4.7 0 001.926 5.153l2.591 1.744a2.389 2.389 0 01.976 2.677l-1.3 4.326a4.679 4.679 0 00.855 4.3l2.203 2.715a2.369 2.369 0 01.129 2.833l-2.122 3.146a4.664 4.664 0 00.24 5.562 3.581 3.581 0 01.905 1.63 1.153 1.153 0 002.252-.492 5.737 5.737 0 00-1.362-2.579 2.37 2.37 0 01-.123-2.826zM42.834 55.55a25.793 25.793 0 01-23.071-4.5 7.1 7.1 0 003.791-5.734 15.428 15.428 0 0019.764-14.674V24.63a11.54 11.54 0 00-11.527-11.527h-3.954a9.666 9.666 0 00-8.92 5.565c-.868 2.032-.5 3.392-.794 5-.49 2.639-2.638 5.142-6.385 7.441a1.153 1.153 0 001.205 1.965c4.327-2.654 6.833-5.677 7.447-8.985.343-1.847-.021-2.948.647-4.512a7.339 7.339 0 016.8-4.165h3.955a9.232 9.232 0 019.221 9.221v5.892a13.114 13.114 0 01-25.049 5.425 1.154 1.154 0 10-2.1.956 15.445 15.445 0 007.407 7.523v.311a4.805 4.805 0 01-4.816 4.8 11.89 11.89 0 00-11.9 11.9v6.81a1.153 1.153 0 102.305 0v-6.805a9.587 9.587 0 019.597-9.595c.212 0 .422-.011.629-.029a28.128 28.128 0 0026.365 5.944 1.153 1.153 0 00-.617-2.215z" fill="#585858" stroke="#585858" stroke-width=".5"/></svg>