<svg width="14000" height="12000" viewBox="0 0 14000 12000" xmlns="http://www.w3.org/2000/svg" xmlns:xlink="http://www.w3.org/1999/xlink"><path xmlns="http://www.w3.org/2000/svg" d="M35.038 49.55a4.787 4.787 0 01-4.117-2.315 1.153 1.153 0 10-1.969 1.2 7.114 7.114 0 002.408 2.4l-1.198 5.415-2.877-3.317a1.154 1.154 0 10-1.679-1.583l-2.028 2.329-5.1-5.674a7.039 7.039 0 00.774-2.7A15.421 15.421 0 0039.02 30.558l.006-9.38a8.061 8.061 0 00-8.061-8.071L16.276 13.1a8.061 8.061 0 00-8.07 8.061l-.005 7.472a2.374 2.374 0 01-1.295-2.111l.01-14.038A2.74 2.74 0 019.651 9.75a1.152 1.152 0 001.072-.724 10.3 10.3 0 019.572-6.476l15.494.011-1.429 3.768a1.153 1.153 0 00.756 1.521l2 .58a4.649 4.649 0 013.362 4.444l-.013 13.676a1.152 1.152 0 102.3 0c0-.085.01-13.641.009-13.726a6.966 6.966 0 00-5.024-6.6l-.8-.232 1.578-4.161A1.153 1.153 0 0037.459.262L20.296.25A12.606 12.606 0 008.872 7.505a5.049 5.049 0 00-4.266 4.978l-.009 14.038a4.693 4.693 0 003.609 4.558 15.415 15.415 0 008.766 13.358v.294a4.8 4.8 0 01-4.815 4.8A11.889 11.889 0 00.255 61.416v6.807a1.152 1.152 0 002.3 0v-6.807a9.583 9.583 0 019.589-9.582 7.193 7.193 0 001.513-.159l1.6 7.3a1.153 1.153 0 002 .509l4.149-4.772 1.033 1.149v6.9a1.152 1.152 0 002.3 0v-6.915l1.012-1.162 4.165 4.8a1.153 1.153 0 002-.506l1.613-7.3a7.226 7.226 0 001.505.161 9.584 9.584 0 019.583 9.6v6.807a1.152 1.152 0 102.3 0v-6.807A11.887 11.887 0 0035.038 49.55zM10.506 30.502l.006-9.34a5.768 5.768 0 015.762-5.758l14.7.01a5.758 5.758 0 015.758 5.765l-.006 9.4a13.11 13.11 0 01-26.22-.077zm6.52 25.74l-1.194-5.422a7.153 7.153 0 001.232-.942l2.792 3.106z" fill="#585858" stroke="#585858" stroke-width=".5"/></svg>