<svg width="14000" height="12000" viewBox="0 0 14000 12000" xmlns="http://www.w3.org/2000/svg" xmlns:xlink="http://www.w3.org/1999/xlink"><path xmlns="http://www.w3.org/2000/svg" d="M57.577 24.96a4.948 4.948 0 00-4.942-4.942H36.821a2.969 2.969 0 01-2.965-2.968V5.192a4.942 4.942 0 00-9.884 0v6.974a2.983 2.983 0 01-.312 1.326l-2.945 5.893a3 3 0 01-1.327 1.327l-5.3 2.648v-6.31a.987.987 0 00-.988-.988H1.238a.987.987 0 00-.988.988v35.585a.987.987 0 00.988.988h11.861a.987.987 0 00.988-.988v-5.521l5.063 5.062a4.911 4.911 0 003.495 1.448h18.17a4.958 4.958 0 004.942-4.89 4.889 4.889 0 00-1.015-3.019 4.939 4.939 0 003.938-7.906h0a4.948 4.948 0 004.942-4.942 4.891 4.891 0 00-1.014-2.965h.026a4.948 4.948 0 004.943-4.942zM12.111 51.65H2.227V18.041h9.884zm36.571-23.725a.988.988 0 100 1.977 2.965 2.965 0 010 5.93h-3.954a.988.988 0 000 1.977 2.965 2.965 0 010 5.93h-3.953a.988.988 0 100 1.977h.041a2.966 2.966 0 010 5.931H22.644a2.95 2.95 0 01-2.1-.869l-6.459-6.46V25.571l6.183-3.092a4.975 4.975 0 002.212-2.209l2.946-5.895a4.969 4.969 0 00.522-2.209V5.192a2.965 2.965 0 015.93 0V17.05a4.948 4.948 0 004.942 4.942h15.815a2.965 2.965 0 010 5.93z" fill="#585858" stroke="#585858" stroke-width=".5"/></svg>