<svg width="14000" height="12000" viewBox="0 0 14000 12000" xmlns="http://www.w3.org/2000/svg" xmlns:xlink="http://www.w3.org/1999/xlink"><g xmlns="http://www.w3.org/2000/svg" fill="none" stroke="#585858" stroke-width="2.2"><path d="M21.6 19.624a12.311 12.311 0 004.972-3.616 7.722 7.722 0 000-9.964A12.312 12.312 0 0021.6 2.428a17.462 17.462 0 00-6.852-1.332 17.467 17.467 0 00-6.853 1.328A12.312 12.312 0 002.923 6.04 7.83 7.83 0 001.1 11.026a7.618 7.618 0 001.377 4.343 11.328 11.328 0 003.78 3.427q-.194.466-.4.853a4.914 4.914 0 01-.485.746q-.281.359-.436.562t-.5.572q-.349.368-.446.484c0-.013-.026.016-.078.087s-.081.1-.087.1-.032.025-.078.1l-.068.107-.049.1a.415.415 0 00-.039.116.759.759 0 00-.01.126.39.39 0 00.02.126.642.642 0 00.223.407.606.606 0 00.4.155h.058a16.252 16.252 0 001.667-.31 16.3 16.3 0 005.389-2.481 19.468 19.468 0 003.412.31 17.445 17.445 0 006.85-1.332z"/><path d="M36.078 21.955A7.567 7.567 0 0036 13.143a11.492 11.492 0 00-3.955-3.451 9.977 9.977 0 01-.853 7.871 12.977 12.977 0 01-3.722 4.11 17.165 17.165 0 01-5.118 2.5 20.482 20.482 0 01-5.99.872q-.581 0-1.706-.077a16.29 16.29 0 009.15 2.559 19.476 19.476 0 003.412-.31 15.481 15.481 0 007.057 2.792.584.584 0 00.427-.136.716.716 0 00.252-.426c-.006-.078 0-.12.019-.126s.016-.048-.01-.126l-.039-.116-.048-.1a.926.926 0 00-.068-.106.832.832 0 00-.078-.1c-.019-.019-.048-.052-.087-.1s-.065-.074-.078-.087q-.1-.116-.446-.485t-.5-.572l-.436-.562a4.9 4.9 0 01-.485-.746q-.2-.388-.4-.853a11.375 11.375 0 003.78-3.413z"/></g></svg>