<svg width="14000" height="12000" viewBox="0 0 14000 12000" xmlns="http://www.w3.org/2000/svg" xmlns:xlink="http://www.w3.org/1999/xlink"><g xmlns="http://www.w3.org/2000/svg" data-name="Grupo 263"><g filter="url(#bma)"><circle data-name="Elipse 1" cx="53" cy="53" r="53" transform="translate(9 43.5)" fill="#FFF"/></g><path data-name="Linha 28" fill="none" stroke="#50B848" stroke-linecap="round" stroke-width="4" d="M104.5 43.5l14-14"/><path data-name="Linha 29" fill="none" stroke="#50B848" stroke-linecap="round" stroke-width="4" d="M17.5 43.5l-14-14"/><path data-name="Linha 30" fill="none" stroke="#50B848" stroke-linecap="round" stroke-width="4" d="M62 26.5V2"/><path d="M93.779 111.15l-9.929-9.932a4.642 4.642 0 00-3.309-1.372 4.652 4.652 0 00-3.317 1.372l-6.622 6.622-19.869-19.87 6.617-6.622a4.69 4.69 0 000-6.627l-9.933-9.933a4.649 4.649 0 00-3.309-1.37 4.646 4.646 0 00-3.311 1.375l-9.938 9.935c-.3.3-2.92 3.133-1.677 9.359 1.468 7.331 7.602 16.436 18.235 27.07 15.218 15.218 24.817 18.585 30.333 18.585 3.817 0 5.681-1.613 6.1-2.03l9.933-9.933a4.689 4.689 0 000-6.629zm-13.244 13.249c-.066.066-7.983 5.266-29.807-16.555C28.433 85.551 34.18 78.037 34.17 78.039l9.936-9.938 9.936 9.938-8.278 8.279a2.339 2.339 0 000 3.311l23.18 23.18a2.339 2.339 0 003.311 0l8.278-8.28 9.936 9.938z" fill="#50B848"/></g></svg>