<svg width="14000" height="12000" viewBox="0 0 14000 12000" xmlns="http://www.w3.org/2000/svg" xmlns:xlink="http://www.w3.org/1999/xlink"><svg width="2000" height="2000" viewBox="-0.82 -0.82 16.4 16.4" x="2000" y="4000" xmlns="http://www.w3.org/2000/svg"><path d="M12.6 2.162A7.333 7.333 0 007.382 0a7.382 7.382 0 00-5.22 12.6A7.382 7.382 0 0012.6 2.162zm.482 8.372h-2.16a9.715 9.715 0 00.5-2.72h2.456a6.468 6.468 0 01-.794 2.72zm-5.7 3.3A6.123 6.123 0 015.148 11.4h4.467a6.123 6.123 0 01-2.233 2.434zm-2.624-3.3a8.794 8.794 0 01-.558-2.72h6.36a8.794 8.794 0 01-.556 2.72zM.88 7.814h2.456a9.715 9.715 0 00.5 2.72H1.68a6.468 6.468 0 01-.8-2.72zm.8-3.585h2.16a9.715 9.715 0 00-.5 2.72H.88a6.468 6.468 0 01.8-2.719zm5.7-3.3a6.123 6.123 0 012.235 2.436H5.148A6.123 6.123 0 017.382.929zm2.624 3.3a8.794 8.794 0 01.556 2.72H4.2a8.794 8.794 0 01.556-2.72zm3.878 2.72h-2.454a9.715 9.715 0 00-.5-2.72h2.16a6.468 6.468 0 01.796 2.72zm-3.305-3.584a7.658 7.658 0 00-1.615-2.306 6.532 6.532 0 013.548 2.306zM5.8 1.059a7.658 7.658 0 00-1.613 2.306H2.254A6.532 6.532 0 015.8 1.059zM4.187 11.4A7.658 7.658 0 005.8 13.7a6.532 6.532 0 01-3.546-2.3zm4.775 2.3a7.659 7.659 0 001.615-2.3h1.933a6.532 6.532 0 01-3.548 2.3zm0 0" fill="#fff"/></svg></svg>