<svg width="14000" height="12000" viewBox="0 0 14000 12000" xmlns="http://www.w3.org/2000/svg" xmlns:xlink="http://www.w3.org/1999/xlink"><svg width="2000" height="2000" viewBox="-0.87 -0.87 17.31 17.31" x="4000" y="4000" xmlns="http://www.w3.org/2000/svg"><path d="M11.703 15.581a4.083 4.083 0 01-2.191-.644l-.019-.012a32.759 32.759 0 01-8.841-8.84A4.065 4.065 0 011.197.994l.5-.5a1.686 1.686 0 012.381 0l2.119 2.117a1.685 1.685 0 010 2.38.712.712 0 000 1.005l3.4 3.4a.711.711 0 00.995-.009 1.686 1.686 0 012.381 0l2.116 2.115a1.686 1.686 0 010 2.381l-.5.5a4.049 4.049 0 01-2.886 1.198zm-1.675-1.467a3.143 3.143 0 001.676.491 3.077 3.077 0 002.188-.914l.5-.5a.713.713 0 000-1.005l-2.113-2.114a.712.712 0 00-1 0 1.683 1.683 0 01-2.374.006L5.512 6.683a1.686 1.686 0 010-2.381.711.711 0 000-1l-.02-.02-2.1-2.1a.713.713 0 00-1 0l-.5.5a3.086 3.086 0 00-.424 3.862 31.777 31.777 0 008.567 8.57z" fill="#fff"/></svg></svg>