<svg width="14000" height="12000" viewBox="0 0 14000 12000" xmlns="http://www.w3.org/2000/svg" xmlns:xlink="http://www.w3.org/1999/xlink"><svg width="2000" height="2000" viewBox="-2.29 -2.29 45.88 45.88" x="6000" y="4000" xmlns="http://www.w3.org/2000/svg"><path data-name="Caminho 87" d="M20.647 41.293a2.584 2.584 0 01-2.581-2.581v-12.9a2.584 2.584 0 012.581-2.581h3.871v-1.29a3.875 3.875 0 013.871-3.875h2.577a3.875 3.875 0 013.871 3.871v1.29h3.871a2.584 2.584 0 012.581 2.581v12.9a2.584 2.584 0 01-2.581 2.581zm0-2.581h18.065v-7.746h-7.746v1.29a1.29 1.29 0 01-2.581 0v-1.29h-7.738zm18.065-10.323v-2.581H20.647v2.581zm-6.452-5.162v-1.29a1.291 1.291 0 00-1.29-1.29h-2.581a1.291 1.291 0 00-1.29 1.29v1.29z" fill="#585858"/><path data-name="Caminho 88" d="M9.033 12.9a6.452 6.452 0 116.448-6.448A6.459 6.459 0 019.033 12.9zm0-10.323a3.871 3.871 0 103.871 3.871 3.875 3.875 0 00-3.871-3.867z" fill="#585858"/><path data-name="Caminho 89" d="M5.162 41.293a1.285 1.285 0 01-1.284-1.161L2.7 28.389H1.29A1.291 1.291 0 010 27.098v-5.161a9.033 9.033 0 0116.942-4.365 1.289 1.289 0 01-1.129 1.913 1.293 1.293 0 01-1.13-.668 6.453 6.453 0 00-12.1 3.119v3.868h1.29a1.285 1.285 0 011.284 1.161L6.33 38.712h5.408l.76-7.613a1.283 1.283 0 011.275-1.163 1.45 1.45 0 01.148.009 1.292 1.292 0 011.146 1.413l-.877 8.775a1.288 1.288 0 01-1.29 1.16z" fill="#585858"/></svg></svg>