<svg width="14000" height="12000" viewBox="0 0 14000 12000" xmlns="http://www.w3.org/2000/svg" xmlns:xlink="http://www.w3.org/1999/xlink"><svg width="2000" height="2000" viewBox="-3.41 -12.99 68.16 68.16" y="6000" xmlns="http://www.w3.org/2000/svg"><path data-name="Caminho 150" d="M53.68 42.177a5.757 5.757 0 01-5.751-5.751v-1.918H13.42v1.917a5.751 5.751 0 11-11.5 0v-2.722A4.451 4.451 0 010 30.035V20.45a7.042 7.042 0 016.416-7l3.85-8.581A7.628 7.628 0 0117.4 0h26.543a7.7 7.7 0 017.185 4.977l3.8 8.471a7.041 7.041 0 016.416 7v9.586a4.451 4.451 0 01-1.917 3.668v2.722a5.757 5.757 0 01-5.747 5.753zm-1.917-5.751a1.917 1.917 0 103.834 0v-1.918h-3.834zm-46.011 0a1.917 1.917 0 103.834 0v-1.918H5.751zM7.029 17.25a3.2 3.2 0 00-3.2 3.2v9.586a.639.639 0 00.639.639h52.4a.639.639 0 00.639-.639V20.45a3.2 3.2 0 00-3.2-3.2zm43.691-3.83l-3.134-6.986a3.927 3.927 0 00-3.635-2.6H17.4a3.849 3.849 0 00-3.589 2.487l-3.182 7.1z" fill="#585858"/></svg></svg>