<svg width="14000" height="12000" viewBox="0 0 14000 12000" xmlns="http://www.w3.org/2000/svg" xmlns:xlink="http://www.w3.org/1999/xlink"><svg width="2000" height="2000" viewBox="-2.36 -2.36 47.3 47.3" x="4000" y="6000" xmlns="http://www.w3.org/2000/svg"><path data-name="Caminho 92" d="M13.302 31.924a6.652 6.652 0 116.652-6.652 6.659 6.659 0 01-6.652 6.652zm0-10.643a3.991 3.991 0 103.991 3.991 3.995 3.995 0 00-3.991-3.987z" fill="#585858"/><path data-name="Caminho 93" d="M19.955 42.571a1.331 1.331 0 01-1.33-1.33v-1.33a5.321 5.321 0 10-10.643 0v1.33a1.33 1.33 0 01-2.661 0v-1.33a7.982 7.982 0 1115.964 0v1.33a1.331 1.331 0 01-1.33 1.33z" fill="#585858"/><path data-name="Caminho 94" d="M29.265 31.924a6.652 6.652 0 116.652-6.652 6.659 6.659 0 01-6.652 6.652zm0-10.643a3.991 3.991 0 103.991 3.991 3.995 3.995 0 00-3.991-3.987z" fill="#585858"/><path data-name="Caminho 95" d="M35.919 42.571a1.331 1.331 0 01-1.33-1.33v-1.33a5.32 5.32 0 00-9.08-3.764 1.331 1.331 0 01-1.882-1.884 7.982 7.982 0 0113.622 5.645v1.33a1.331 1.331 0 01-1.33 1.333z" fill="#585858"/><path data-name="Caminho 96" d="M41.24 42.57a1.331 1.331 0 01-1.33-1.33v-19.4L21.285 3.212 2.661 21.837v19.4A1.33 1.33 0 010 41.24V21.285a1.317 1.317 0 01.39-.94L20.345.39a1.327 1.327 0 011.88 0L42.18 20.345a1.317 1.317 0 01.39.94V41.24a1.331 1.331 0 01-1.33 1.33z" fill="#585858"/></svg></svg>