<svg width="14000" height="12000" viewBox="0 0 14000 12000" xmlns="http://www.w3.org/2000/svg" xmlns:xlink="http://www.w3.org/1999/xlink"><svg width="2000" height="2000" viewBox="-3.45 -6.19 68.9 68.9" x="6000" y="6000" xmlns="http://www.w3.org/2000/svg"><g data-name="Grupo 262" fill="#585858"><path data-name="Caminho 151" d="M60.073 31.338a1.919 1.919 0 01-1.373-.57L32.391 4.454a1.946 1.946 0 00-2.757-.016L3.307 30.768a1.934 1.934 0 01-2.739 0 1.934 1.934 0 010-2.739L26.895 1.703a5.817 5.817 0 018.2-.021l5.721 5.721a1.939 1.939 0 011.814-1.258h9.689a1.939 1.939 0 011.941 1.937v12.764l7.183 7.183a1.938 1.938 0 01-1.37 3.309zM50.384 16.97v-6.95h-5.813v1.137z"/><path data-name="Caminho 152" d="M3.876 56.528a1.938 1.938 0 110-3.876h3.876V33.274a1.938 1.938 0 113.876 0v19.378h11.626V39.087a5.819 5.819 0 015.814-5.814h3.876a5.819 5.819 0 015.814 5.814v13.565h11.63V33.274a1.938 1.938 0 013.876 0v19.378h3.876a1.938 1.938 0 010 3.876zm31.006-3.876V39.087a1.939 1.939 0 00-1.938-1.941h-3.876a1.939 1.939 0 00-1.938 1.938v13.568z"/></g></svg></svg>