<svg width="14000" height="12000" viewBox="0 0 14000 12000" xmlns="http://www.w3.org/2000/svg" xmlns:xlink="http://www.w3.org/1999/xlink"><svg width="2000" height="2000" viewBox="-0.83 -0.83 16.62 16.62" x="8000" y="2000" xmlns="http://www.w3.org/2000/svg"><path data-name="Caminho 99" d="M7.479 14.957a7.479 7.479 0 117.479-7.479 7.487 7.487 0 01-7.479 7.479z" fill="#235193"/><path data-name="Caminho 100" d="M5.561 11.229a1.151 1.151 0 01-1.15-1.15V7.011a1.154 1.154 0 01.767-1.084v-.834a2.3 2.3 0 114.6 0v.833a1.154 1.154 0 01.767 1.084v3.068a1.151 1.151 0 01-1.15 1.15zm3.45-5.368v-.768a1.534 1.534 0 10-3.068 0v.767z" fill="#fff"/></svg></svg>