<svg width="14000" height="12000" viewBox="0 0 14000 12000" xmlns="http://www.w3.org/2000/svg" xmlns:xlink="http://www.w3.org/1999/xlink"><svg width="2000" height="2000" viewBox="-2.12 -3.39 42.39 42.39" x="8000" y="4000" xmlns="http://www.w3.org/2000/svg"><path data-name="Caminho 254" d="M26.152 13.038a13.052 13.052 0 01-13.635 13.025 12.867 12.867 0 01-4.978-1.235l-6.2 1.226A1.117 1.117 0 01.022 24.74l1.226-6.13A12.9 12.9 0 010 13.038a13.076 13.076 0 0126.151 0z" fill="#ffcc32"/><path data-name="Caminho 255" d="M26.151 13.039a13.052 13.052 0 01-13.635 13.025V.014A13.052 13.052 0 0126.15 13.039z" fill="#f5b335"/><path data-name="Caminho 256" d="M38.125 34.277a1.118 1.118 0 01-1.313 1.315l-6.2-1.226a12.9 12.9 0 01-5.574 1.248 13.039 13.039 0 1113.113-13.038 12.9 12.9 0 01-1.247 5.572z" fill="#6aa9ff"/><path data-name="Caminho 257" d="M38.125 34.277a1.118 1.118 0 01-1.313 1.315l-6.2-1.226a12.9 12.9 0 01-5.579 1.248V9.539a13.09 13.09 0 0113.113 13.038 12.9 12.9 0 01-1.247 5.572z" fill="#2682ff"/></svg></svg>