<svg width="14000" height="12000" viewBox="0 0 14000 12000" xmlns="http://www.w3.org/2000/svg" xmlns:xlink="http://www.w3.org/1999/xlink"><svg width="2000" height="2000" viewBox="-2.35 -2.34 46.84 46.84" x="8000" y="6000" xmlns="http://www.w3.org/2000/svg"><path d="M41.273 30.342l-6.314-6.314a2.951 2.951 0 00-2.1-.872 2.957 2.957 0 00-2.1.872l-4.219 4.209-12.63-12.63 4.21-4.207a2.981 2.981 0 000-4.212L11.8.871A2.956 2.956 0 009.7 0a2.953 2.953 0 00-2.1.874L1.277 7.189c-.192.191-1.856 1.992-1.066 5.95C1.143 17.8 5.043 23.587 11.8 30.346 21.476 40.02 27.578 42.16 31.083 42.16a5.4 5.4 0 003.876-1.291l6.314-6.314a2.981 2.981 0 000-4.214zm-8.419 8.422c-.042.042-5.074 3.348-18.947-10.524C-.265 14.069 3.388 9.293 3.382 9.294L9.7 2.977l6.316 6.317-5.262 5.262a1.487 1.487 0 000 2.1L25.486 31.4a1.487 1.487 0 002.1 0l5.262-5.263 6.316 6.317z" fill="#4d72aa"/></svg></svg>