<svg width="14000" height="12000" viewBox="0 0 14000 12000" xmlns="http://www.w3.org/2000/svg" xmlns:xlink="http://www.w3.org/1999/xlink"><svg width="2000" height="2000" viewBox="-1.89 -1.89 37.84 37.84" y="8000" xmlns="http://www.w3.org/2000/svg"><path data-name="Caminho 263" d="M0 34.055l3.453-9.866A16.309 16.309 0 119.866 30.6z" fill="#86f28b"/><path data-name="Caminho 264" d="M0 34.055l9.866-3.453A16.314 16.314 0 0029.277 4.778z" fill="#66e26f"/><path data-name="Caminho 265" d="M14.035 20.019c3.9 3.9 8.327 5.8 9.887 4.237l1.883-1.883a1 1 0 000-1.412l-2.354-2.354a1 1 0 00-1.412 0l-1.412 1.412a13.858 13.858 0 01-6.592-6.592l1.412-1.412a1 1 0 000-1.412l-2.354-2.354a1 1 0 00-1.412 0l-1.883 1.883c-1.561 1.56.336 5.987 4.237 9.887z" fill="#fff"/><path data-name="Caminho 266" d="M25.807 20.961l-2.354-2.354a1 1 0 00-1.412 0l-1.412 1.413a13.856 13.856 0 01-3.867-2.725l-2.725 2.725c3.9 3.9 8.327 5.8 9.887 4.237l1.883-1.883a1 1 0 000-1.413z" fill="#dcf4ff"/></svg></svg>