<svg width="14000" height="12000" viewBox="0 0 14000 12000" xmlns="http://www.w3.org/2000/svg" xmlns:xlink="http://www.w3.org/1999/xlink"><svg width="2000" height="2000" viewBox="-2.77 -1.73 34.6 34.6" x="2000" y="8000" xmlns="http://www.w3.org/2000/svg"><path d="M24.059 20.986l-4.541-.909a1.039 1.039 0 01-.833-1.017v-1.043a11.988 11.988 0 00.87-1.549 9 9 0 01.706-1.254 6.709 6.709 0 002.105-3.324 3.107 3.107 0 00-.3-2.437 18.337 18.337 0 00-.353-4.213 4.58 4.58 0 00-1.078-3.34 3.22 3.22 0 00-1.927-.808A3.341 3.341 0 0118 .924 7.3 7.3 0 0014.494 0a8.163 8.163 0 00-7.229 4.966 12.2 12.2 0 00-.284 3.758l-.029.729a3.3 3.3 0 00-.262 2.435 6.685 6.685 0 002.1 3.324 9.148 9.148 0 01.714 1.26 12.6 12.6 0 00.876 1.547v1.04a1.038 1.038 0 01-.835 1.017l-4.541.909A6.243 6.243 0 000 27.092v1.974a2.08 2.08 0 002.076 2.076h24.915a2.08 2.08 0 002.076-2.076v-1.974a6.242 6.242 0 00-5.008-6.106zm2.932 8.081H2.076v-1.975a4.162 4.162 0 013.339-4.071l4.539-.909a3.117 3.117 0 002.5-3.052v-1.412a1.036 1.036 0 00-.309-.739 9.008 9.008 0 01-.793-1.381 7.383 7.383 0 00-1.111-1.8 4.806 4.806 0 01-1.522-2.259A1.314 1.314 0 018.8 10.4a1.988 1.988 0 00.264-.943l-.01-.77a12.238 12.238 0 01.162-3.013 6.088 6.088 0 015.29-3.594A5.075 5.075 0 0117 2.741a4.27 4.27 0 001.364.394 4.016 4.016 0 01.745.166c.28.305.513.673.529 2.1a.982.982 0 00.042.278 16.3 16.3 0 01.309 3.772 2.012 2.012 0 00.264.943 1.318 1.318 0 01.079 1.078 4.821 4.821 0 01-1.522 2.257 7.294 7.294 0 00-1.107 1.8 8.626 8.626 0 01-.781 1.372 1.038 1.038 0 00-.311.741v1.418a3.121 3.121 0 002.5 3.054l4.541.909a4.159 4.159 0 013.336 4.069z" fill="#4d72aa"/></svg></svg>