<svg width="14000" height="12000" viewBox="0 0 14000 12000" xmlns="http://www.w3.org/2000/svg" xmlns:xlink="http://www.w3.org/1999/xlink"><svg width="2000" height="2000" viewBox="-2.43 -6.97 48.51 48.51" x="4000" y="8000" xmlns="http://www.w3.org/2000/svg"><path d="M12.469 23.915l-4.391-4.39a4.522 4.522 0 00-3.216-1.332H1.82a.91.91 0 100 1.819h3.042a2.748 2.748 0 011.928.8l2.84 2.84H1.82a.91.91 0 000 1.819h10.005a.911.911 0 00.644-1.554zM11.825 28.198a.91.91 0 00-.91.91v2.729a.911.911 0 01-.91.91H4.548a.911.911 0 01-.91-.91v-3.638a.91.91 0 10-1.819 0v3.638a2.732 2.732 0 002.729 2.729h5.458a2.732 2.732 0 002.729-2.729v-2.729a.91.91 0 00-.91-.91z" fill="#585858"/><path d="M39.533 12.838c-2.507-1.312-8.134-1.923-17.7-1.923s-15.2.611-17.7 1.923C1.272 14.33 0 16.822 0 20.921a32.4 32.4 0 00.941 7.511.907.907 0 00.879.675h7.971l3.446 1.723a.913.913 0 00.408.1h16.372a.9.9 0 00.406-.1l3.447-1.723h7.972a.907.907 0 00.879-.675 32.4 32.4 0 00.941-7.511c-.001-4.099-1.273-6.591-4.129-8.083zm1.59 14.45h-7.466a.9.9 0 00-.408.1L29.8 29.107H13.859l-3.446-1.726a.913.913 0 00-.408-.1H2.54a31.279 31.279 0 01-.72-6.367c0-3.426.913-5.3 3.149-6.471 2.179-1.139 7.852-1.715 16.862-1.715s14.683.577 16.862 1.715c2.236 1.17 3.149 3.045 3.149 6.471a31.439 31.439 0 01-.719 6.374z" fill="#585858"/><path d="M41.842 23.65h-7.81l2.838-2.84a2.752 2.752 0 011.93-.8h3.042a.91.91 0 000-1.819H38.8a4.522 4.522 0 00-3.216 1.334l-4.392 4.392a.911.911 0 00.644 1.554h10.006a.91.91 0 000-1.819zM32.66 18.716a.911.911 0 00-.824-.524H11.825a.909.909 0 00-.7 1.492l4.548 5.458a.911.911 0 00.7.327h10.915a.911.911 0 00.7-.327l4.548-5.458a.907.907 0 00.124-.968zm-5.8 4.934H16.799l-3.033-3.638h16.127zM39.949 13.282c-1.035-2.38-4.5-10.222-5.7-11.246C32.749.761 28.449 0 22.749 0h-1.827c-5.7 0-10 .76-11.5 2.034-1.2 1.024-4.67 8.867-5.7 11.246a.91.91 0 001.67.726c2.054-4.728 4.566-9.982 5.212-10.584.7-.595 3.664-1.6 10.326-1.6h1.811c6.662 0 9.625 1.008 10.322 1.6.649.606 3.162 5.858 5.216 10.588a.91.91 0 001.67-.724zM40.932 27.288a.91.91 0 00-.91.91v3.638a.911.911 0 01-.91.91h-5.458a.911.911 0 01-.91-.91v-2.729a.91.91 0 10-1.819 0v2.729a2.732 2.732 0 002.729 2.729h5.458a2.732 2.732 0 002.729-2.729v-3.638a.91.91 0 00-.909-.91z" fill="#585858"/></svg></svg>