<svg width="14000" height="12000" viewBox="0 0 14000 12000" xmlns="http://www.w3.org/2000/svg" xmlns:xlink="http://www.w3.org/1999/xlink"><svg width="2000" height="2000" viewBox="-0.53 -0.53 10.7 10.7" x="10000" y="6000" xmlns="http://www.w3.org/2000/svg"><g fill="#4d72aa"><path d="M8.983 2.4A4.794 4.794 0 007.231.646 4.709 4.709 0 004.815 0 4.709 4.709 0 002.4.646 4.793 4.793 0 00.646 2.4 4.709 4.709 0 000 4.814a4.71 4.71 0 00.646 2.417A4.794 4.794 0 002.4 8.983a4.71 4.71 0 002.417.646 4.71 4.71 0 002.417-.646 4.793 4.793 0 001.749-1.752 4.71 4.71 0 00.646-2.417A4.71 4.71 0 008.983 2.4zM7.767 6.526a3.4 3.4 0 01-1.241 1.241 3.333 3.333 0 01-1.711.457A3.334 3.334 0 013.1 7.767a3.4 3.4 0 01-1.238-1.241A3.333 3.333 0 011.4 4.814 3.333 3.333 0 011.862 3.1 3.4 3.4 0 013.1 1.862 3.333 3.333 0 014.815 1.4a3.333 3.333 0 011.711.458A3.4 3.4 0 017.767 3.1a3.333 3.333 0 01.458 1.711 3.333 3.333 0 01-.458 1.715z"/><path d="M6.939 3.808a.2.2 0 00-.063-.144l-.915-.915a.2.2 0 00-.288 0l-.859.859-.859-.859a.2.2 0 00-.288 0l-.915.915a.2.2 0 000 .288l.859.859-.859.859a.2.2 0 000 .288l.915.915a.2.2 0 00.288 0l.859-.859.859.859a.2.2 0 00.288 0l.915-.915a.2.2 0 000-.288l-.859-.859.859-.859a.2.2 0 00.063-.144z"/></g></svg></svg>