<svg width="14000" height="12000" viewBox="0 0 14000 12000" xmlns="http://www.w3.org/2000/svg" xmlns:xlink="http://www.w3.org/1999/xlink"><svg width="2000" height="2000" viewBox="-6.73 -4.95 98.92 98.92" x="4000" y="10000" xmlns="http://www.w3.org/2000/svg"><g fill="#4d72aa"><path d="M19.586 63.21a8.026 8.026 0 105.648 2.337 7.728 7.728 0 00-5.648-2.337zM17.806 46.296a8.577 8.577 0 00-2.615-6.289 8.574 8.574 0 00-6.288-2.615 8.574 8.574 0 00-6.288 2.615 8.867 8.867 0 000 12.576 8.572 8.572 0 006.288 2.616 8.572 8.572 0 006.288-2.616 8.57 8.57 0 002.615-6.287zM69.443 25.822a4.464 4.464 0 10-3.145-1.308 4.287 4.287 0 003.145 1.308zM19.588 11.574a9.8 9.8 0 00-6.928 16.721A9.8 9.8 0 0026.515 14.44a9.438 9.438 0 00-6.927-2.866zM83.91 42.512a5.376 5.376 0 101.557 3.785 5.149 5.149 0 00-1.557-3.785zM69.443 64.992a6.269 6.269 0 104.4 1.836 6 6 0 00-4.4-1.836zM44.515 74.784a7.128 7.128 0 105.036 2.088 6.866 6.866 0 00-5.036-2.088zM44.515 0a10.306 10.306 0 00-7.569 3.116 10.306 10.306 0 00-3.116 7.568 10.3 10.3 0 003.116 7.567 10.749 10.749 0 0015.136 0 10.3 10.3 0 003.115-7.567 10.308 10.308 0 00-3.115-7.568A10.3 10.3 0 0044.515 0z"/></g></svg></svg>