<svg width="14000" height="12000" viewBox="0 0 14000 12000" xmlns="http://www.w3.org/2000/svg" xmlns:xlink="http://www.w3.org/1999/xlink"><svg width="2000" height="2000" viewBox="-1.74 -1.74 34.87 34.87" x="12000" xmlns="http://www.w3.org/2000/svg"><g fill="#585858"><path d="M0 31.377l2.165-7.844A15.728 15.728 0 010 15.579 15.442 15.442 0 014.593 4.584a15.613 15.613 0 0117.131-3.352 15.88 15.88 0 015.009 3.352 15.682 15.682 0 013.4 4.955 15.147 15.147 0 011.25 6.04 15.381 15.381 0 01-1.25 6.075 16.2 16.2 0 01-8.4 8.457 15.246 15.246 0 01-6.089 1.266 15.65 15.65 0 01-7.627-2.164L0 31.377zM8.442 26.4l.486.27a12.647 12.647 0 0015.912-1.846 13.039 13.039 0 003.834-9.244 12.7 12.7 0 00-3.841-9.135 13.059 13.059 0 00-9.2-3.739A12.883 12.883 0 002.707 15.579a13.037 13.037 0 002 6.979l.325.487-1.243 4.545 4.652-1.19z"/><path d="M11.471 8.331l-1.028-.054a1.229 1.229 0 00-.866.325 4.482 4.482 0 00-1.515 2.326c-.379 1.623.216 3.57 1.623 5.518a16.394 16.394 0 008.872 6.438 4.395 4.395 0 003.679-.433 3.192 3.192 0 001.407-2.056l.162-.757a.544.544 0 00-.271-.6l-3.408-1.569a.516.516 0 00-.649.162l-1.352 1.731a.421.421 0 01-.433.108 10.513 10.513 0 01-5.68-4.869.408.408 0 01.054-.433l1.3-1.461a.666.666 0 00.108-.541L11.905 8.65a.471.471 0 00-.433-.325"/></g></svg></svg>