<svg width="14000" height="12000" viewBox="0 0 14000 12000" xmlns="http://www.w3.org/2000/svg" xmlns:xlink="http://www.w3.org/1999/xlink"><svg width="2000" height="2000" viewBox="-27.72 -8.97 179.44 179.44" x="12000" y="2000" xmlns="http://www.w3.org/2000/svg"><defs><filter id="bla" x="0" y="37.5" width="124" height="124" filterUnits="userSpaceOnUse"><feOffset dy="3"/><feGaussianBlur stdDeviation="3" result="blur"/><feFlood flood-opacity=".161"/><feComposite operator="in" in2="blur"/><feComposite in="SourceGraphic"/></filter></defs><g data-name="Grupo 264"><g filter="url(#bla)"><circle data-name="Elipse 1" cx="53" cy="53" r="53" transform="translate(9 43.5)" fill="#fff"/></g><path data-name="Linha 28" fill="none" stroke="#50B848" stroke-linecap="round" stroke-width="4" d="M104.5 43.5l14-14"/><path data-name="Linha 29" fill="none" stroke="#50B848" stroke-linecap="round" stroke-width="4" d="M17.5 43.5l-14-14"/><path data-name="Linha 30" fill="none" stroke="#50B848" stroke-linecap="round" stroke-width="4" d="M62 26.5V2"/><g data-name="Grupo 78" fill="none" stroke="#50B848" stroke-width="4"><path data-name="Caminho 44" d="M66.47 104.75a23.68 23.68 0 009.565-6.955 14.854 14.854 0 000-19.167 23.682 23.682 0 00-9.564-6.955 33.588 33.588 0 00-13.184-2.558 33.6 33.6 0 00-13.182 2.558 23.682 23.682 0 00-9.564 6.955 15.061 15.061 0 00-3.506 9.587 14.653 14.653 0 002.649 8.354 21.79 21.79 0 007.271 6.6q-.373.9-.764 1.641a9.452 9.452 0 01-.932 1.436q-.541.691-.839 1.081t-.97 1.1q-.671.709-.858.932c0-.025-.05.031-.149.168s-.156.2-.168.187-.062.049-.149.185l-.131.205-.093.186a.8.8 0 00-.074.224 1.459 1.459 0 00-.019.242.75.75 0 00.038.242 1.236 1.236 0 00.429.783 1.165 1.165 0 00.764.3h.112a31.262 31.262 0 003.207-.6 31.357 31.357 0 0010.365-4.776 37.448 37.448 0 006.563.6 33.556 33.556 0 0013.183-2.555z"/><path data-name="Caminho 45" d="M94.317 109.235a14.555 14.555 0 00-.149-16.949 22.1 22.1 0 00-7.607-6.637 19.191 19.191 0 01-1.641 15.14 24.96 24.96 0 01-7.16 7.905 33.018 33.018 0 01-9.845 4.81 39.4 39.4 0 01-11.522 1.678q-1.118 0-3.281-.149a31.335 31.335 0 0017.6 4.922 37.466 37.466 0 006.563-.6 29.779 29.779 0 0013.573 5.37 1.125 1.125 0 00.821-.261 1.378 1.378 0 00.485-.819c-.012-.149 0-.231.038-.243s.03-.093-.019-.242l-.074-.224-.093-.186a1.781 1.781 0 00-.13-.2 1.607 1.607 0 00-.149-.186c-.037-.037-.092-.1-.167-.186s-.124-.143-.149-.168q-.186-.224-.857-.932t-.969-1.1q-.3-.392-.839-1.082a9.43 9.43 0 01-.932-1.436q-.391-.746-.764-1.64a21.879 21.879 0 007.267-6.585z"/></g></g></svg></svg>