<svg width="14000" height="12000" viewBox="0 0 14000 12000" xmlns="http://www.w3.org/2000/svg" xmlns:xlink="http://www.w3.org/1999/xlink"><svg width="2000" height="2000" viewBox="-1.73 -1.73 34.6 34.6" x="4000" xmlns="http://www.w3.org/2000/svg"><g transform="translate(2528.143 -441.858)"><circle cx="15.571" cy="15.571" r="15.571" transform="translate(-2528.143 441.858)" fill="#4d72aa"/><g fill="#fff"><path d="M-2512.143 456a4.74 4.74 0 114.74-4.74 4.745 4.745 0 01-4.74 4.74zm0-8.294a3.555 3.555 0 103.554 3.555 3.559 3.559 0 00-3.554-3.555zM-2504.438 465.48a.593.593 0 01-.592-.592 7.11 7.11 0 00-14.219 0 .593.593 0 01-1.185 0 8.294 8.294 0 1116.589 0 .593.593 0 01-.593.592z"/></g></g></svg></svg>