<svg width="14000" height="12000" viewBox="0 0 14000 12000" xmlns="http://www.w3.org/2000/svg" xmlns:xlink="http://www.w3.org/1999/xlink"><g xmlns="http://www.w3.org/2000/svg" data-name="Grupo 259" transform="translate(-104.689 -299.281)"><g data-name="Grupo 258" transform="translate(104.689 299.281)" fill="#4d72aa"><circle data-name="Elipse 34" cx="3.22" cy="3.22" r="3.22" transform="translate(0 16.598)" opacity=".1"/><circle data-name="Elipse 37" cx="5.397" cy="5.397" r="5.397" transform="translate(4.262 32.187)" opacity=".1"/><path data-name="Caminho 418" d="M73.083 4.639c-6.562-2.668-13.5-4.9-20.573-4.615a30.6 30.6 0 00-25.287 15.86c-4.152 7.786-4.664 16.912-6.452 25.553-2.206 10.647-6.426 20.762-10.934 30.656-2.421 5.315-4.975 10.744-5.371 16.571-.552 8.087 3.314 16.147 9.379 21.528s14.116 8.219 22.2 8.839c4.3.329 8.8.024 12.617-1.979 4.041-2.117 6.988-5.945 11.045-8.032 3.761-1.935 8.16-2.208 12.382-1.955a55.48 55.48 0 0116.165 3.436c5.9 2.217 11.389 5.425 17.277 7.673s12.467 3.5 18.486 1.626c5.648-1.761 10.124-6.038 14.143-10.371a181.457 181.457 0 0018.039-22.823c3.634-5.443 7.016-11.187 8.624-17.532a35.011 35.011 0 00-10.535-34.093c-7.765-6.868-18.193-9.845-28.4-11.659-9.308-1.648-20.07-1.751-28.638-6.047-8.169-4.095-15.604-9.152-24.167-12.636z" opacity=".1"/><circle data-name="Elipse 35" cx="3.22" cy="3.22" r="3.22" transform="translate(87.407 3.03)" opacity=".1"/><circle data-name="Elipse 36" cx="3.22" cy="3.22" r="3.22" transform="translate(138.494 15.751)" opacity=".1"/><circle data-name="Elipse 38" cx="5.397" cy="5.397" r="5.397" transform="translate(70.179 112.135)" opacity=".1"/><circle data-name="Elipse 39" cx="5.397" cy="5.397" r="5.397" transform="translate(142.072 109.023)" opacity=".1"/></g><path data-name="Caminho 419" d="M185.306 318.765c-37.745 0-68.344 20.33-68.344 45.408 0 11.2 6.1 21.446 16.217 29.364v32.957l21.665-21.665a97.21 97.21 0 0030.462 4.752c37.745 0 68.344-20.33 68.344-45.408s-30.599-45.408-68.344-45.408z" fill="#fff"/><path data-name="Caminho 420" d="M190.136 312.325c-37.745 0-68.344 20.33-68.344 45.408 0 11.2 6.1 21.446 16.217 29.364v32.957l21.665-21.665a97.21 97.21 0 0030.462 4.752c37.745 0 68.344-20.33 68.344-45.408s-30.599-45.408-68.344-45.408z" fill="none" stroke="#585858" stroke-miterlimit="10"/><circle data-name="Elipse 40" cx="18.607" cy="18.607" transform="translate(171.529 342.582)" fill="#4d72aa" r="18.607"/><ellipse data-name="Elipse 41" cx="1.785" cy="2.337" rx="1.785" ry="2.337" transform="translate(183.805 351.841)" fill="#fff"/><path data-name="Caminho 422" d="M180.764 362.106s10.166 2.263 18.706.064c0 0 1.045 0 .331 1.208a1.925 1.925 0 01-.783.732c-1.646.841-7.74 3.327-17.483.157a1.917 1.917 0 01-1.265-1.3c-.114-.415-.065-.808.494-.861z" fill="#fff"/><ellipse data-name="Elipse 42" cx="1.785" cy="2.337" rx="1.785" ry="2.337" transform="translate(193.025 351.841)" fill="#fff"/></g></svg>