<svg width="14000" height="12000" viewBox="0 0 14000 12000" xmlns="http://www.w3.org/2000/svg" xmlns:xlink="http://www.w3.org/1999/xlink"><path xmlns="http://www.w3.org/2000/svg" data-name="Caminho 87" d="M20.647 41.293a2.584 2.584 0 01-2.581-2.581v-12.9a2.584 2.584 0 012.581-2.581h3.871v-1.29a3.875 3.875 0 013.871-3.875h2.577a3.875 3.875 0 013.871 3.871v1.29h3.871a2.584 2.584 0 012.581 2.581v12.9a2.584 2.584 0 01-2.581 2.581zm0-2.581h18.065v-7.746h-7.746v1.29a1.29 1.29 0 01-2.581 0v-1.29h-7.738zm18.065-10.323v-2.581H20.647v2.581zm-6.452-5.162v-1.29a1.291 1.291 0 00-1.29-1.29h-2.581a1.291 1.291 0 00-1.29 1.29v1.29z" fill="#585858"/></svg>