<svg width="14000" height="12000" viewBox="0 0 14000 12000" xmlns="http://www.w3.org/2000/svg" xmlns:xlink="http://www.w3.org/1999/xlink"><path xmlns="http://www.w3.org/2000/svg" data-name="Caminho 89" d="M5.162 41.293a1.285 1.285 0 01-1.284-1.161L2.7 28.389H1.29A1.291 1.291 0 010 27.098v-5.161a9.033 9.033 0 0116.942-4.365 1.289 1.289 0 01-1.129 1.913 1.293 1.293 0 01-1.13-.668 6.453 6.453 0 00-12.1 3.119v3.868h1.29a1.285 1.285 0 011.284 1.161L6.33 38.712h5.408l.76-7.613a1.283 1.283 0 011.275-1.163 1.45 1.45 0 01.148.009 1.292 1.292 0 011.146 1.413l-.877 8.775a1.288 1.288 0 01-1.29 1.16z" fill="#585858"/></svg>