<svg xmlns="http://www.w3.org/2000/svg" width="201" height="160" viewBox="0 0 201 160" version="1.1"><path d="M 47.105 9.085 C 43.100 10.687, 45.174 10.907, 51 9.499 C 55.758 8.349, 56.028 8.167, 53 8.148 C 51.075 8.137, 48.422 8.558, 47.105 9.085 M 64.083 8.361 C 65.215 9.341, 73.093 9.960, 72.515 9.024 C 72.167 8.461, 70.034 8, 67.774 8 C 65.515 8, 63.854 8.162, 64.083 8.361 M 128.767 9.167 C 129.173 9.573, 131.754 9.523, 134.503 9.057 L 139.500 8.209 133.764 8.319 C 130.609 8.379, 128.361 8.761, 128.767 9.167 M 144.083 8.359 C 144.313 8.557, 146.750 8.978, 149.500 9.296 C 152.717 9.668, 153.787 9.565, 152.500 9.007 C 150.589 8.179, 143.216 7.612, 144.083 8.359 M 78.166 10.876 C 77.092 11.557, 77.141 11.840, 78.416 12.329 C 79.418 12.714, 80 12.398, 80 11.469 C 80 9.769, 79.942 9.750, 78.166 10.876 M 122.099 11.554 C 120.228 12.366, 118.923 13.257, 119.200 13.533 C 119.476 13.809, 121.682 13.137, 124.101 12.040 C 126.520 10.942, 127.825 10.052, 127 10.061 C 126.175 10.071, 123.969 10.743, 122.099 11.554 M 156 10.716 C 156.825 11.023, 158.738 11.899, 160.250 12.663 C 161.762 13.427, 163 13.826, 163 13.551 C 163 12.766, 157.245 9.991, 155.800 10.079 C 154.927 10.132, 154.992 10.341, 156 10.716 M 37.856 13.204 C 36.560 14.192, 34.938 15.467, 34.250 16.039 C 33.563 16.611, 33 16.862, 33 16.598 C 33 15.758, 26.171 23.317, 22.455 28.271 C 20.487 30.895, 18.567 32.850, 18.188 32.616 C 17.810 32.382, 17.431 33.386, 17.347 34.845 C 17.262 36.305, 16.897 38.850, 16.534 40.500 C 16.171 42.150, 16.963 40.949, 18.293 37.831 C 22.806 27.250, 31.032 18.132, 40.500 13.214 C 43.242 11.790, 43.826 11.180, 42.356 11.273 C 41.177 11.348, 39.152 12.217, 37.856 13.204 M 82 12.893 C 82 14.281, 85.806 16.254, 87.305 15.644 C 87.980 15.369, 87.770 15.124, 86.821 15.079 C 85.898 15.036, 84.436 14.293, 83.571 13.429 C 82.707 12.564, 82 12.323, 82 12.893 M 115.393 15.369 C 112.710 16.862, 106 22.732, 106 23.586 C 106 23.942, 107.761 22.718, 109.913 20.866 C 112.065 19.015, 114.877 16.733, 116.163 15.795 C 118.835 13.845, 118.482 13.649, 115.393 15.369 M 164 14.312 C 164 14.484, 165.350 15.622, 167 16.842 C 170.503 19.432, 170.964 18.976, 167.811 16.039 C 165.889 14.248, 164 13.392, 164 14.312 M 91.500 20.422 C 93.700 22.287, 95.650 23.668, 95.833 23.490 C 96.370 22.969, 92.097 19, 91 19 C 90.450 19, 90 18.550, 90 18 C 90 17.450, 89.438 17.007, 88.750 17.015 C 88.063 17.023, 89.300 18.556, 91.500 20.422 M 171 18.878 C 171 20.465, 173.763 22.193, 174.470 21.049 C 174.826 20.472, 174.390 20, 173.500 20 C 172.610 20, 172.160 19.550, 172.500 19 C 172.840 18.450, 172.641 18, 172.059 18 C 171.477 18, 171 18.395, 171 18.878 M 104.334 24.732 C 104.688 25.305, 104.274 26.358, 103.413 27.072 C 102.122 28.144, 101.695 28.124, 100.978 26.964 C 100.263 25.808, 99.985 25.876, 99.421 27.345 C 98.142 30.679, 100.495 31.136, 103.389 28.116 C 105.402 26.015, 105.825 25.010, 104.927 24.455 C 104.180 23.993, 103.946 24.103, 104.334 24.732 M 177.061 26.750 C 178.386 28.262, 179.754 29.867, 180.102 30.317 C 180.449 30.766, 180.681 30.198, 180.617 29.054 C 180.552 27.910, 180.090 27.020, 179.590 27.077 C 179.089 27.133, 178.279 26.464, 177.790 25.590 C 177.301 24.715, 176.395 24, 175.776 24 C 175.157 24, 175.736 25.238, 177.061 26.750 M 184.465 39.586 C 184.908 40.639, 185.846 43.750, 186.550 46.500 C 187.254 49.250, 187.868 50.687, 187.915 49.693 C 188.050 46.813, 185.855 39.028, 184.707 38.319 C 184.021 37.895, 183.938 38.332, 184.465 39.586 M 14.158 49 C 14.158 50.375, 14.385 50.938, 14.662 50.250 C 14.940 49.563, 14.940 48.438, 14.662 47.750 C 14.385 47.063, 14.158 47.625, 14.158 49 M 13.300 61 C 13.300 64.025, 13.487 65.263, 13.716 63.750 C 13.945 62.237, 13.945 59.763, 13.716 58.250 C 13.487 56.737, 13.300 57.975, 13.300 61 M 188.158 60 C 188.158 61.375, 188.385 61.938, 188.662 61.250 C 188.940 60.563, 188.940 59.438, 188.662 58.750 C 188.385 58.063, 188.158 58.625, 188.158 60 M 14.091 69.500 C 13.972 72.487, 15.916 78.830, 17.192 79.618 C 17.933 80.077, 18.024 79.849, 17.463 78.940 C 16.998 78.187, 16.067 75.305, 15.394 72.536 C 14.721 69.766, 14.134 68.400, 14.091 69.500 M 187.100 70.282 C 187.045 71.812, 186.319 74.694, 185.487 76.686 C 183.341 81.823, 184.238 81.824, 186.601 76.688 C 187.870 73.930, 188.326 71.538, 187.884 69.955 C 187.207 67.528, 187.198 67.532, 187.100 70.282 M 130.003 81.738 C 124.007 82.856, 114.756 88.114, 109.454 93.416 C 101.883 100.987, 97.984 109.479, 97.265 119.964 C 96.460 131.714, 98.690 138.850, 106.275 148.796 L 110.314 154.092 106.907 157.005 L 103.500 159.919 115.500 159.923 L 127.500 159.927 122.339 157.429 C 108.139 150.557, 100.206 136.517, 101.239 120.085 C 102.116 106.124, 110.267 94.045, 122.764 88.188 C 127.848 85.805, 129.693 85.500, 139 85.500 C 148.522 85.500, 150.041 85.766, 155.310 88.353 C 163.474 92.362, 171.240 100.353, 173.912 107.495 C 178.218 119.002, 177.572 132.793, 172.303 141.880 C 168.794 147.932, 161.466 154.794, 155.500 157.616 C 150.554 159.955, 150.536 159.981, 153.809 159.990 C 155.762 159.996, 156.865 159.590, 156.500 159 C 156.160 158.450, 156.652 158, 157.593 158 C 160.161 158, 167.501 152.006, 170.143 147.750 C 171.424 145.688, 172.816 144, 173.236 144 C 173.656 144, 174.007 142.988, 174.015 141.750 C 174.026 140.107, 174.262 139.866, 174.890 140.857 C 175.511 141.836, 175.750 141.557, 175.752 139.857 C 175.752 138.561, 176.516 134.575, 177.449 131 C 179.504 123.127, 179.626 114.232, 177.700 112.637 C 176.946 112.012, 175.762 109.508, 175.071 107.072 C 174.379 104.637, 173.176 101.673, 172.398 100.485 C 171.145 98.572, 171.193 98.135, 172.823 96.660 C 173.834 95.745, 174.890 95.224, 175.169 95.502 C 175.447 95.781, 176.235 94.769, 176.920 93.254 L 178.165 90.500 175.157 93.366 L 172.149 96.231 166.410 91.556 C 159.567 85.982, 156.169 84.133, 149.500 82.356 C 144.681 81.072, 135.187 80.771, 130.003 81.738 M 181.446 85.087 C 181.077 85.685, 181.179 86.579, 181.673 87.073 C 182.204 87.604, 182.571 87.160, 182.571 85.986 C 182.571 83.713, 182.386 83.566, 181.446 85.087 M 19.564 86.707 C 19.022 88.132, 19.136 88.247, 20.124 87.267 C 20.808 86.588, 21.115 85.781, 20.807 85.474 C 20.499 85.166, 19.940 85.721, 19.564 86.707 M 178.603 88.833 C 178.320 89.292, 178.723 89.667, 179.500 89.667 C 180.277 89.667, 180.680 89.292, 180.397 88.833 C 180.114 88.375, 179.710 88, 179.500 88 C 179.290 88, 178.886 88.375, 178.603 88.833 M 27.993 95.902 C 30.250 98.872, 31.865 101.910, 31.580 102.652 C 31.291 103.405, 31.710 104, 32.528 104 C 34.448 104, 49.139 117.966, 48.429 119.115 C 48.128 119.602, 48.610 120, 49.500 120 C 50.468 120, 50.832 120.464, 50.405 121.155 C 49.946 121.897, 50.132 122.036, 50.926 121.546 C 51.772 121.023, 49.216 117.745, 42.814 111.141 C 37.673 105.839, 31.312 99.025, 28.677 96 L 23.888 90.500 27.993 95.902 M 146.125 118.236 L 131.139 133.472 123.600 126.163 C 117.968 120.702, 115.485 118.935, 113.781 119.176 C 112.132 119.410, 111.412 120.268, 111.181 122.273 C 110.913 124.606, 112.276 126.474, 119.754 134.023 C 125.024 139.344, 129.457 143, 130.637 143 C 132.228 143, 151.439 124.628, 166.798 108.417 C 168.677 106.434, 166.599 103, 163.521 103 C 161.737 103, 157.224 106.952, 146.125 118.236 M 54.574 123.842 C 55.633 125.681, 57.737 127.830, 59.250 128.618 C 63.265 130.711, 62.458 129.064, 57.230 124.500 L 52.648 120.500 54.574 123.842 M 63.015 130.750 C 63.042 132.036, 64.436 133.486, 65.972 133.824 C 67.070 134.066, 66.967 133.620, 65.567 132.074 C 63.557 129.854, 62.991 129.560, 63.015 130.750 M 69 135.313 C 69 135.485, 70.463 136.948, 72.250 138.563 L 75.500 141.500 72.563 138.250 C 69.825 135.221, 69 134.540, 69 135.313 M 78.375 144.080 C 79.829 145.224, 80.763 146.574, 80.451 147.080 C 80.138 147.586, 80.758 148, 81.828 148 C 82.899 148, 84.838 149.346, 86.137 150.991 C 87.437 152.636, 89.089 153.986, 89.809 153.991 C 90.529 153.996, 90.840 154.450, 90.500 155 C 90.160 155.550, 90.499 156, 91.252 156 C 92.006 156, 93.637 156.945, 94.878 158.101 C 96.118 159.256, 97.311 160.022, 97.529 159.804 C 97.986 159.347, 77.392 142, 76.392 142 C 76.028 142, 76.920 142.936, 78.375 144.080" stroke="none" fill="#fbfdf8" fill-rule="evenodd"/><path d="M 135.768 85.566 C 135.378 85.955, 133.405 86.405, 131.383 86.566 C 129.361 86.726, 127.435 87.283, 127.103 87.803 C 126.771 88.323, 124.925 89.087, 123 89.501 C 120.529 90.031, 117.589 92.220, 112.998 96.948 C 107.756 102.346, 106.018 104.987, 104.034 110.572 C 101.182 118.598, 100.969 126.386, 103.403 133.699 C 105.252 139.256, 111.584 148.783, 114.500 150.395 C 115.600 151.003, 116.729 151.801, 117.009 152.170 C 117.290 152.538, 118.190 152.988, 119.009 153.170 C 119.829 153.351, 121.175 154.198, 122 155.051 C 122.825 155.904, 125.143 157.367, 127.151 158.301 C 133.543 161.275, 153.356 160.004, 151.344 156.748 C 150.967 156.138, 151.167 155.985, 151.816 156.386 C 154.248 157.889, 167 148.576, 167 145.297 C 167 144.584, 167.559 144.112, 168.241 144.250 C 171.139 144.834, 176 130.320, 176 121.084 C 176 116.448, 172.527 106, 170.985 106 C 170.574 106, 168.960 107.688, 167.399 109.750 C 165.838 111.813, 163.561 114.299, 162.340 115.276 C 161.118 116.253, 159.834 117.947, 159.487 119.041 C 159.140 120.134, 158.495 120.806, 158.055 120.534 C 156.892 119.815, 146.768 130.816, 147.501 132.002 C 147.840 132.551, 147.302 133, 146.304 133 C 145.307 133, 142.139 135.475, 139.266 138.500 C 132.088 146.056, 130.548 145.929, 121.071 137 C 116.985 133.150, 113.273 130, 112.821 130 C 112.369 130, 112 129.473, 112 128.829 C 112 128.185, 111.283 126.865, 110.406 125.896 C 107.827 123.046, 109.393 118.292, 113.185 117.459 C 115.985 116.844, 116.856 117.400, 123.620 124.119 C 130.215 130.671, 131.585 131.506, 131.094 128.676 C 131.015 128.222, 131.401 128.130, 131.953 128.471 C 132.504 128.811, 139.366 122.770, 147.202 115.045 C 160.467 101.968, 162.407 100.491, 165.750 100.925 C 166.438 101.015, 167 100.773, 167 100.388 C 167 98.847, 161.848 93.066, 159.258 91.702 C 157.741 90.903, 155.150 89.551, 153.500 88.697 C 151.850 87.843, 148.475 86.909, 146 86.622 C 143.525 86.334, 140.370 85.820, 138.988 85.478 C 137.606 85.137, 136.157 85.176, 135.768 85.566 M 168.263 102.839 C 168.369 104.247, 168.761 104.639, 169.412 103.988 C 170.063 103.337, 170.008 102.608, 169.251 101.851 C 168.385 100.985, 168.142 101.229, 168.263 102.839" stroke="none" fill="#7eda3b" fill-rule="evenodd"/><path d="M 56 13 C 54.901 13.710, 55.638 13.973, 58.750 13.985 C 61.087 13.993, 63 13.550, 63 13 C 63 11.724, 57.974 11.724, 56 13 M 134.694 12.639 C 133.325 14.008, 135.229 14.906, 138.289 14.335 C 143.269 13.405, 143.917 12, 139.367 12 C 137.148 12, 135.046 12.288, 134.694 12.639 M 144.590 15.627 C 144.083 16.948, 143.064 17.134, 139.162 16.616 C 136.519 16.265, 132.927 16.265, 131.179 16.614 C 128.492 17.152, 128 17.695, 128 20.125 C 128 21.962, 127.480 23, 126.559 23 C 123.986 23, 123.716 20.875, 125.912 17.905 C 127.093 16.307, 127.889 15, 127.679 15 C 125.517 15, 120.804 17.650, 119.543 19.575 C 118.569 21.061, 116.995 22, 115.477 22 C 113.942 22, 113 22.570, 113 23.500 C 113 25.266, 113.425 25.312, 117.899 24.029 C 119.761 23.495, 121.628 23.270, 122.048 23.530 C 123.655 24.523, 121.640 28.015, 118.335 29.965 C 113.491 32.823, 112 32.596, 112 29 C 112 25.108, 110.127 25.117, 109.347 29.013 C 108.907 31.215, 108.039 32.183, 106.122 32.610 C 104.680 32.931, 102.067 33.556, 100.316 33.998 C 97.850 34.621, 96.778 34.412, 95.566 33.073 C 94.705 32.121, 94 30.864, 94 30.278 C 94 29.149, 91.727 28, 89.495 28 C 88.757 28, 86.813 29.128, 85.175 30.506 C 83.471 31.940, 81.535 32.759, 80.651 32.420 C 79.413 31.944, 79.744 31.189, 82.326 28.608 C 84.096 26.837, 86.322 25.090, 87.272 24.726 C 88.223 24.361, 89 23.647, 89 23.138 C 89 21.618, 85.989 20.936, 83.993 22.004 C 82.969 22.552, 81.652 23, 81.066 23 C 79.581 23, 79.727 19.289, 81.250 18.334 C 82.857 17.327, 75.935 15.756, 70.500 15.895 C 68.300 15.951, 62.112 15.958, 56.750 15.910 C 47.930 15.830, 46.997 15.997, 46.968 17.661 C 46.951 18.672, 46.276 20.374, 45.468 21.441 C 43.282 24.332, 43.575 28.656, 46 29.290 C 49.022 30.080, 48.396 32, 45.117 32 C 43.074 32, 42.081 31.417, 41.710 30 C 41.069 27.550, 36.504 27.243, 35.604 29.590 C 34.778 31.741, 35.707 33, 38.118 33 C 39.218 33, 39.840 33.450, 39.500 34 C 39.160 34.550, 37.382 35, 35.548 35 C 31.981 35, 31 33.748, 31 29.196 L 31 26.556 28.750 28.831 C 26.659 30.946, 26.624 31.177, 28.250 32.103 C 30.330 33.287, 30.519 37.368, 28.757 43.016 C 27.166 48.112, 26 48.106, 26 43 C 26 38.363, 23.663 37.451, 21.869 41.388 C 20.608 44.155, 22.408 57.191, 24.344 59.311 C 26.399 61.562, 28 64.923, 28 66.986 C 28 69.747, 26.612 69.513, 24.988 66.477 C 23.383 63.479, 21.635 63.729, 21.155 67.024 C 20.111 74.183, 26.351 89.847, 29.730 88.550 C 30.778 88.148, 32.485 89.157, 34.664 91.468 C 37.509 94.484, 37.712 95, 36.057 95 C 34.990 95, 33.840 95.450, 33.500 96 C 33.132 96.595, 34.323 97, 36.441 97 C 39.492 97, 40 97.330, 40 99.309 C 40 101.732, 41.081 103.366, 44.654 106.342 C 46.472 107.856, 47.128 107.937, 48.854 106.859 C 50.556 105.796, 51.495 105.866, 54.450 107.275 C 56.402 108.206, 58 109.397, 58 109.923 C 58 110.448, 55.896 111.193, 53.324 111.579 L 48.648 112.280 52.706 114.390 C 54.938 115.550, 58.009 117.994, 59.531 119.821 C 61.585 122.288, 62.855 123.002, 64.465 122.598 C 66.626 122.056, 71 124.326, 71 125.989 C 71 126.471, 70.040 127.170, 68.867 127.542 C 66.926 128.158, 67.264 128.701, 72.617 133.564 C 78.985 139.349, 80.581 139.939, 82.581 137.250 C 83.608 135.869, 84.264 135.733, 85.691 136.604 C 88.396 138.254, 89.801 142.873, 87.964 144.077 C 86.695 144.909, 86.713 145.163, 88.103 145.986 C 88.985 146.508, 91.460 148.526, 93.603 150.471 C 98.038 154.494, 101.599 155.809, 103.323 154.060 C 104.229 153.141, 103.848 152.388, 101.672 150.793 C 100.116 149.652, 98.415 147.591, 97.890 146.212 C 97.040 143.974, 96.806 143.880, 95.718 145.333 C 94.836 146.513, 94.086 146.687, 93 145.962 C 91.703 145.097, 91.764 144.761, 93.454 143.472 C 95.238 142.111, 95.298 141.611, 94.141 137.741 C 91.138 127.685, 90.710 124.067, 91.854 118.373 C 93.104 112.148, 92.799 111, 89.897 111 C 88.074 111, 87.936 110.414, 88.206 103.779 L 88.500 96.558 92.755 96.205 C 96.375 95.904, 97.129 96.174, 97.809 98.014 C 98.527 99.955, 98.744 100.013, 99.927 98.588 C 100.941 97.366, 100.975 96.675, 100.074 95.589 C 98.708 93.944, 100.066 92.704, 102.296 93.560 C 103.214 93.912, 104.600 92.966, 105.955 91.064 C 107.155 89.379, 108.711 88, 109.413 88 C 110.115 88, 111.527 87.075, 112.551 85.944 C 114.105 84.227, 114.207 83.561, 113.172 81.903 C 111.226 78.788, 112.604 78, 120 78 C 123.785 78, 127.121 77.613, 127.413 77.141 C 127.705 76.669, 130.994 75.970, 134.722 75.589 C 138.450 75.209, 142.505 74.240, 143.733 73.437 C 145.833 72.063, 146.100 72.181, 148.214 75.406 C 149.754 77.755, 151.413 78.971, 153.481 79.265 C 155.141 79.502, 157.287 80.037, 158.250 80.455 C 159.663 81.068, 160 80.712, 160 78.607 C 160 76.510, 160.477 76, 162.441 76 C 163.784 76, 165.160 76.450, 165.500 77 C 165.840 77.550, 166.961 78, 167.991 78 C 169.021 78, 170.825 79.350, 172 81 C 173.175 82.650, 174.795 84, 175.599 84 C 177.788 84, 178.595 80.913, 176.686 79.844 C 175.488 79.173, 175.220 78.094, 175.664 75.718 C 176.595 70.731, 177.724 70.405, 178.484 74.904 C 179.493 80.879, 180.625 79.921, 181.317 72.506 C 181.651 68.934, 182.405 65.112, 182.993 64.014 C 184.546 61.112, 182.742 44.477, 180.620 42.133 C 179.725 41.143, 178.285 38.258, 177.421 35.721 C 176.291 32.404, 174.887 30.541, 172.424 29.088 C 170.541 27.977, 169 26.389, 169 25.559 C 169 24.730, 167.730 23.394, 166.177 22.592 C 164.625 21.789, 162.751 20.405, 162.014 19.516 C 158.301 15.042, 145.878 12.269, 144.590 15.627 M 35.990 21.658 L 32.500 23.137 34.987 24.481 C 37.758 25.977, 38.528 25.750, 39.997 23.005 C 41.405 20.374, 40.075 19.927, 35.990 21.658 M 49 24 C 49 25.952, 49.471 26.069, 56.250 25.794 C 61.897 25.565, 63.500 25.168, 63.500 24 C 63.500 22.832, 61.897 22.435, 56.250 22.206 C 49.471 21.931, 49 22.048, 49 24 M 162.335 29.175 C 162.701 30.571, 162.295 31.813, 161.202 32.643 C 159.695 33.789, 159.859 33.940, 162.643 33.968 C 164.656 33.989, 166.012 33.410, 166.416 32.359 C 167.407 29.775, 166.061 27, 163.816 27 C 162.204 27, 161.888 27.464, 162.335 29.175 M 107.347 38.569 C 105.551 39.961, 105.551 40.039, 107.347 41.431 C 109.594 43.173, 112 42.433, 112 40 C 112 37.567, 109.594 36.827, 107.347 38.569 M 175.681 45.111 C 175.282 46.638, 175.667 47.362, 177.078 47.731 C 178.875 48.201, 178.975 48.855, 178.370 56.120 C 177.736 63.714, 177.790 64, 179.856 64 C 181.852 64, 182 63.496, 182 56.722 C 182 50.682, 181.660 49.153, 180 47.732 C 178.900 46.790, 178 45.340, 178 44.510 C 178 42.252, 176.315 42.689, 175.681 45.111 M 32.714 45.619 C 31.113 47.220, 32.217 48, 36.083 48 C 38.902 48, 40.040 47.613, 39.756 46.750 C 39.302 45.367, 33.843 44.491, 32.714 45.619 M 96.524 45.810 C 96.236 46.098, 96 46.708, 96 47.167 C 96 48.283, 100.735 48.237, 101.429 47.114 C 102.017 46.164, 97.398 44.936, 96.524 45.810 M 160 47 C 160 48.270, 163.035 48.270, 165 47 C 166.138 46.264, 165.716 46.027, 163.250 46.015 C 161.463 46.007, 160 46.450, 160 47 M 29.393 50.582 C 29.727 51.452, 30 52.802, 30 53.582 C 30 54.362, 30.450 55, 31 55 C 31.550 55, 32 53.650, 32 52 C 32 49.911, 31.512 49, 30.393 49 C 29.338 49, 28.995 49.544, 29.393 50.582 M 17 62 C 17 62.550, 17.702 63, 18.559 63 C 19.416 63, 19.840 62.550, 19.500 62 C 19.160 61.450, 18.459 61, 17.941 61 C 17.423 61, 17 61.450, 17 62 M 113 65.213 C 113 65.646, 116.225 66, 120.167 66 C 124.108 66, 127.003 65.670, 126.600 65.266 C 125.605 64.272, 113 64.222, 113 65.213 M 145 66.039 C 145 67.734, 145.236 67.861, 146.395 66.789 C 147.834 65.459, 147.597 64, 145.941 64 C 145.423 64, 145 64.918, 145 66.039 M 155 64.943 C 155 68.136, 162.550 69.529, 165.450 66.871 C 165.972 66.392, 167.322 65.993, 168.450 65.985 C 170.140 65.972, 170.237 65.799, 169 65 C 167.067 63.751, 155 63.702, 155 64.943 M 129.031 68.364 C 129.297 68.630, 132.887 69.120, 137.008 69.453 C 141.392 69.807, 143.958 69.696, 143.193 69.185 C 141.850 68.287, 128.161 67.494, 129.031 68.364 M 162.427 80.119 C 161.443 81.710, 170.838 90, 172.780 89.254 C 174.016 88.780, 173.796 88.249, 171.658 86.545 C 169.955 85.186, 169 83.451, 169 81.712 C 169 79.377, 168.591 79, 166.059 79 C 164.441 79, 162.807 79.503, 162.427 80.119 M 43 81.147 C 43 82.178, 45.982 85, 47.071 85 C 47.582 85, 48 83.880, 48 82.511 C 48 80.468, 47.552 80.059, 45.500 80.229 C 44.125 80.343, 43 80.756, 43 81.147 M 104 81.500 C 103.315 82.325, 101.235 83, 99.378 83 C 96.957 83, 96 83.451, 96 84.590 C 96 86.304, 99.780 89.912, 101.634 89.967 C 102.961 90.006, 110 82.459, 110 80.997 C 110 79.441, 105.388 79.827, 104 81.500 M 45.166 100.060 C 45.350 101.316, 46.100 102.541, 46.834 102.783 C 47.741 103.082, 48.061 102.491, 47.834 100.940 C 47.650 99.684, 46.900 98.459, 46.166 98.217 C 45.259 97.918, 44.939 98.509, 45.166 100.060 M 96.079 101.583 C 96.127 102.748, 96.364 102.985, 96.683 102.188 C 96.972 101.466, 96.936 100.603, 96.604 100.271 C 96.272 99.939, 96.036 100.529, 96.079 101.583 M 61.754 113.250 C 61.108 115.008, 61.989 117.125, 63.085 116.447 C 64.263 115.719, 64.281 112, 63.107 112 C 62.616 112, 62.007 112.563, 61.754 113.250 M 68 112.965 C 68 114.273, 71.204 115.836, 72.750 115.282 C 75.297 114.368, 74.034 112, 71 112 C 69.350 112, 68 112.434, 68 112.965 M 84.105 118.250 L 84.210 124.500 85.528 120.500 C 87.338 115.008, 87.328 112, 85.500 112 C 84.315 112, 84.022 113.315, 84.105 118.250 M 73 128.812 C 73 129.926, 79.031 134.302, 79.677 133.656 C 80.616 132.717, 76.540 128.064, 74.750 128.031 C 73.787 128.014, 73 128.365, 73 128.812" stroke="none" fill="#ce0e1b" fill-rule="evenodd"/><path d="M 57.750 8.706 C 58.987 8.944, 61.013 8.944, 62.250 8.706 C 63.487 8.467, 62.475 8.272, 60 8.272 C 57.525 8.272, 56.513 8.467, 57.750 8.706 M 140.269 8.693 C 141.242 8.947, 142.592 8.930, 143.269 8.656 C 143.946 8.382, 143.150 8.175, 141.500 8.195 C 139.850 8.215, 139.296 8.439, 140.269 8.693 M 73.500 11 C 76.249 12.181, 77.828 12.181, 76 11 C 75.175 10.467, 73.825 10.055, 73 10.086 C 72.011 10.122, 72.181 10.433, 73.500 11 M 37.250 14.989 C 35.462 16.079, 34 17.187, 34 17.452 C 34 17.716, 35.575 17.003, 37.500 15.867 C 39.425 14.732, 41 13.622, 41 13.401 C 41 12.762, 40.684 12.895, 37.250 14.989 M 80 13.393 C 80 13.609, 80.698 14.054, 81.552 14.382 C 82.442 14.723, 82.843 14.555, 82.493 13.989 C 81.906 13.038, 80 12.583, 80 13.393 M 116.872 15.750 C 115.603 17.369, 115.650 17.390, 117.500 16.033 C 118.600 15.226, 119.688 14.439, 119.917 14.283 C 120.146 14.127, 119.863 14, 119.289 14 C 118.715 14, 117.627 14.787, 116.872 15.750 M 87.500 18 C 88.495 19.100, 89.535 20, 89.810 20 C 90.085 20, 89.495 19.100, 88.500 18 C 87.505 16.900, 86.465 16, 86.190 16 C 85.915 16, 86.505 16.900, 87.500 18 M 110.167 20.750 L 106.412 24.500 109.956 21.503 C 111.905 19.854, 113.927 18.167, 114.450 17.753 C 114.973 17.339, 115.068 17, 114.661 17 C 114.255 17, 112.233 18.688, 110.167 20.750 M 28.437 22.250 L 25.500 25.500 28.750 22.563 C 31.779 19.825, 32.460 19, 31.687 19 C 31.515 19, 30.052 20.462, 28.437 22.250 M 172 21.500 C 173.292 22.875, 174.574 24, 174.849 24 C 175.124 24, 174.292 22.875, 173 21.500 C 171.708 20.125, 170.426 19, 170.151 19 C 169.876 19, 170.708 20.125, 172 21.500 M 94.520 24.250 C 96.667 26.863, 98.584 29, 98.780 29 C 99.496 29, 95.152 23.444, 92.916 21.500 C 91.651 20.400, 92.373 21.637, 94.520 24.250 M 23 29 C 21.825 30.650, 21.089 32, 21.364 32 C 21.639 32, 22.825 30.650, 24 29 C 25.175 27.350, 25.911 26, 25.636 26 C 25.361 26, 24.175 27.350, 23 29 M 176 26.378 C 176 26.585, 176.787 27.373, 177.750 28.128 C 179.336 29.371, 179.371 29.336, 178.128 27.750 C 176.821 26.084, 176 25.555, 176 26.378 M 102 29.500 C 100.708 30.875, 100.067 31.986, 100.576 31.969 C 101.431 31.940, 105.552 27, 104.721 27 C 104.516 27, 103.292 28.125, 102 29.500 M 180 32 C 180.589 33.100, 181.295 34, 181.570 34 C 181.845 34, 181.589 33.100, 181 32 C 180.411 30.900, 179.705 30, 179.430 30 C 179.155 30, 179.411 30.900, 180 32 M 19.564 34.707 C 19.022 36.132, 19.136 36.247, 20.124 35.267 C 20.808 34.588, 21.115 33.781, 20.807 33.474 C 20.499 33.166, 19.940 33.721, 19.564 34.707 M 182.031 35.500 C 182.031 36.050, 182.467 37.175, 183 38 C 183.533 38.825, 183.969 39.050, 183.969 38.500 C 183.969 37.950, 183.533 36.825, 183 36 C 182.467 35.175, 182.031 34.950, 182.031 35.500 M 184.086 40.500 C 184.190 42.394, 185.856 45.584, 185.914 44 C 185.945 43.175, 185.533 41.825, 185 41 C 184.467 40.175, 184.055 39.950, 184.086 40.500 M 15.079 47.583 C 15.127 48.748, 15.364 48.985, 15.683 48.188 C 15.972 47.466, 15.936 46.603, 15.604 46.271 C 15.272 45.939, 15.036 46.529, 15.079 47.583 M 186.079 47.583 C 186.127 48.748, 186.364 48.985, 186.683 48.188 C 186.972 47.466, 186.936 46.603, 186.604 46.271 C 186.272 45.939, 186.036 46.529, 186.079 47.583 M 14.355 59.500 C 14.352 64.450, 14.521 66.601, 14.731 64.280 C 14.940 61.959, 14.943 57.909, 14.736 55.280 C 14.530 52.651, 14.358 54.550, 14.355 59.500 M 187.355 59.500 C 187.352 64.450, 187.521 66.601, 187.731 64.280 C 187.940 61.959, 187.943 57.909, 187.736 55.280 C 187.530 52.651, 187.358 54.550, 187.355 59.500 M 15.079 71.583 C 15.127 72.748, 15.364 72.985, 15.683 72.188 C 15.972 71.466, 15.936 70.603, 15.604 70.271 C 15.272 69.939, 15.036 70.529, 15.079 71.583 M 185.625 73.125 C 184.791 77.293, 185.599 78.101, 186.500 74 C 186.880 72.271, 186.982 70.649, 186.727 70.394 C 186.472 70.139, 185.976 71.368, 185.625 73.125 M 18 80.941 C 18 81.459, 18.445 82.157, 18.989 82.493 C 19.555 82.843, 19.723 82.442, 19.382 81.552 C 18.717 79.820, 18 79.503, 18 80.941 M 137.250 80.689 C 138.213 80.941, 139.787 80.941, 140.750 80.689 C 141.713 80.438, 140.925 80.232, 139 80.232 C 137.075 80.232, 136.287 80.438, 137.250 80.689 M 182.144 82.750 C 181.053 85.300, 181.078 85.359, 182.484 83.559 C 183.318 82.491, 184 81.254, 184 80.809 C 184 79.289, 183.322 79.999, 182.144 82.750 M 129.813 81.683 C 130.534 81.972, 131.397 81.936, 131.729 81.604 C 132.061 81.272, 131.471 81.036, 130.417 81.079 C 129.252 81.127, 129.015 81.364, 129.813 81.683 M 146.813 81.683 C 147.534 81.972, 148.397 81.936, 148.729 81.604 C 149.061 81.272, 148.471 81.036, 147.417 81.079 C 146.252 81.127, 146.015 81.364, 146.813 81.683 M 124.729 87.421 C 117.931 90.216, 111.487 95.247, 107.694 100.720 C 104.618 105.159, 100.967 114.802, 101.066 118.225 C 101.102 119.476, 101.746 118.250, 102.496 115.500 C 104.926 106.595, 106.923 103.095, 113.267 96.625 C 117.580 92.227, 120.578 90.034, 123 89.509 C 124.925 89.091, 126.771 88.323, 127.103 87.803 C 127.435 87.283, 129.361 86.726, 131.383 86.566 C 135.866 86.210, 137.474 84.991, 133.417 85.024 C 131.813 85.037, 127.903 86.115, 124.729 87.421 M 140.797 85.766 C 141.510 86.266, 143.937 86.748, 146.190 86.836 C 148.444 86.925, 151.685 87.729, 153.394 88.623 C 155.102 89.518, 157.741 90.903, 159.258 91.702 C 161.848 93.066, 167 98.847, 167 100.388 C 167 100.773, 166.438 101.015, 165.750 100.925 C 162.407 100.491, 160.467 101.968, 147.202 115.045 C 139.366 122.770, 132.504 128.811, 131.953 128.471 C 131.401 128.130, 131.015 128.222, 131.094 128.676 C 131.585 131.506, 130.215 130.671, 123.620 124.119 C 116.856 117.400, 115.985 116.844, 113.185 117.459 C 109.393 118.292, 107.827 123.046, 110.406 125.896 C 111.283 126.865, 112 128.185, 112 128.829 C 112 129.473, 112.369 130, 112.821 130 C 113.273 130, 116.985 133.150, 121.071 137 C 130.548 145.929, 132.088 146.056, 139.266 138.500 C 142.139 135.475, 145.307 133, 146.304 133 C 147.302 133, 147.840 132.551, 147.501 132.002 C 146.768 130.816, 156.892 119.815, 158.055 120.534 C 158.495 120.806, 159.140 120.134, 159.487 119.041 C 159.834 117.947, 161.118 116.253, 162.340 115.276 C 163.561 114.299, 165.838 111.813, 167.399 109.750 C 168.960 107.688, 170.597 106, 171.036 106 C 171.475 106, 172.635 108.097, 173.614 110.660 C 174.593 113.222, 175.547 114.859, 175.734 114.297 C 175.922 113.735, 175.107 110.687, 173.923 107.524 C 169.849 96.635, 156.131 86.199, 144.675 85.274 C 141.393 85.009, 139.974 85.189, 140.797 85.766 M 21 86.378 C 21 86.585, 21.788 87.373, 22.750 88.128 C 24.336 89.371, 24.371 89.336, 23.128 87.750 C 21.821 86.084, 21 85.555, 21 86.378 M 178.872 87.750 C 177.629 89.336, 177.664 89.371, 179.250 88.128 C 180.213 87.373, 181 86.585, 181 86.378 C 181 85.555, 180.179 86.084, 178.872 87.750 M 113.872 88.750 C 112.629 90.336, 112.664 90.371, 114.250 89.128 C 115.916 87.821, 116.445 87, 115.622 87 C 115.415 87, 114.627 87.787, 113.872 88.750 M 163 88.332 C 163 88.607, 164.800 90.258, 167 92 C 169.200 93.742, 171 94.943, 171 94.668 C 171 94.393, 169.200 92.742, 167 91 C 164.800 89.258, 163 88.057, 163 88.332 M 25.500 92 C 26.495 93.100, 27.535 94, 27.810 94 C 28.085 94, 27.495 93.100, 26.500 92 C 25.505 90.900, 24.465 90, 24.190 90 C 23.915 90, 24.505 90.900, 25.500 92 M 174.924 92.750 L 172.500 95.500 175.250 93.076 C 177.820 90.810, 178.459 90, 177.674 90 C 177.495 90, 176.258 91.237, 174.924 92.750 M 108.405 93.250 L 106.500 95.500 108.750 93.595 C 109.987 92.547, 111 91.535, 111 91.345 C 111 90.545, 110.195 91.136, 108.405 93.250 M 29 96.378 C 29 96.585, 29.788 97.373, 30.750 98.128 C 32.336 99.371, 32.371 99.336, 31.128 97.750 C 29.821 96.084, 29 95.555, 29 96.378 M 168.263 102.839 C 168.369 104.247, 168.761 104.639, 169.412 103.988 C 170.063 103.337, 170.008 102.608, 169.251 101.851 C 168.385 100.985, 168.142 101.229, 168.263 102.839 M 43 111.500 C 48.203 116.725, 52.685 121, 52.960 121 C 53.235 121, 49.203 116.725, 44 111.500 C 38.797 106.275, 34.315 102, 34.040 102 C 33.765 102, 37.797 106.275, 43 111.500 M 146.125 118.236 L 131.139 133.472 123.600 126.163 C 117.968 120.702, 115.485 118.935, 113.781 119.176 C 112.132 119.410, 111.412 120.268, 111.181 122.273 C 110.913 124.606, 112.276 126.474, 119.754 134.023 C 125.024 139.344, 129.457 143, 130.637 143 C 132.228 143, 151.439 124.628, 166.798 108.417 C 168.677 106.434, 166.599 103, 163.521 103 C 161.737 103, 157.224 106.952, 146.125 118.236 M 97.079 114.583 C 97.127 115.748, 97.364 115.985, 97.683 115.188 C 97.972 114.466, 97.936 113.603, 97.604 113.271 C 97.272 112.939, 97.036 113.529, 97.079 114.583 M 176.175 121.201 C 175.814 130.909, 171.029 144.811, 168.241 144.250 C 167.559 144.113, 167 144.584, 167 145.297 C 167 148.576, 154.248 157.889, 151.816 156.386 C 151.162 155.982, 150.967 156.138, 151.352 156.760 C 151.724 157.362, 150.809 158.269, 149.256 158.836 C 147.109 159.620, 146.942 159.857, 148.500 159.911 C 154.625 160.123, 167.286 150.532, 172.303 141.880 C 175.307 136.699, 177.310 127.295, 176.750 121 L 176.349 116.500 176.175 121.201 M 96.232 123 C 96.232 124.925, 96.438 125.713, 96.689 124.750 C 96.941 123.787, 96.941 122.213, 96.689 121.250 C 96.438 120.287, 96.232 121.075, 96.232 123 M 55 122.313 C 55 122.485, 56.462 123.948, 58.250 125.563 L 61.500 128.500 58.563 125.250 C 55.825 122.221, 55 121.540, 55 122.313 M 101.232 127 C 101.232 128.925, 101.438 129.713, 101.689 128.750 C 101.941 127.787, 101.941 126.213, 101.689 125.250 C 101.438 124.287, 101.232 125.075, 101.232 127 M 62.072 128.750 C 62.112 129.162, 63.799 130.826, 65.822 132.446 L 69.500 135.393 66.054 131.696 C 62.493 127.877, 61.949 127.475, 62.072 128.750 M 102.518 133.500 C 104.352 142.682, 112.783 152.860, 122.277 157.351 C 125.356 158.808, 128.467 159.990, 129.188 159.977 C 129.910 159.965, 128.925 159.196, 127 158.270 C 125.075 157.343, 122.825 155.891, 122 155.042 C 121.175 154.194, 119.829 153.351, 119.009 153.170 C 118.190 152.988, 117.290 152.538, 117.009 152.170 C 116.729 151.801, 115.605 151.004, 114.512 150.398 C 111.885 148.943, 106.091 140.637, 103.771 135 C 102.490 131.887, 102.104 131.425, 102.518 133.500 M 71 136.313 C 71 136.485, 72.463 137.948, 74.250 139.563 L 77.500 142.500 74.563 139.250 C 71.825 136.221, 71 135.540, 71 136.313 M 80 144.500 C 81.292 145.875, 82.574 147, 82.849 147 C 83.124 147, 82.292 145.875, 81 144.500 C 79.708 143.125, 78.426 142, 78.151 142 C 77.876 142, 78.708 143.125, 80 144.500 M 106.535 150.457 C 108.082 152.485, 108.869 154.448, 108.439 155.207 C 107.864 156.223, 107.986 156.242, 109.007 155.296 C 110.063 154.319, 109.799 153.425, 107.603 150.546 C 106.115 148.596, 104.673 147, 104.398 147 C 104.123 147, 105.085 148.556, 106.535 150.457 M 86.500 150 C 87.495 151.100, 88.535 152, 88.810 152 C 89.085 152, 88.495 151.100, 87.500 150 C 86.505 148.900, 85.465 148, 85.190 148 C 84.915 148, 85.505 148.900, 86.500 150 M 92.500 155 C 93.495 156.100, 94.535 157, 94.810 157 C 95.085 157, 94.495 156.100, 93.500 155 C 92.505 153.900, 91.465 153, 91.190 153 C 90.915 153, 91.505 153.900, 92.500 155" stroke="none" fill="#a8da74" fill-rule="evenodd"/><path d="M 48.356 10.430 C 42.738 12.187, 33.174 18.129, 29.441 22.180 C 18.286 34.287, 14.402 45.459, 15.190 63.176 C 15.568 71.660, 16.139 74.624, 18.313 79.371 C 23.552 90.815, 38.163 107.036, 62.500 128.424 C 88.687 151.437, 99.088 160, 100.856 160 C 101.802 160, 104.110 158.719, 105.985 157.153 L 109.395 154.307 105.685 149.252 C 95.253 135.041, 93.637 119.305, 101.061 104.224 C 109.079 87.937, 127.697 78.136, 145.247 80.962 C 153.036 82.217, 162.226 86.670, 167.971 91.973 C 170.387 94.204, 172.620 95.649, 172.932 95.186 C 173.244 94.722, 175.131 92.353, 177.125 89.921 C 184.417 81.030, 186.970 73.069, 186.988 59.176 C 187.014 38.537, 176.791 21.373, 159.411 12.878 C 152.834 9.663, 151.968 9.500, 141.500 9.503 C 130.777 9.506, 130.302 9.603, 122.631 13.348 C 115.115 17.017, 106.600 24.097, 102.692 29.926 L 101.065 32.352 98.856 29.426 C 94.852 24.122, 86.660 16.862, 82.042 14.523 C 71.483 9.176, 57.713 7.503, 48.356 10.430 M 56 13 C 54.901 13.710, 55.638 13.973, 58.750 13.985 C 61.087 13.993, 63 13.550, 63 13 C 63 11.724, 57.974 11.724, 56 13 M 134.694 12.639 C 133.325 14.008, 135.229 14.906, 138.289 14.335 C 143.269 13.405, 143.917 12, 139.367 12 C 137.148 12, 135.046 12.288, 134.694 12.639 M 144.590 15.627 C 144.083 16.948, 143.064 17.134, 139.162 16.616 C 136.519 16.265, 132.927 16.265, 131.179 16.614 C 128.492 17.152, 128 17.695, 128 20.125 C 128 21.962, 127.480 23, 126.559 23 C 123.986 23, 123.716 20.875, 125.912 17.905 C 127.093 16.307, 127.889 15, 127.679 15 C 125.517 15, 120.804 17.650, 119.543 19.575 C 118.569 21.061, 116.995 22, 115.477 22 C 113.942 22, 113 22.570, 113 23.500 C 113 25.266, 113.425 25.312, 117.899 24.029 C 119.761 23.495, 121.628 23.270, 122.048 23.530 C 123.655 24.523, 121.640 28.015, 118.335 29.965 C 113.491 32.823, 112 32.596, 112 29 C 112 25.108, 110.127 25.117, 109.347 29.013 C 108.907 31.215, 108.039 32.183, 106.122 32.610 C 104.680 32.931, 102.067 33.556, 100.316 33.998 C 97.850 34.621, 96.778 34.412, 95.566 33.073 C 94.705 32.121, 94 30.864, 94 30.278 C 94 29.149, 91.727 28, 89.495 28 C 88.757 28, 86.813 29.128, 85.175 30.506 C 83.471 31.940, 81.535 32.759, 80.651 32.420 C 79.413 31.944, 79.744 31.189, 82.326 28.608 C 84.096 26.837, 86.322 25.090, 87.272 24.726 C 88.223 24.361, 89 23.647, 89 23.138 C 89 21.618, 85.989 20.936, 83.993 22.004 C 82.969 22.552, 81.652 23, 81.066 23 C 79.581 23, 79.727 19.289, 81.250 18.334 C 82.857 17.327, 75.935 15.756, 70.500 15.895 C 68.300 15.951, 62.112 15.958, 56.750 15.910 C 47.930 15.830, 46.997 15.997, 46.968 17.661 C 46.951 18.672, 46.276 20.374, 45.468 21.441 C 43.282 24.332, 43.575 28.656, 46 29.290 C 49.022 30.080, 48.396 32, 45.117 32 C 43.074 32, 42.081 31.417, 41.710 30 C 41.069 27.550, 36.504 27.243, 35.604 29.590 C 34.778 31.741, 35.707 33, 38.118 33 C 39.218 33, 39.840 33.450, 39.500 34 C 39.160 34.550, 37.382 35, 35.548 35 C 31.981 35, 31 33.748, 31 29.196 L 31 26.556 28.750 28.831 C 26.659 30.946, 26.624 31.177, 28.250 32.103 C 30.330 33.287, 30.519 37.368, 28.757 43.016 C 27.166 48.112, 26 48.106, 26 43 C 26 38.363, 23.663 37.451, 21.869 41.388 C 20.608 44.155, 22.408 57.191, 24.344 59.311 C 26.399 61.562, 28 64.923, 28 66.986 C 28 69.747, 26.612 69.513, 24.988 66.477 C 23.383 63.479, 21.635 63.729, 21.155 67.024 C 20.111 74.183, 26.351 89.847, 29.730 88.550 C 30.778 88.148, 32.485 89.157, 34.664 91.468 C 37.509 94.484, 37.712 95, 36.057 95 C 34.990 95, 33.840 95.450, 33.500 96 C 33.132 96.595, 34.323 97, 36.441 97 C 39.492 97, 40 97.330, 40 99.309 C 40 101.732, 41.081 103.366, 44.654 106.342 C 46.472 107.856, 47.128 107.937, 48.854 106.859 C 50.556 105.796, 51.495 105.866, 54.450 107.275 C 56.402 108.206, 58 109.397, 58 109.923 C 58 110.448, 55.896 111.193, 53.324 111.579 L 48.648 112.280 52.706 114.390 C 54.938 115.550, 58.009 117.994, 59.531 119.821 C 61.585 122.288, 62.855 123.002, 64.465 122.598 C 66.626 122.056, 71 124.326, 71 125.989 C 71 126.471, 70.040 127.170, 68.867 127.542 C 66.926 128.158, 67.264 128.701, 72.617 133.564 C 78.985 139.349, 80.581 139.939, 82.581 137.250 C 83.608 135.869, 84.264 135.733, 85.691 136.604 C 88.396 138.254, 89.801 142.873, 87.964 144.077 C 86.695 144.909, 86.713 145.163, 88.103 145.986 C 88.985 146.508, 91.460 148.526, 93.603 150.471 C 98.038 154.494, 101.599 155.809, 103.323 154.060 C 104.229 153.141, 103.848 152.388, 101.672 150.793 C 100.116 149.652, 98.415 147.591, 97.890 146.212 C 97.040 143.974, 96.806 143.880, 95.718 145.333 C 94.836 146.513, 94.086 146.687, 93 145.962 C 91.703 145.097, 91.764 144.761, 93.454 143.472 C 95.238 142.111, 95.298 141.611, 94.141 137.741 C 91.138 127.685, 90.710 124.067, 91.854 118.373 C 93.104 112.148, 92.799 111, 89.897 111 C 88.074 111, 87.936 110.414, 88.206 103.779 L 88.500 96.558 92.755 96.205 C 96.375 95.904, 97.129 96.174, 97.809 98.014 C 98.527 99.955, 98.744 100.013, 99.927 98.588 C 100.941 97.366, 100.975 96.675, 100.074 95.589 C 98.708 93.944, 100.066 92.704, 102.296 93.560 C 103.214 93.912, 104.600 92.966, 105.955 91.064 C 107.155 89.379, 108.711 88, 109.413 88 C 110.115 88, 111.527 87.075, 112.551 85.944 C 114.105 84.227, 114.207 83.561, 113.172 81.903 C 111.226 78.788, 112.604 78, 120 78 C 123.785 78, 127.121 77.613, 127.413 77.141 C 127.705 76.669, 130.994 75.970, 134.722 75.589 C 138.450 75.209, 142.505 74.240, 143.733 73.437 C 145.833 72.063, 146.100 72.181, 148.214 75.406 C 149.754 77.755, 151.413 78.971, 153.481 79.265 C 155.141 79.502, 157.287 80.037, 158.250 80.455 C 159.663 81.068, 160 80.712, 160 78.607 C 160 76.510, 160.477 76, 162.441 76 C 163.784 76, 165.160 76.450, 165.500 77 C 165.840 77.550, 166.961 78, 167.991 78 C 169.021 78, 170.825 79.350, 172 81 C 173.175 82.650, 174.795 84, 175.599 84 C 177.788 84, 178.595 80.913, 176.686 79.844 C 175.488 79.173, 175.220 78.094, 175.664 75.718 C 176.595 70.731, 177.724 70.405, 178.484 74.904 C 179.493 80.879, 180.625 79.921, 181.317 72.506 C 181.651 68.934, 182.405 65.112, 182.993 64.014 C 184.546 61.112, 182.742 44.477, 180.620 42.133 C 179.725 41.143, 178.285 38.258, 177.421 35.721 C 176.291 32.404, 174.887 30.541, 172.424 29.088 C 170.541 27.977, 169 26.389, 169 25.559 C 169 24.730, 167.730 23.394, 166.177 22.592 C 164.625 21.789, 162.751 20.405, 162.014 19.516 C 158.301 15.042, 145.878 12.269, 144.590 15.627 M 35.990 21.658 L 32.500 23.137 34.987 24.481 C 37.758 25.977, 38.528 25.750, 39.997 23.005 C 41.405 20.374, 40.075 19.927, 35.990 21.658 M 49 24 C 49 25.952, 49.471 26.069, 56.250 25.794 C 61.897 25.565, 63.500 25.168, 63.500 24 C 63.500 22.832, 61.897 22.435, 56.250 22.206 C 49.471 21.931, 49 22.048, 49 24 M 162.335 29.175 C 162.701 30.571, 162.295 31.813, 161.202 32.643 C 159.695 33.789, 159.859 33.940, 162.643 33.968 C 164.656 33.989, 166.012 33.410, 166.416 32.359 C 167.407 29.775, 166.061 27, 163.816 27 C 162.204 27, 161.888 27.464, 162.335 29.175 M 107.347 38.569 C 105.551 39.961, 105.551 40.039, 107.347 41.431 C 109.594 43.173, 112 42.433, 112 40 C 112 37.567, 109.594 36.827, 107.347 38.569 M 175.681 45.111 C 175.282 46.638, 175.667 47.362, 177.078 47.731 C 178.875 48.201, 178.975 48.855, 178.370 56.120 C 177.736 63.714, 177.790 64, 179.856 64 C 181.852 64, 182 63.496, 182 56.722 C 182 50.682, 181.660 49.153, 180 47.732 C 178.900 46.790, 178 45.340, 178 44.510 C 178 42.252, 176.315 42.689, 175.681 45.111 M 32.714 45.619 C 31.113 47.220, 32.217 48, 36.083 48 C 38.902 48, 40.040 47.613, 39.756 46.750 C 39.302 45.367, 33.843 44.491, 32.714 45.619 M 96.524 45.810 C 96.236 46.098, 96 46.708, 96 47.167 C 96 48.283, 100.735 48.237, 101.429 47.114 C 102.017 46.164, 97.398 44.936, 96.524 45.810 M 160 47 C 160 48.270, 163.035 48.270, 165 47 C 166.138 46.264, 165.716 46.027, 163.250 46.015 C 161.463 46.007, 160 46.450, 160 47 M 29.393 50.582 C 29.727 51.452, 30 52.802, 30 53.582 C 30 54.362, 30.450 55, 31 55 C 31.550 55, 32 53.650, 32 52 C 32 49.911, 31.512 49, 30.393 49 C 29.338 49, 28.995 49.544, 29.393 50.582 M 17 62 C 17 62.550, 17.702 63, 18.559 63 C 19.416 63, 19.840 62.550, 19.500 62 C 19.160 61.450, 18.459 61, 17.941 61 C 17.423 61, 17 61.450, 17 62 M 113 65.213 C 113 65.646, 116.225 66, 120.167 66 C 124.108 66, 127.003 65.670, 126.600 65.266 C 125.605 64.272, 113 64.222, 113 65.213 M 145 66.039 C 145 67.734, 145.236 67.861, 146.395 66.789 C 147.834 65.459, 147.597 64, 145.941 64 C 145.423 64, 145 64.918, 145 66.039 M 155 64.943 C 155 68.136, 162.550 69.529, 165.450 66.871 C 165.972 66.392, 167.322 65.993, 168.450 65.985 C 170.140 65.972, 170.237 65.799, 169 65 C 167.067 63.751, 155 63.702, 155 64.943 M 129.031 68.364 C 129.297 68.630, 132.887 69.120, 137.008 69.453 C 141.392 69.807, 143.958 69.696, 143.193 69.185 C 141.850 68.287, 128.161 67.494, 129.031 68.364 M 162.427 80.119 C 161.443 81.710, 170.838 90, 172.780 89.254 C 174.016 88.780, 173.796 88.249, 171.658 86.545 C 169.955 85.186, 169 83.451, 169 81.712 C 169 79.377, 168.591 79, 166.059 79 C 164.441 79, 162.807 79.503, 162.427 80.119 M 43 81.147 C 43 82.178, 45.982 85, 47.071 85 C 47.582 85, 48 83.880, 48 82.511 C 48 80.468, 47.552 80.059, 45.500 80.229 C 44.125 80.343, 43 80.756, 43 81.147 M 104 81.500 C 103.315 82.325, 101.235 83, 99.378 83 C 96.957 83, 96 83.451, 96 84.590 C 96 86.304, 99.780 89.912, 101.634 89.967 C 102.961 90.006, 110 82.459, 110 80.997 C 110 79.441, 105.388 79.827, 104 81.500 M 45.166 100.060 C 45.350 101.316, 46.100 102.541, 46.834 102.783 C 47.741 103.082, 48.061 102.491, 47.834 100.940 C 47.650 99.684, 46.900 98.459, 46.166 98.217 C 45.259 97.918, 44.939 98.509, 45.166 100.060 M 96.079 101.583 C 96.127 102.748, 96.364 102.985, 96.683 102.188 C 96.972 101.466, 96.936 100.603, 96.604 100.271 C 96.272 99.939, 96.036 100.529, 96.079 101.583 M 61.754 113.250 C 61.108 115.008, 61.989 117.125, 63.085 116.447 C 64.263 115.719, 64.281 112, 63.107 112 C 62.616 112, 62.007 112.563, 61.754 113.250 M 68 112.965 C 68 114.273, 71.204 115.836, 72.750 115.282 C 75.297 114.368, 74.034 112, 71 112 C 69.350 112, 68 112.434, 68 112.965 M 84.105 118.250 L 84.210 124.500 85.528 120.500 C 87.338 115.008, 87.328 112, 85.500 112 C 84.315 112, 84.022 113.315, 84.105 118.250 M 73 128.812 C 73 129.926, 79.031 134.302, 79.677 133.656 C 80.616 132.717, 76.540 128.064, 74.750 128.031 C 73.787 128.014, 73 128.365, 73 128.812" stroke="none" fill="#c9101e" fill-rule="evenodd"/></svg>