<svg xmlns="http://www.w3.org/2000/svg" width="745" height="600" viewBox="0 0 745 600" version="1.1"><path d="M 591 52.856 C 580.215 55.388, 576.319 56.776, 569 60.696 C 552.295 69.644, 539.310 83.068, 531.615 99.345 C 524.723 113.925, 523.551 119.262, 523.564 136 C 523.575 148.843, 523.883 151.512, 526.259 159.358 C 533.940 184.712, 551.875 204.977, 575.015 214.447 C 615.601 231.056, 661.501 215.099, 682.735 177 C 684.860 173.186, 690.725 157.418, 690.917 155 C 690.983 154.175, 691.446 149.450, 691.947 144.500 C 692.857 135.515, 692.524 131, 690.951 131 C 689.696 131, 688.847 132.787, 689.817 133.387 C 690.838 134.018, 690.101 140, 689.003 140 C 687.687 140, 687.108 145.448, 688.341 146.232 C 689.120 146.728, 688.984 146.974, 687.926 146.985 C 686.981 146.994, 685.232 149.423, 683.554 153.059 C 678.072 164.933, 665.772 175.001, 652.535 178.449 C 642.562 181.047, 626.318 179.916, 619.247 176.132 C 618.084 175.510, 615.864 175.032, 614.316 175.070 C 611.841 175.132, 611.742 175.245, 613.500 176 C 616.437 177.262, 613.987 177.163, 602 175.535 C 592.319 174.221, 582 171.520, 582 170.300 C 582 170.019, 582.695 167.105, 583.545 163.825 C 584.395 160.545, 584.816 156.880, 584.480 155.681 C 583.997 153.958, 584.090 153.815, 584.919 155 C 585.837 156.311, 585.971 156.295, 585.985 154.872 C 585.993 153.977, 585.264 152.634, 584.364 151.887 C 580.049 148.306, 571.573 131.595, 569.469 122.521 C 564.714 102.019, 570.201 83.153, 584.749 69.979 C 590.099 65.135, 599.455 59, 601.493 59 C 602.188 59, 604.388 58.318, 606.383 57.484 C 608.378 56.651, 611.245 56.058, 612.755 56.167 C 614.265 56.276, 616.424 55.865, 617.554 55.253 C 619.844 54.011, 622.643 55.151, 621.569 56.888 C 621.191 57.500, 621.359 58, 621.941 58 C 622.523 58, 623 57.550, 623 57 C 623 56.450, 624.773 56, 626.941 56 C 629.109 56, 631.160 56.450, 631.500 57 C 631.840 57.550, 633.351 58, 634.859 58 C 636.367 58, 638.092 58.492, 638.694 59.094 C 639.295 59.695, 640.623 60.015, 641.644 59.805 C 643.958 59.327, 631.641 54.585, 624.119 53.058 C 614.113 51.026, 599.185 50.935, 591 52.856 M 128.500 59.651 C 99.750 62.568, 73.303 80.879, 61.027 106.367 C 54.810 119.275, 52.590 129.240, 52.646 144 C 52.717 162.842, 56.521 175.521, 66.749 191 C 82.206 214.393, 107.969 228.021, 136.667 227.985 C 154.731 227.963, 168.615 224, 182.584 214.882 C 204.440 200.614, 217.467 179.757, 220.084 154.841 C 221.026 145.871, 220.425 130.380, 219.103 129.563 C 218.753 129.348, 218.475 132.395, 218.484 136.335 C 218.505 145.901, 217.653 149.680, 213.501 158.430 C 211.576 162.488, 210 166.328, 210 166.963 C 210 167.598, 209.651 167.902, 209.224 167.639 C 208.797 167.375, 206.660 169.302, 204.474 171.921 C 196.474 181.508, 185.820 186.659, 172 187.621 C 162.180 188.305, 154.176 186.764, 142.137 181.874 C 137.937 180.168, 133.019 178.810, 131.209 178.857 C 129.316 178.906, 128.173 178.530, 128.518 177.971 C 128.868 177.405, 127.461 177, 125.148 177 C 120.093 177, 110.347 173.980, 104.673 170.654 C 92.043 163.253, 84.559 145.212, 86.994 128.040 C 88.088 120.327, 89.640 115.970, 93.775 109 C 95.243 106.525, 96.362 104.216, 96.262 103.869 C 96.162 103.522, 97.074 102.397, 98.290 101.369 L 100.500 99.500 98.507 102 L 96.514 104.500 99.257 102.076 C 101.995 99.655, 102.892 98.331, 101 99.500 C 99.145 100.647, 99.982 97.356, 103.185 90.910 C 107.025 83.184, 116.553 73.274, 123.550 69.728 C 134.536 64.161, 150 60.924, 150 64.191 C 150 64.846, 150.643 64.509, 151.428 63.441 C 152.760 61.631, 152.608 61.452, 149.178 60.789 C 143.902 59.768, 133.169 59.178, 128.500 59.651 M 155.786 63.563 C 157.013 64.422, 159.026 65.188, 160.259 65.265 C 161.491 65.341, 162.761 65.778, 163.080 66.236 C 163.399 66.693, 164.447 66.766, 165.408 66.397 C 166.699 65.901, 165.772 65.238, 161.867 63.863 C 155.242 61.530, 152.705 61.405, 155.786 63.563 M 612.750 86.723 C 614.538 86.945, 617.462 86.945, 619.250 86.723 C 621.038 86.502, 619.575 86.320, 616 86.320 C 612.425 86.320, 610.962 86.502, 612.750 86.723 M 363.343 93.696 C 362.707 94.138, 368.782 94.500, 376.843 94.500 C 384.904 94.500, 394.425 94.801, 398 95.169 C 403.025 95.686, 403.819 95.609, 401.500 94.826 C 397.773 93.568, 364.926 92.595, 363.343 93.696 M 354.500 95 L 351.500 95.763 354.500 95.811 C 356.150 95.838, 358.400 95.473, 359.500 95 L 361.500 94.141 359.500 94.189 C 358.400 94.215, 356.150 94.580, 354.500 95 M 413.497 98.414 C 418.445 99.748, 422.652 100.682, 422.845 100.488 C 423.398 99.935, 412.934 97.004, 408.500 96.469 C 406.300 96.204, 408.549 97.079, 413.497 98.414 M 335.655 99.619 C 331.340 101.007, 328.019 102.353, 328.275 102.608 C 328.714 103.047, 344.027 98.255, 344.917 97.400 C 345.784 96.567, 343.252 97.174, 335.655 99.619 M 426 102.246 C 447.694 111.887, 458.984 119.193, 473.500 132.984 C 481.929 140.992, 482.479 141.386, 477 135.492 C 468.908 126.788, 461.634 120.650, 452.140 114.516 C 444.450 109.547, 426.952 100.951, 424.766 101.068 C 424.070 101.105, 424.625 101.635, 426 102.246 M 317.514 107.089 C 313.122 109.312, 305.922 113.559, 301.514 116.526 C 293.297 122.058, 276.753 136.724, 274.968 140.059 C 274.419 141.085, 278.139 137.846, 283.235 132.861 C 293.401 122.917, 307.241 113.154, 319.250 107.456 C 326.436 104.046, 328.143 102.965, 326.250 103.023 C 325.837 103.036, 321.906 104.866, 317.514 107.089 M 134.264 105.718 C 135.784 105.947, 138.034 105.941, 139.264 105.704 C 140.494 105.467, 139.250 105.279, 136.500 105.286 C 133.750 105.294, 132.744 105.488, 134.264 105.718 M 689.742 124.879 C 689.445 126.014, 689.829 127.443, 690.603 128.086 C 691.715 129.008, 691.997 128.862, 691.985 127.372 C 691.976 126.343, 691.589 124.899, 691.123 124.165 C 690.478 123.148, 690.150 123.317, 689.742 124.879 M 130.432 134.747 L 130.500 142.500 137.500 142.580 L 144.500 142.660 137.791 142.285 L 131.083 141.911 130.724 134.452 L 130.365 126.993 130.432 134.747 M 107.286 133.500 C 107.294 136.250, 107.488 137.256, 107.718 135.736 C 107.947 134.216, 107.941 131.966, 107.704 130.736 C 107.467 129.506, 107.279 130.750, 107.286 133.500 M 364.342 145.411 C 344.428 149.216, 328.967 157.715, 315.405 172.311 C 307.054 181.298, 302.736 188.300, 298.362 199.944 C 293.982 211.605, 292.616 220.974, 293.322 234.500 C 293.985 247.199, 296.454 256.952, 301.630 267.321 C 313.767 291.635, 335.370 308.189, 361.973 313.561 C 372.870 315.761, 391.261 315.076, 401.380 312.094 C 452.726 296.963, 478.191 240.942, 455.470 193.100 C 444.494 169.988, 424.337 153.374, 399.500 146.969 C 389.193 144.310, 373.693 143.623, 364.342 145.411 M 378.987 150.010 C 377.633 151.031, 374.945 152.159, 373.013 152.516 C 363.794 154.219, 351.003 164.861, 345.339 175.540 C 340.309 185.023, 338.633 192.134, 338.633 204 C 338.633 215.956, 340.278 222.822, 345.581 232.996 L 348.967 239.492 349.233 211.996 L 349.500 184.500 352 184.336 C 354.203 184.192, 354.233 184.230, 352.250 184.656 L 350 185.139 350 228.106 L 350 271.072 359.720 270.786 L 369.441 270.500 370.271 266.291 L 371.101 262.082 377.110 265.135 C 387.083 270.203, 397.497 273.032, 408 273.525 C 414.732 273.842, 416.772 273.691, 415 273.010 C 412.993 272.238, 413.388 272.144, 417 272.536 C 421.910 273.069, 429.025 270.828, 436.695 266.333 C 441.664 263.421, 450.816 253.581, 451.652 250.252 C 452.152 248.260, 453.091 247.601, 455.102 247.832 C 455.433 247.870, 455.493 246.798, 455.235 245.451 C 454.896 243.673, 455.208 243, 456.372 243 C 457.289 243, 457.914 242.251, 457.830 241.250 C 457.494 237.241, 458.025 234.491, 458.876 235.834 C 459.557 236.908, 459.840 236.859, 460.329 235.584 C 460.664 234.713, 460.452 234, 459.859 234 C 459.165 234, 459.012 232.666, 459.431 230.250 C 460.658 223.172, 460.275 210.176, 458.784 208.294 C 458.258 207.630, 458.107 206.636, 458.448 206.084 C 458.789 205.533, 458.643 204.276, 458.124 203.291 C 457.605 202.306, 456.238 199.073, 455.086 196.106 C 449.944 182.864, 435.611 166.306, 424.223 160.452 C 421.075 158.834, 418.275 157.223, 418 156.871 C 417.030 155.631, 407.915 151.751, 407.335 152.332 C 407.011 152.655, 405.522 152.287, 404.026 151.514 C 402.530 150.740, 400.291 150.373, 399.051 150.697 C 397.810 151.021, 396.504 150.840, 396.148 150.294 C 395.791 149.748, 392.338 149.043, 388.474 148.728 C 382.595 148.248, 381.045 148.457, 378.987 150.010 M 132.750 161.706 C 133.988 161.944, 136.012 161.944, 137.250 161.706 C 138.488 161.467, 137.475 161.272, 135 161.272 C 132.525 161.272, 131.512 161.467, 132.750 161.706 M 361.750 183.706 C 362.988 183.944, 365.012 183.944, 366.250 183.706 C 367.488 183.467, 366.475 183.272, 364 183.272 C 361.525 183.272, 360.512 183.467, 361.750 183.706 M 373.250 198.716 C 374.762 198.945, 377.238 198.945, 378.750 198.716 C 380.262 198.487, 379.025 198.300, 376 198.300 C 372.975 198.300, 371.738 198.487, 373.250 198.716 M 369.453 211.736 C 369.492 222.323, 369.753 224.494, 371 224.584 C 371.825 224.644, 371.951 224.506, 371.279 224.279 C 370.431 223.991, 369.959 220.077, 369.733 211.431 L 369.407 198.997 369.453 211.736 M 514.216 231.168 C 514.097 237.586, 513.709 243.661, 513.353 244.668 C 512.869 246.038, 513.003 246.227, 513.885 245.418 C 514.704 244.666, 514.968 240.541, 514.748 231.918 L 514.432 219.500 514.216 231.168 M 369.328 246.500 C 369.333 250.350, 369.513 251.802, 369.730 249.728 C 369.946 247.653, 369.943 244.503, 369.722 242.728 C 369.501 240.952, 369.324 242.650, 369.328 246.500 M 243.070 249.685 C 242.962 253.047, 245.609 264.634, 248.493 273.423 C 251.664 283.087, 258.222 296.467, 264.010 305.084 C 269.845 313.772, 281.239 327.182, 285.630 330.531 C 288.125 332.435, 290.422 335.852, 293.176 341.756 C 295.353 346.424, 299.854 355.927, 303.177 362.872 C 306.501 369.817, 311.599 380.675, 314.506 387 C 317.413 393.325, 322.260 403.675, 325.277 410 C 328.294 416.325, 332.115 424.425, 333.768 428 C 335.421 431.575, 338.201 437.586, 339.945 441.358 C 341.690 445.130, 343.325 448.008, 343.578 447.755 C 343.831 447.502, 341.401 441.716, 338.177 434.897 C 334.954 428.079, 331.155 420.025, 329.737 417 C 328.319 413.975, 319.010 394.175, 309.050 373 L 290.943 334.500 282.596 326 C 270.830 314.017, 263.857 304.353, 256.980 290.500 C 250.655 277.760, 247.859 269.745, 244.944 256 C 243.952 251.325, 243.109 248.483, 243.070 249.685 M 511.545 256.545 C 511.163 259.096, 511.075 261.408, 511.350 261.683 C 511.625 261.958, 512.163 260.096, 512.545 257.545 C 512.928 254.995, 513.016 252.683, 512.741 252.408 C 512.466 252.133, 511.928 253.995, 511.545 256.545 M 425.478 266.069 C 425.117 267.207, 423.399 269.005, 421.661 270.065 C 419.922 271.125, 419.097 271.994, 419.827 271.996 C 421.412 272.001, 427 266.611, 427 265.077 C 427 263.317, 426.183 263.849, 425.478 266.069 M 505.967 276.683 C 504.226 282.075, 495.525 299.367, 491.781 304.872 C 486.553 312.563, 477.597 323.177, 471.430 328.993 C 466.218 333.909, 464.798 336.222, 457.929 350.993 C 453.707 360.072, 447.496 373.283, 444.127 380.351 C 440.757 387.418, 438 393.325, 438 393.477 C 438 393.629, 434.883 400.288, 431.074 408.274 C 427.265 416.260, 421.607 428.286, 418.500 435 C 415.393 441.714, 409.735 453.740, 405.926 461.726 C 402.117 469.712, 399 476.360, 399 476.499 C 399 476.637, 396.577 481.869, 393.614 488.125 C 390.652 494.381, 386.165 503.887, 383.643 509.250 C 381.120 514.612, 378.624 519, 378.096 519 C 377.567 519, 376.829 518.037, 376.456 516.861 C 376.083 515.685, 371.382 505.447, 366.011 494.111 C 351.819 464.161, 347.948 455.908, 346.328 452.142 C 345.533 450.295, 344.660 449.007, 344.388 449.279 C 344.116 449.551, 346.842 455.951, 350.446 463.501 C 354.051 471.051, 357 477.357, 357 477.514 C 357 477.671, 360.303 484.707, 364.340 493.150 C 368.377 501.592, 372.938 511.313, 374.476 514.750 C 376.015 518.188, 377.777 521, 378.392 521 C 379.008 521, 380.141 519.538, 380.911 517.750 C 381.680 515.962, 384.759 509.325, 387.753 503 C 390.747 496.675, 395.801 485.875, 398.983 479 C 402.166 472.125, 407.746 460.271, 411.385 452.657 C 415.023 445.044, 418 438.687, 418 438.531 C 418 438.374, 421.200 431.553, 425.110 423.373 C 429.021 415.193, 433.565 405.575, 435.209 402 C 436.853 398.425, 444.515 382, 452.236 365.500 L 466.274 335.500 474.582 327 C 486.298 315.012, 492.301 306.992, 499.336 293.927 C 504.134 285.017, 508.533 274.199, 507.697 273.364 C 507.423 273.090, 506.645 274.584, 505.967 276.683 M 590.323 465.286 C 590.056 465.718, 588.187 466.044, 586.169 466.011 C 577.296 465.865, 556.323 470.867, 547.187 475.310 C 539.659 478.970, 535 483.835, 535 488.035 C 535 494.371, 546.476 502.108, 561 505.563 C 565.125 506.544, 568.725 507.606, 569 507.923 C 569.275 508.240, 570.625 508.580, 572 508.679 C 584.561 509.576, 590.553 510.350, 590.835 511.110 C 591.020 511.606, 591.470 511.831, 591.835 511.609 C 592.201 511.388, 601.655 511.047, 612.845 510.853 C 624.034 510.659, 633.398 510.163, 633.654 509.750 C 633.909 509.337, 635.649 509, 637.520 509 C 644.714 509, 665.717 503.007, 672 499.161 C 676.017 496.702, 679.084 493.704, 680.639 490.715 C 681.957 488.181, 681.896 487.588, 679.972 484.164 C 675.445 476.109, 655.838 468.561, 634 466.467 C 630.425 466.124, 626.843 465.631, 626.040 465.372 C 623.479 464.547, 590.829 464.468, 590.323 465.286 M 117.329 473.276 C 117.065 473.703, 115.421 474.028, 113.675 473.998 C 111.929 473.968, 107.826 474.379, 104.557 474.912 C 101.289 475.444, 98.251 475.655, 97.807 475.381 C 97.363 475.106, 97 475.287, 97 475.782 C 97 476.277, 94.412 477.254, 91.250 477.953 C 83.824 479.595, 72.216 484.485, 68.923 487.359 C 67.505 488.595, 65.541 490.968, 64.558 492.632 C 62.896 495.447, 62.884 495.874, 64.385 498.777 C 67.733 505.252, 77.261 510.243, 94.233 514.411 C 100.077 515.847, 108.377 517.267, 112.679 517.568 C 116.980 517.868, 121.175 518.354, 122 518.646 C 124.390 519.494, 146.526 519.055, 158 517.933 C 183.273 515.460, 204.764 507.911, 208.433 500.219 C 210.662 495.544, 210.399 493.524, 207.068 489.730 C 201.221 483.071, 185.301 477.391, 164.015 474.370 C 152.058 472.673, 118.192 471.880, 117.329 473.276 M 378.721 535.579 C 378.599 535.682, 374.918 536.054, 370.541 536.406 C 323.939 540.156, 294.355 556.542, 303.301 573.650 C 307.807 582.268, 323.555 590.485, 344.203 594.991 C 349.265 596.096, 354.863 597, 356.644 597 C 358.425 597, 360.101 597.355, 360.369 597.788 C 361.335 599.351, 400.947 599.203, 413.099 597.591 C 419.479 596.745, 425.329 595.829, 426.099 595.555 C 426.870 595.282, 428.765 594.845, 430.311 594.584 C 431.858 594.323, 436.808 592.922, 441.311 591.469 C 462.724 584.563, 473.275 574.537, 470.140 564.074 C 466.658 552.451, 446.606 542.800, 416 538.015 C 406.035 536.457, 379.714 534.737, 378.721 535.579" stroke="none" fill="#b3b3b3" fill-rule="evenodd"/><path d="M 602.870 88.565 C 600.324 89.349, 596.068 91.455, 593.412 93.245 C 580.679 101.829, 579.996 120.488, 592.060 130.182 C 594.018 131.755, 600.300 135.074, 606.021 137.557 C 617.034 142.337, 619.710 144.143, 621.076 147.713 C 622.356 151.061, 620.251 155.814, 616.642 157.721 C 612.165 160.087, 601.164 159.771, 593.108 157.046 C 589.593 155.856, 586.393 155.247, 585.997 155.692 C 585.601 156.136, 584.554 159.425, 583.669 163 C 581.837 170.408, 582.206 171.108, 588.954 173.027 C 605.683 177.783, 623.313 175.545, 632.893 167.449 C 637.500 163.556, 640.978 155.803, 640.990 149.399 C 641.015 136.241, 634.926 129.505, 616.294 122.080 C 606.468 118.165, 603 115.287, 603 111.048 C 603 104.183, 611.255 100.896, 622.488 103.287 C 626.345 104.108, 630.419 105.082, 631.541 105.452 C 633.373 106.055, 633.774 105.383, 635.452 98.916 C 637.238 92.028, 637.243 91.651, 635.551 90.413 C 630.877 86.996, 611.522 85.901, 602.870 88.565 M 126.500 90.002 C 114.480 91.665, 102.857 97.635, 96.602 105.359 C 89.779 113.786, 87.024 122.167, 87.024 134.500 C 87.024 156.266, 97.335 170.277, 117.256 175.580 C 124.326 177.462, 142.269 177.375, 151.772 175.412 C 164.121 172.861, 163.079 175.297, 162.769 149.705 L 162.500 127.500 146.750 127.225 L 131 126.949 131 134.475 L 131 142 137.500 142 L 144 142 144 151.439 L 144 160.877 139.500 161.552 C 126.556 163.493, 114.764 157.601, 109.890 146.757 C 107.999 142.551, 107.529 139.801, 107.537 133 C 107.546 125.481, 107.891 123.866, 110.524 119 C 115.965 108.945, 127.055 104.057, 141.254 105.456 C 145.034 105.829, 149.838 106.737, 151.928 107.475 L 155.729 108.816 157.827 101.203 C 158.980 97.016, 159.810 93.476, 159.670 93.337 C 159.531 93.197, 156.960 92.445, 153.958 91.665 C 146.626 89.759, 133.850 88.986, 126.500 90.002 M 184.500 154.704 C 181.251 155.501, 177.071 160.104, 176.413 163.610 C 174.531 173.642, 184.138 181.083, 193.033 176.483 C 196.376 174.754, 199 170.343, 199 166.451 C 199 163.050, 196.509 157.799, 194.217 156.368 C 191.894 154.917, 187.028 154.084, 184.500 154.704 M 366.500 183.730 C 363.200 183.864, 358.133 184.238, 355.239 184.560 L 349.979 185.147 350.239 227.823 L 350.500 270.500 359.724 270.787 L 368.949 271.074 369.224 255.332 L 369.500 239.589 374.518 239.856 C 380.763 240.189, 392.498 237.807, 397.707 235.149 C 407.103 230.356, 412.767 219.393, 411.734 207.999 C 410.484 194.214, 400.795 185.581, 385.276 184.425 C 381.549 184.147, 377.150 183.822, 375.500 183.703 C 373.850 183.583, 369.800 183.595, 366.500 183.730 M 370.218 198.844 C 369.261 199.451, 369.007 202.814, 369.218 212.079 L 369.500 224.500 375.500 224.771 C 382.738 225.099, 387.428 223.044, 390.730 218.102 C 395.163 211.466, 392.868 203.205, 385.684 199.943 C 381.413 198.005, 372.535 197.374, 370.218 198.844 M 410.321 249.613 C 404.303 252.581, 402.404 261.389, 406.450 267.564 C 410.241 273.350, 421.319 272.805, 425.074 266.647 C 428.792 260.548, 426.540 251.959, 420.568 249.464 C 416.161 247.622, 414.303 247.650, 410.321 249.613" stroke="none" fill="#000000" fill-rule="evenodd"/><path d="M 124 9.033 C 75.438 13.081, 31.352 45.480, 11.783 91.500 C 3.687 110.539, 0.200 133.689, 2.098 155.808 C 4.804 187.351, 17.266 214.494, 39.952 238.255 C 48.816 247.538, 50.431 249.830, 55.324 260.064 C 65.078 280.465, 73 297.257, 73 297.532 C 73 297.679, 76.600 305.315, 81 314.500 C 85.400 323.685, 89 331.321, 89 331.470 C 89 331.618, 91.864 337.761, 95.365 345.120 C 98.865 352.479, 102.871 360.975, 104.266 364 C 107.153 370.260, 113.098 382.977, 118.290 394 C 120.233 398.125, 124.973 408.237, 128.825 416.471 C 132.676 424.705, 136.244 431.581, 136.754 431.751 C 137.264 431.921, 139.525 428.093, 141.778 423.243 C 146.559 412.953, 152.906 399.465, 161.130 382.118 C 164.359 375.308, 167 369.616, 167 369.468 C 167 369.321, 170.600 361.685, 175 352.500 C 179.400 343.315, 183 335.665, 183 335.500 C 183 335.336, 185.753 329.418, 189.118 322.351 C 192.483 315.283, 198.061 303.425, 201.514 296 C 204.968 288.575, 210.142 277.550, 213.014 271.500 C 215.886 265.450, 219.469 257.800, 220.976 254.500 C 222.935 250.211, 226.143 246.076, 232.224 240 L 240.731 231.500 241.427 223.500 C 243.937 194.641, 250.717 174.617, 265.413 152.658 L 272 142.816 272 135.518 C 272 131.504, 271.093 123.783, 269.985 118.360 C 264.098 89.562, 250.919 65.570, 230.107 45.764 C 201.495 18.536, 164.331 5.671, 124 9.033 M 120.500 59.015 C 89.197 65.241, 62.931 89.478, 53.868 120.500 C 50.706 131.326, 50.468 154.716, 53.410 165.500 C 59.281 187.015, 73.047 205.408, 92.226 217.362 C 124.518 237.489, 167.732 232.980, 195.874 206.548 C 226.092 178.166, 231.801 132.295, 209.462 97.373 C 197.947 79.372, 177.728 65.021, 156.818 60.008 C 148.062 57.909, 128.719 57.380, 120.500 59.015" stroke="none" fill="#00ff01" fill-rule="evenodd"/><path d="M 602.870 88.565 C 600.324 89.349, 596.068 91.455, 593.412 93.245 C 580.679 101.829, 579.996 120.488, 592.060 130.182 C 594.018 131.755, 600.300 135.074, 606.021 137.557 C 617.034 142.337, 619.710 144.143, 621.076 147.713 C 622.356 151.061, 620.251 155.814, 616.642 157.721 C 612.165 160.087, 601.164 159.771, 593.108 157.046 C 589.593 155.856, 586.393 155.247, 585.997 155.692 C 585.601 156.136, 584.554 159.425, 583.669 163 C 581.837 170.408, 582.206 171.108, 588.954 173.027 C 605.683 177.783, 623.313 175.545, 632.893 167.449 C 637.500 163.556, 640.978 155.803, 640.990 149.399 C 641.015 136.241, 634.926 129.505, 616.294 122.080 C 606.468 118.165, 603 115.287, 603 111.048 C 603 104.183, 611.255 100.896, 622.488 103.287 C 626.345 104.108, 630.419 105.082, 631.541 105.452 C 633.373 106.055, 633.774 105.383, 635.452 98.916 C 637.238 92.028, 637.243 91.651, 635.551 90.413 C 630.877 86.996, 611.522 85.901, 602.870 88.565 M 126.500 90.002 C 114.480 91.665, 102.857 97.635, 96.602 105.359 C 89.779 113.786, 87.024 122.167, 87.024 134.500 C 87.024 156.266, 97.335 170.277, 117.256 175.580 C 124.326 177.462, 142.269 177.375, 151.772 175.412 C 164.121 172.861, 163.079 175.297, 162.769 149.705 L 162.500 127.500 146.750 127.225 L 131 126.949 131 134.475 L 131 142 137.500 142 L 144 142 144 151.439 L 144 160.877 139.500 161.552 C 126.556 163.493, 114.764 157.601, 109.890 146.757 C 107.999 142.551, 107.529 139.801, 107.537 133 C 107.546 125.481, 107.891 123.866, 110.524 119 C 115.965 108.945, 127.055 104.057, 141.254 105.456 C 145.034 105.829, 149.838 106.737, 151.928 107.475 L 155.729 108.816 157.827 101.203 C 158.980 97.016, 159.810 93.476, 159.670 93.337 C 159.531 93.197, 156.960 92.445, 153.958 91.665 C 146.626 89.759, 133.850 88.986, 126.500 90.002 M 184.500 154.704 C 181.251 155.501, 177.071 160.104, 176.413 163.610 C 174.531 173.642, 184.138 181.083, 193.033 176.483 C 196.376 174.754, 199 170.343, 199 166.451 C 199 163.050, 196.509 157.799, 194.217 156.368 C 191.894 154.917, 187.028 154.084, 184.500 154.704 M 366.500 183.730 C 363.200 183.864, 358.133 184.238, 355.239 184.560 L 349.979 185.147 350.239 227.823 L 350.500 270.500 359.724 270.787 L 368.949 271.074 369.224 255.332 L 369.500 239.589 374.518 239.856 C 380.763 240.189, 392.498 237.807, 397.707 235.149 C 407.103 230.356, 412.767 219.393, 411.734 207.999 C 410.484 194.214, 400.795 185.581, 385.276 184.425 C 381.549 184.147, 377.150 183.822, 375.500 183.703 C 373.850 183.583, 369.800 183.595, 366.500 183.730 M 370.218 198.844 C 369.261 199.451, 369.007 202.814, 369.218 212.079 L 369.500 224.500 375.500 224.771 C 382.738 225.099, 387.428 223.044, 390.730 218.102 C 395.163 211.466, 392.868 203.205, 385.684 199.943 C 381.413 198.005, 372.535 197.374, 370.218 198.844 M 410.321 249.613 C 404.303 252.581, 402.404 261.389, 406.450 267.564 C 410.241 273.350, 421.319 272.805, 425.074 266.647 C 428.792 260.548, 426.540 251.959, 420.568 249.464 C 416.161 247.622, 414.303 247.650, 410.321 249.613" stroke="none" fill="#000000" fill-rule="evenodd"/><path d="M 590 1.445 C 550.139 7.247, 517.037 28.203, 494.222 62.080 C 482.836 78.987, 473.069 107.591, 472.834 124.715 L 472.748 130.930 479.229 137.930 C 500.251 160.636, 512.798 190.725, 514.609 222.778 C 515.255 234.197, 515.458 235.089, 518.014 237.711 C 519.509 239.245, 522.425 244.100, 524.494 248.500 C 528.351 256.702, 532.765 266.152, 538.508 278.500 C 540.299 282.350, 544.118 290.450, 546.995 296.500 C 549.872 302.550, 555.376 314.250, 559.226 322.500 C 563.077 330.750, 568.034 341.325, 570.243 346 C 572.453 350.675, 581.664 370.250, 590.713 389.500 C 599.762 408.750, 607.518 424.867, 607.948 425.315 C 608.378 425.764, 609.428 424.414, 610.280 422.315 C 611.132 420.217, 614.621 412.650, 618.034 405.500 C 621.448 398.350, 625.702 389.350, 627.490 385.500 C 629.277 381.650, 632.549 374.675, 634.761 370 C 636.973 365.325, 643.513 351.375, 649.294 339 C 655.076 326.625, 662.045 311.775, 664.780 306 C 667.516 300.225, 673.023 288.525, 677.017 280 C 681.011 271.475, 686.692 259.381, 689.640 253.125 C 692.588 246.869, 695 241.558, 695 241.323 C 695 241.087, 697.744 238.354, 701.098 235.249 C 721.059 216.769, 735.780 190.175, 741.398 162.447 C 744.753 145.888, 745.031 126.085, 742.094 112.889 C 741.556 110.475, 740.890 107.235, 740.613 105.689 C 739.578 99.903, 734.705 86.197, 730.547 77.377 C 720.630 56.338, 703.511 36.456, 684 23.319 C 668.188 12.673, 646.101 4.137, 627.500 1.485 C 618.523 0.204, 598.670 0.184, 590 1.445 M 588.500 53.108 C 563.740 59.186, 539.564 79.186, 530.609 101 C 524.362 116.217, 523.553 120.159, 523.525 135.500 C 523.504 147.210, 523.887 150.891, 525.865 158 C 533.001 183.648, 551.407 204.785, 575.015 214.447 C 616.165 231.287, 661.894 215.034, 683.374 175.934 C 699.562 146.468, 696.228 109.677, 674.937 82.824 C 663.578 68.498, 645.975 57.329, 628 53.041 C 616.658 50.336, 599.677 50.365, 588.500 53.108 M 131.264 177.718 C 132.784 177.947, 135.034 177.941, 136.264 177.704 C 137.494 177.467, 136.250 177.279, 133.500 177.286 C 130.750 177.294, 129.744 177.488, 131.264 177.718 M 369.355 261.500 C 369.352 266.450, 369.521 268.601, 369.731 266.280 C 369.940 263.959, 369.943 259.909, 369.736 257.280 C 369.530 254.651, 369.358 256.550, 369.355 261.500" stroke="none" fill="#29aae3" fill-rule="evenodd"/><path d="M 360.725 94.609 C 360.472 94.862, 357.618 95.501, 354.382 96.030 C 345.645 97.457, 345.209 97.566, 336 100.607 C 295.483 113.985, 263.165 146.306, 249.614 187 C 244.829 201.370, 242.915 213.561, 242.805 230.368 C 242.660 252.614, 246.740 269.939, 256.968 290.500 C 263.863 304.363, 270.841 314.028, 282.596 326 L 290.943 334.500 309.048 373 C 319.006 394.175, 328.755 414.875, 330.712 419 C 332.670 423.125, 335.732 429.650, 337.517 433.500 C 339.302 437.350, 342.886 445, 345.482 450.500 C 348.078 456, 351.345 462.975, 352.743 466 C 354.140 469.025, 359.894 481.221, 365.527 493.101 C 371.161 504.982, 376.078 515.670, 376.453 516.851 C 376.828 518.033, 377.567 519, 378.096 519 C 378.624 519, 381.120 514.612, 383.643 509.250 C 386.165 503.887, 390.652 494.381, 393.614 488.125 C 396.577 481.869, 399 476.637, 399 476.499 C 399 476.360, 402.117 469.712, 405.926 461.726 C 409.735 453.740, 415.393 441.714, 418.500 435 C 421.607 428.286, 427.265 416.260, 431.074 408.274 C 434.883 400.288, 438 393.629, 438 393.477 C 438 393.325, 440.757 387.418, 444.127 380.351 C 447.496 373.283, 453.707 360.072, 457.929 350.993 C 464.798 336.222, 466.218 333.909, 471.430 328.993 C 482.994 318.087, 492.421 305.276, 499.848 290.372 C 510.480 269.037, 513.964 253.250, 513.612 228 C 513.268 203.331, 510.025 189.699, 499.452 168.473 C 484.178 137.808, 454.609 111.973, 422.364 101.121 C 407.595 96.150, 398.251 94.694, 379.342 94.416 C 369.355 94.269, 360.977 94.356, 360.725 94.609 M 364.342 145.411 C 344.428 149.216, 328.967 157.715, 315.405 172.311 C 307.054 181.298, 302.736 188.300, 298.362 199.944 C 293.982 211.605, 292.616 220.974, 293.322 234.500 C 293.985 247.199, 296.454 256.952, 301.630 267.321 C 313.767 291.635, 335.370 308.189, 361.973 313.561 C 372.870 315.761, 391.261 315.076, 401.380 312.094 C 452.726 296.963, 478.191 240.942, 455.470 193.100 C 444.494 169.988, 424.337 153.374, 399.500 146.969 C 389.193 144.310, 373.693 143.623, 364.342 145.411" stroke="none" fill="#fe0000" fill-rule="evenodd"/><path d="M 126.264 8.718 C 127.784 8.947, 130.034 8.941, 131.264 8.704 C 132.494 8.467, 131.250 8.279, 128.500 8.286 C 125.750 8.294, 124.744 8.488, 126.264 8.718 M 143.750 8.706 C 144.988 8.944, 147.012 8.944, 148.250 8.706 C 149.488 8.467, 148.475 8.272, 146 8.272 C 143.525 8.272, 142.512 8.467, 143.750 8.706 M 232.500 48 C 236.320 51.850, 239.671 55, 239.946 55 C 240.221 55, 237.320 51.850, 233.500 48 C 229.680 44.150, 226.329 41, 226.054 41 C 225.779 41, 228.680 44.150, 232.500 48 M 36.453 52.250 L 32.500 56.500 36.750 52.547 C 40.702 48.871, 41.460 48, 40.703 48 C 40.540 48, 38.627 49.913, 36.453 52.250 M 120.500 59.015 C 89.197 65.241, 62.931 89.478, 53.868 120.500 C 50.706 131.326, 50.468 154.716, 53.410 165.500 C 62.466 198.688, 90.363 223.812, 124.005 229.079 C 133.713 230.599, 150.414 229.624, 159.491 227.008 C 191.586 217.757, 214.678 192.989, 221.496 160.500 C 222.996 153.354, 223.332 134.930, 222.061 129.500 C 221.675 127.850, 221.559 131.675, 221.802 138 C 222.844 165.093, 215.381 184.664, 197.015 203 C 184.304 215.691, 172.915 222.260, 156 226.659 C 146.110 229.231, 126.908 228.949, 116.001 226.072 C 86.748 218.356, 65.065 197.566, 55.434 168 C 52.895 160.205, 52.665 158.215, 52.661 144 C 52.657 130.146, 52.927 127.651, 55.203 120.500 C 58.664 109.627, 61.451 103.819, 67.362 95.161 C 77.198 80.754, 93.287 68.885, 111.062 62.922 C 123.400 58.782, 140.845 57.776, 154.032 60.443 C 174.848 64.654, 195.019 77.766, 206.640 94.639 C 210.728 100.574, 212.103 101.721, 209.307 96.861 C 206.369 91.758, 193.143 78.203, 186.419 73.405 C 171.663 62.876, 155.592 57.953, 136.500 58.117 C 129.900 58.173, 122.700 58.577, 120.500 59.015 M 213.202 105.478 C 214.398 107.941, 215.549 109.785, 215.758 109.575 C 216.211 109.123, 212.170 101, 211.493 101 C 211.236 101, 212.005 103.015, 213.202 105.478 M 216.653 113 C 217.001 114.375, 217.903 117.075, 218.658 119 C 219.832 121.995, 219.948 122.083, 219.461 119.610 C 219.148 118.021, 218.246 115.321, 217.456 113.610 C 216.376 111.271, 216.177 111.120, 216.653 113 M 1.286 135.500 C 1.294 138.250, 1.488 139.256, 1.718 137.736 C 1.947 136.216, 1.941 133.966, 1.704 132.736 C 1.467 131.506, 1.279 132.750, 1.286 135.500 M 272.180 138.321 C 272.032 142.292, 271.192 144.274, 267.412 149.571 C 264.889 153.107, 263.049 156, 263.324 156 C 263.599 156, 265.913 153.072, 268.467 149.494 C 272.693 143.572, 273.076 142.564, 272.735 138.244 L 272.360 133.500 272.180 138.321 M 1.286 152.500 C 1.294 155.250, 1.488 156.256, 1.718 154.736 C 1.947 153.216, 1.941 150.966, 1.704 149.736 C 1.467 148.506, 1.279 149.750, 1.286 152.500 M 255.450 169.099 C 254.028 171.904, 253.033 174.367, 253.238 174.571 C 253.443 174.776, 254.818 172.482, 256.295 169.472 C 257.771 166.462, 258.766 164, 258.506 164 C 258.246 164, 256.871 166.295, 255.450 169.099 M 244.556 199.556 C 244.179 201.562, 244.071 203.404, 244.315 203.649 C 244.560 203.893, 245.068 202.451, 245.444 200.444 C 245.821 198.438, 245.929 196.596, 245.685 196.351 C 245.440 196.107, 244.932 197.549, 244.556 199.556 M 242.286 217.500 C 242.294 220.250, 242.488 221.256, 242.718 219.736 C 242.947 218.216, 242.941 215.966, 242.704 214.736 C 242.467 213.506, 242.279 214.750, 242.286 217.500 M 40.500 240 C 43.209 242.750, 45.650 245, 45.925 245 C 46.200 245, 44.209 242.750, 41.500 240 C 38.791 237.250, 36.350 235, 36.075 235 C 35.800 235, 37.791 237.250, 40.500 240" stroke="none" fill="#16be67" fill-rule="evenodd"/><path d="M 581.251 1.582 C 574.067 2.888, 568.623 4.904, 572.101 4.970 C 572.981 4.986, 575.058 4.527, 576.716 3.949 C 578.374 3.371, 584.179 2.292, 589.615 1.552 C 597.515 0.476, 598.396 0.212, 594 0.235 C 590.975 0.251, 585.238 0.857, 581.251 1.582 M 617.500 0.496 C 620.080 1.369, 628 1.656, 628 0.877 C 628 0.395, 625.413 0.036, 622.250 0.079 C 619.087 0.122, 616.950 0.310, 617.500 0.496 M 635 2.623 C 671.756 11.026, 701.271 31.138, 721.956 61.877 C 729.285 72.769, 738.708 94.837, 740.583 105.500 C 740.873 107.150, 741.743 111.200, 742.517 114.500 L 743.923 120.500 743.370 115 C 742.695 108.269, 739.942 97.333, 736.645 88.278 C 728.281 65.307, 711.425 42.574, 691.630 27.569 C 674.561 14.631, 649.034 3.249, 633.500 1.651 C 628.849 1.173, 628.954 1.240, 635 2.623 M 559.108 8.042 C 555.042 9.605, 551.217 11.427, 550.608 12.089 C 549.760 13.012, 549.969 13.108, 551.500 12.499 C 552.600 12.061, 557.325 10.210, 562 8.385 C 566.675 6.560, 569.600 5.096, 568.500 5.133 C 567.400 5.170, 563.173 6.479, 559.108 8.042 M 125.500 7.155 C 106.671 8.800, 93.020 12.565, 76.500 20.669 C 68.056 24.811, 65.785 26.150, 55.027 33.330 C 48.453 37.717, 34.330 51.700, 28.090 60 C 20.971 69.469, 17.332 75.447, 12.627 85.402 C 9.333 92.371, 7.776 96.540, 3.990 108.523 C 0.021 121.084, -1.287 151.055, 1.459 166.500 C 4.109 181.405, 9.182 196.768, 14.560 206.177 C 15.920 208.555, 17.573 211.737, 18.235 213.250 C 18.897 214.762, 19.790 216, 20.219 216 C 20.649 216, 21 216.492, 21 217.093 C 21 219.159, 34.808 236.506, 42.151 243.665 C 48.100 249.464, 50.158 252.323, 52.954 258.665 C 56.473 266.649, 61.369 277.189, 71.389 298.352 C 74.475 304.871, 77 310.347, 77 310.521 C 77 310.696, 80.097 317.287, 83.882 325.169 C 87.667 333.051, 91.896 341.975, 93.279 345 C 96.688 352.455, 105.040 370.097, 111.600 383.699 C 114.570 389.859, 117 395.099, 117 395.343 C 117 395.588, 120.768 403.627, 125.373 413.207 C 129.978 422.787, 134.059 431.610, 134.441 432.813 C 135.871 437.320, 138.078 434.976, 143.915 422.750 C 156.990 395.366, 161 386.868, 161 386.543 C 161 386.355, 164.415 379.068, 168.588 370.350 C 172.762 361.633, 177.092 352.475, 178.212 350 C 180.714 344.468, 186.504 332.150, 193.622 317.214 C 196.580 311.006, 199 305.727, 199 305.483 C 199 304.873, 210.890 279.864, 212.066 278 C 212.587 277.175, 213.298 275.825, 213.646 275 C 213.995 274.175, 215.737 270.350, 217.518 266.500 C 219.299 262.650, 221.772 257.250, 223.014 254.500 C 224.458 251.304, 228.290 246.494, 233.636 241.169 C 238.236 236.587, 242 232.157, 242 231.325 C 242 230.492, 240.387 231.766, 238.416 234.155 C 236.444 236.545, 232.425 240.750, 229.485 243.500 C 224.480 248.180, 223.196 250.517, 209.429 280 C 192.413 316.441, 193.323 314.499, 167.502 369.500 C 156.658 392.600, 145.516 416.337, 142.744 422.250 C 139.971 428.163, 137.303 433, 136.816 433 C 136.328 433, 135.097 431.087, 134.081 428.750 C 132.437 424.971, 81.691 316.912, 57.736 266.180 C 51.089 252.103, 47.835 246.307, 45.746 244.819 C 41.554 241.834, 28.819 226.970, 23.377 218.709 C 1.175 185.008, -4.868 142.219, 7.106 103.500 C 20.209 61.130, 54.130 27.209, 96.500 14.106 C 143.904 -0.554, 195.633 11.795, 231.861 46.420 C 245.501 59.457, 259.476 81.459, 265.485 99.360 C 268.902 109.540, 271.678 123.308, 272.570 134.500 C 272.965 139.450, 273.570 142.703, 273.914 141.729 C 274.751 139.364, 273.259 124.212, 271.330 115.500 C 267.334 97.444, 257.261 75.057, 247.257 61.998 C 239.843 52.319, 227.245 39.711, 219 33.718 C 215.425 31.119, 211.996 28.582, 211.380 28.079 C 209.411 26.471, 190.664 17.203, 186 15.532 C 171.192 10.226, 162.902 8.375, 150 7.492 C 145.325 7.172, 140.150 6.769, 138.500 6.596 C 136.850 6.423, 131 6.674, 125.500 7.155 M 542.500 15.811 C 533.286 20.923, 524.053 27.627, 515.493 35.420 C 510.822 39.672, 507 43.629, 507 44.213 C 507 44.798, 510.825 41.603, 515.500 37.115 C 522.874 30.036, 542.129 16.060, 544.636 15.968 C 545.831 15.924, 549.608 12.996, 548.441 13.018 C 547.924 13.028, 545.250 14.285, 542.500 15.811 M 502.310 49.250 C 494.259 57.738, 483.453 77.047, 478.480 91.833 C 475.978 99.271, 471.969 115.686, 472.030 118.239 C 472.101 121.179, 473.827 116.087, 474.907 109.751 C 478.174 90.590, 489.252 66.955, 502.795 50.250 C 506.885 45.205, 506.635 44.690, 502.310 49.250 M 617 52.005 C 620.025 52.414, 624.300 53.012, 626.500 53.333 C 629.958 53.838, 629.823 53.733, 625.500 52.555 C 622.750 51.805, 618.475 51.208, 616 51.227 C 611.508 51.262, 611.510 51.264, 617 52.005 M 617.095 55.449 C 615.827 56.128, 613.789 56.491, 612.565 56.257 C 611.340 56.023, 608.633 56.544, 606.547 57.416 C 604.462 58.287, 602.188 59, 601.493 59 C 599.455 59, 590.099 65.135, 584.749 69.979 C 564.239 88.551, 562.189 116.437, 579.235 145 C 583.768 152.597, 588.412 155.636, 598.932 157.892 C 613.571 161.032, 623.498 156.119, 620.437 147.250 C 619.456 144.406, 616.960 142.927, 600.907 135.677 C 592.720 131.979, 586.603 126.688, 584.388 121.387 C 582.428 116.696, 582.671 107.321, 584.878 102.461 C 587.483 96.728, 595.156 90.322, 601.913 88.239 C 609.403 85.931, 623.482 86.025, 631.750 88.439 C 635.188 89.442, 638 90.718, 638 91.274 C 638 92.180, 634.014 106.245, 633.634 106.677 C 633.549 106.775, 631.008 106.002, 627.989 104.960 C 620.592 102.407, 611.476 102.412, 607.277 104.973 C 603.306 107.394, 602.183 111.105, 604.399 114.486 C 606.311 117.405, 608.641 118.686, 619.999 123.062 C 626.897 125.720, 629.559 127.399, 634.138 131.978 C 638.984 136.824, 639.947 138.426, 640.966 143.338 C 643.814 157.053, 637.617 167.721, 623.462 173.474 C 617.264 175.993, 617.413 176.209, 627 178.573 C 649.807 184.196, 674.275 173.157, 683.554 153.059 C 685.180 149.536, 687.010 146.967, 687.926 146.921 C 688.955 146.869, 689.068 146.668, 688.252 146.338 C 686.970 145.821, 687.579 140.990, 689.052 140 C 690.123 139.280, 690.568 134.709, 689.703 133.319 C 688.885 132.006, 690.738 130.402, 691.817 131.488 C 692.192 131.867, 692.430 136.075, 692.345 140.839 C 692.202 148.890, 692.257 149.148, 693.127 144.500 C 694.474 137.307, 693.209 122.954, 690.356 113.048 C 686.945 101.208, 682.041 91.713, 674.536 82.415 C 665.189 70.835, 649.639 59.187, 645.380 60.576 C 643.992 61.028, 643.854 60.936, 644.852 60.223 C 645.848 59.510, 644.335 58.524, 639.095 56.468 C 635.186 54.934, 631.755 53.912, 631.470 54.197 C 631.185 54.482, 633.775 55.765, 637.226 57.050 C 641.224 58.538, 642.827 59.531, 641.644 59.786 C 640.623 60.007, 639.295 59.695, 638.694 59.094 C 638.092 58.492, 636.367 58, 634.859 58 C 633.351 58, 631.840 57.550, 631.500 57 C 631.160 56.450, 629.109 56, 626.941 56 C 624.773 56, 623 56.450, 623 57 C 623 57.550, 622.564 58, 622.031 58 C 621.499 58, 621.300 57.383, 621.589 56.629 C 622.341 54.668, 619.800 54.001, 617.095 55.449 M 147.176 60.378 C 152.551 61.440, 152.776 61.603, 151.426 63.441 C 150.642 64.509, 150 64.846, 150 64.191 C 150 60.994, 134.543 64.150, 124.022 69.495 C 114.547 74.308, 103.948 86.392, 100.931 95.822 C 100.283 97.845, 98.797 100.608, 97.627 101.963 C 96.107 103.724, 96.558 103.528, 99.210 101.279 C 108.784 93.156, 121.262 88.988, 135.910 89.017 C 144.689 89.035, 157.599 91.199, 159.346 92.946 C 160.274 93.874, 157.584 106.561, 156.116 108.179 C 155.777 108.553, 153.039 108.216, 150.032 107.429 C 142.870 105.557, 130.514 105.606, 124.872 107.528 C 114.668 111.005, 108.986 118.871, 108.221 130.579 C 107.387 143.349, 112.174 153.433, 121.347 158.230 C 124.684 159.976, 127.268 160.412, 134.500 160.451 L 143.500 160.500 143.788 151.797 L 144.077 143.093 137.288 142.797 L 130.500 142.500 130.208 134.750 L 129.916 127 146.476 127 L 163.037 127 162.768 150.250 L 162.500 173.500 155.500 175.306 C 151.650 176.300, 144.971 177.379, 140.659 177.705 L 132.817 178.298 141.159 181.601 C 153.927 186.657, 162.861 188.384, 172.407 187.642 C 185.919 186.592, 196.602 181.355, 204.474 171.921 C 206.660 169.302, 208.797 167.375, 209.224 167.639 C 209.651 167.902, 210 167.598, 210 166.963 C 210 166.328, 211.576 162.488, 213.501 158.430 C 217.659 149.669, 218.506 145.902, 218.482 136.282 C 218.471 131.802, 218.820 129.420, 219.400 130 C 220.483 131.083, 220.729 153.114, 219.742 160.500 C 219.158 164.862, 219.214 165.117, 220.179 162.500 C 220.804 160.805, 221.315 152.539, 221.353 143.500 C 221.416 128.516, 221.241 126.960, 218.594 119 C 217.039 114.325, 214.641 108.250, 213.264 105.500 C 204.591 88.174, 187.895 72.709, 169.720 65.165 C 162.146 62.021, 149.041 58.910, 144.292 59.128 C 142.563 59.208, 143.661 59.683, 147.176 60.378 M 155.786 63.563 C 157.013 64.422, 159.026 65.188, 160.259 65.265 C 161.491 65.341, 162.761 65.778, 163.080 66.236 C 163.399 66.693, 164.447 66.766, 165.408 66.397 C 166.699 65.901, 165.772 65.238, 161.867 63.863 C 155.242 61.530, 152.705 61.405, 155.786 63.563 M 743.627 126.250 C 744.519 132.074, 745 132.220, 745 126.667 C 745 124.100, 744.545 122, 743.988 122 C 743.362 122, 743.225 123.621, 743.627 126.250 M 689.742 124.879 C 689.445 126.014, 689.829 127.443, 690.603 128.086 C 691.715 129.008, 691.997 128.862, 691.985 127.372 C 691.976 126.343, 691.589 124.899, 691.123 124.165 C 690.478 123.148, 690.150 123.317, 689.742 124.879 M 744.272 136 C 744.272 138.475, 744.467 139.488, 744.706 138.250 C 744.944 137.012, 744.944 134.988, 744.706 133.750 C 744.467 132.512, 744.272 133.525, 744.272 136 M 743.747 145.413 C 743.032 150.078, 743.324 152.009, 744.559 150.774 C 744.867 150.467, 744.979 148.029, 744.809 145.357 L 744.500 140.500 743.747 145.413 M 378.987 150.010 C 377.633 151.031, 374.945 152.159, 373.013 152.516 C 363.794 154.219, 351.003 164.861, 345.339 175.540 C 340.309 185.023, 338.633 192.134, 338.633 204 C 338.633 215.967, 340.282 222.837, 345.591 233 L 348.987 239.500 348.994 212.309 C 348.997 195.895, 349.383 184.881, 349.967 184.521 C 352.131 183.183, 380.624 182.743, 387.674 183.939 C 397.218 185.557, 404.433 189.888, 408.464 196.419 C 411.120 200.722, 411.540 202.412, 411.816 209.919 C 412.102 217.699, 411.868 219.013, 409.316 223.993 C 404.154 234.064, 392.316 240, 377.395 240 L 370 240 370.116 252.750 C 370.180 259.762, 370.434 264.734, 370.680 263.798 C 371.077 262.292, 371.820 262.447, 377.123 265.142 C 387.091 270.207, 397.501 273.032, 408 273.522 C 416.014 273.895, 416.909 273.794, 413.721 272.876 C 403.300 269.875, 400.117 257.287, 408.084 250.583 C 416.993 243.086, 430.312 252.451, 427.028 263.902 C 425.820 268.114, 424.236 269.986, 420.500 271.614 C 418.219 272.609, 417.979 272.931, 419.500 272.960 C 422.164 273.012, 431.320 269.483, 436.695 266.333 C 441.664 263.421, 450.816 253.581, 451.652 250.252 C 452.152 248.260, 453.091 247.601, 455.102 247.832 C 455.433 247.870, 455.493 246.798, 455.235 245.451 C 454.896 243.673, 455.208 243, 456.372 243 C 457.289 243, 457.914 242.251, 457.830 241.250 C 457.494 237.241, 458.025 234.491, 458.876 235.834 C 459.557 236.908, 459.840 236.859, 460.329 235.584 C 460.664 234.713, 460.452 234, 459.859 234 C 459.165 234, 459.012 232.666, 459.431 230.250 C 460.658 223.172, 460.275 210.176, 458.784 208.294 C 458.258 207.630, 458.107 206.636, 458.448 206.084 C 458.789 205.533, 458.643 204.276, 458.124 203.291 C 457.605 202.306, 456.238 199.073, 455.086 196.106 C 449.944 182.864, 435.611 166.306, 424.223 160.452 C 421.075 158.834, 418.275 157.223, 418 156.871 C 417.030 155.631, 407.915 151.751, 407.335 152.332 C 407.011 152.655, 405.522 152.287, 404.026 151.514 C 402.530 150.740, 400.291 150.373, 399.051 150.697 C 397.810 151.021, 396.504 150.840, 396.148 150.294 C 395.791 149.748, 392.338 149.043, 388.474 148.728 C 382.595 148.248, 381.045 148.457, 378.987 150.010 M 741.677 160.924 C 736.225 189.367, 721.474 216.384, 701.098 235.249 C 697.744 238.354, 695 241.089, 695 241.326 C 695 241.564, 692.799 246.425, 690.109 252.129 C 672.954 288.507, 667.981 299.314, 668.264 299.598 C 668.753 300.087, 677.234 282.867, 685.983 263.619 C 695.395 242.911, 695.880 242.111, 703.796 234.246 C 725.159 213.023, 739.976 184.290, 743.503 157.250 C 744.572 149.051, 743.564 151.079, 741.677 160.924 M 182.388 154.980 C 178.624 156.501, 176 160.897, 176 165.685 C 176 171.547, 178.119 175.354, 182.553 177.458 C 192.074 181.976, 201.828 173.502, 199.037 163.138 C 197.054 155.772, 189.540 152.090, 182.388 154.980 M 370 211.421 L 370 223.841 373 224.500 C 379.030 225.824, 388.242 222.366, 390.544 217.915 C 391.345 216.366, 392 213.152, 392 210.772 C 392 202.743, 387.087 199, 376.550 199 L 370 199 370 211.421 M 133.750 228.723 C 135.537 228.945, 138.463 228.945, 140.250 228.723 C 142.037 228.502, 140.575 228.320, 137 228.320 C 133.425 228.320, 131.963 228.502, 133.750 228.723 M 520.383 242.250 C 521.158 244.037, 523.687 249.550, 526.003 254.500 C 528.319 259.450, 531.945 267.212, 534.061 271.750 C 536.176 276.288, 538.142 280, 538.429 280 C 539.136 280, 537.986 277.178, 532.719 266 C 530.257 260.775, 526.392 252.563, 524.130 247.750 C 521.869 242.938, 519.783 239, 519.496 239 C 519.208 239, 519.607 240.463, 520.383 242.250 M 539.064 281.387 C 539.029 281.875, 540.755 285.925, 542.900 290.387 C 545.045 294.849, 547.996 301.157, 549.457 304.404 C 550.918 307.651, 554.068 314.401, 556.456 319.404 C 563.927 335.052, 571 350.160, 571 350.468 C 571 350.631, 575.050 359.170, 580 369.445 C 584.950 379.720, 589 388.277, 589 388.461 C 589 388.645, 591.415 393.904, 594.366 400.148 C 597.317 406.391, 601.388 415.018, 603.412 419.318 C 605.436 423.618, 607.557 426.981, 608.125 426.792 C 608.693 426.602, 609.787 425.334, 610.555 423.974 C 612.232 421.005, 625 394.081, 625 393.513 C 625 393.295, 627.523 387.888, 630.607 381.498 C 633.691 375.108, 635.967 369.634, 635.665 369.332 C 635.364 369.031, 634.463 370.295, 633.663 372.142 C 631.926 376.150, 626.486 387.757, 618.027 405.500 C 614.618 412.650, 611.132 420.217, 610.280 422.315 C 609.428 424.414, 608.378 425.764, 607.948 425.315 C 607.518 424.867, 599.658 408.525, 590.481 389 C 581.304 369.475, 571.672 349, 569.076 343.500 C 566.481 338, 560.795 325.850, 556.441 316.500 C 546.280 294.678, 539.145 280.260, 539.064 281.387 M 664.192 307.142 C 662.583 310.639, 655.982 324.750, 649.523 338.500 C 636.963 365.239, 635.274 369.108, 636.861 367.500 C 637.404 366.950, 640.523 360.650, 643.793 353.500 C 647.063 346.350, 652.288 335.203, 655.404 328.730 C 664.261 310.328, 668.065 301.732, 667.572 301.239 C 667.322 300.989, 665.801 303.645, 664.192 307.142 M 584 465 C 584 465.550, 585.323 466, 586.941 466 C 588.559 466, 590.160 465.550, 590.500 465 C 590.868 464.405, 589.677 464, 587.559 464 C 585.602 464, 584 464.450, 584 465 M 599.750 464.744 C 604.288 464.929, 611.712 464.929, 616.250 464.744 C 620.788 464.559, 617.075 464.407, 608 464.407 C 598.925 464.407, 595.212 464.559, 599.750 464.744 M 625.413 464.860 C 625.705 465.332, 629.286 466.022, 633.370 466.392 C 655.128 468.364, 675.258 475.957, 679.889 483.939 C 681.148 486.110, 681.963 486.831, 681.977 485.785 C 682.032 481.688, 673.209 475.035, 662.500 471.097 C 656.909 469.041, 647.536 466.865, 638.087 465.430 C 627.215 463.778, 624.674 463.664, 625.413 464.860 M 573.500 466.028 C 564.444 467.437, 547.629 472.691, 543.553 475.385 C 542.424 476.131, 539.813 478.295, 537.750 480.192 C 534.709 482.990, 534 484.344, 534 487.356 C 534 491.982, 535.823 494.826, 541.257 498.681 C 545.372 501.600, 556.392 506.151, 562.500 507.455 C 564.150 507.807, 566.288 508.329, 567.250 508.615 C 568.212 508.901, 569 508.746, 569 508.271 C 569 507.796, 565.513 506.597, 561.250 505.608 C 546.616 502.210, 535 494.434, 535 488.035 C 535 483.838, 539.656 478.973, 547.187 475.302 C 553.635 472.158, 572.474 467.012, 577.636 466.985 C 579.211 466.976, 581.175 466.533, 582 466 C 583.811 464.829, 581.144 464.838, 573.500 466.028 M 112 473 C 112 473.550, 113.098 474, 114.441 474 C 115.784 474, 117.160 473.550, 117.500 473 C 117.861 472.417, 116.844 472, 115.059 472 C 113.377 472, 112 472.450, 112 473 M 121.750 472.723 C 123.537 472.945, 126.463 472.945, 128.250 472.723 C 130.037 472.502, 128.575 472.320, 125 472.320 C 121.425 472.320, 119.963 472.502, 121.750 472.723 M 147 472.664 C 176.341 474.716, 199.714 481.355, 207.063 489.725 C 210.413 493.540, 210.686 495.759, 208.363 500.300 L 206.726 503.500 208.863 501.595 C 210.408 500.217, 211 498.519, 211 495.461 C 211 491.808, 210.464 490.749, 207.060 487.673 C 202.799 483.824, 199.108 481.685, 192.636 479.318 C 181.225 475.143, 162.267 471.922, 150.587 472.175 C 146.139 472.271, 144.525 472.491, 147 472.664 M 102.250 473.732 C 99.912 473.943, 98 474.518, 98 475.010 C 98 476.046, 107.767 475.139, 110 473.896 C 111.597 473.007, 110.550 472.985, 102.250 473.732 M 85.611 478.054 C 80.722 479.659, 74.807 482.095, 72.467 483.467 C 67.998 486.085, 62.978 491.332, 63.032 493.327 C 63.049 493.972, 63.705 493.600, 64.490 492.500 C 69.129 485.993, 78.892 480.686, 91.250 477.953 C 94.412 477.254, 97 476.303, 97 475.841 C 97 474.551, 95.238 474.894, 85.611 478.054 M 679.500 492.252 C 675.659 498.350, 665.723 503.217, 649.298 507.047 C 644.691 508.121, 639.392 509, 637.520 509 C 635.649 509, 633.816 509.489, 633.447 510.086 C 632.146 512.191, 652.550 508.549, 662.500 504.900 C 672.888 501.091, 682 494.345, 682 490.465 C 682 488.462, 681.795 488.609, 679.500 492.252 M 63 498.317 C 63 500.194, 68.702 507, 70.275 507 C 70.862 507, 72.053 507.612, 72.921 508.360 C 76.477 511.423, 98.914 518.073, 105.164 517.916 C 107.319 517.862, 105.137 517.045, 99 515.607 C 79.297 510.993, 69.609 506.538, 65.284 500.102 C 63.920 498.074, 63 497.354, 63 498.317 M 201.261 506.559 C 188.820 514.016, 164.763 518.582, 134 519.325 C 126.722 519.500, 128.433 519.643, 139.576 519.789 C 157.801 520.028, 171.946 518.400, 185.330 514.521 C 194.792 511.779, 202.833 508.111, 204.935 505.578 C 206.694 503.458, 206.227 503.583, 201.261 506.559 M 570.461 508.936 C 570.822 509.521, 572.741 510, 574.726 510 C 579.139 510, 578.758 509.493, 573.652 508.569 C 571.031 508.095, 570.013 508.212, 570.461 508.936 M 579 510 C 579 511.020, 589.817 512.517, 590.712 511.621 C 591.728 510.605, 590.792 510.305, 584.750 509.710 C 581.587 509.399, 579 509.530, 579 510 M 608.500 511 L 591.500 511.574 611.750 511.787 C 624.725 511.923, 632 511.641, 632 511 C 632 510.450, 630.538 510.096, 628.750 510.213 C 626.962 510.331, 617.850 510.685, 608.500 511 M 109 517.959 C 109 518.382, 111.088 519.014, 113.640 519.364 C 120.181 520.261, 123.582 520.168, 122.450 519.124 C 121.230 517.999, 109 516.940, 109 517.959 M 382 535 C 382 535.550, 383.800 536, 386 536 C 388.200 536, 390 535.550, 390 535 C 390 534.450, 388.200 534, 386 534 C 383.800 534, 382 534.450, 382 535 M 364 535.654 C 328.829 539.004, 303.335 551.074, 300.397 565.766 C 299.974 567.878, 300.140 569, 300.875 569 C 301.494 569, 302 567.853, 302 566.450 C 302 552.350, 331.140 539.577, 370.541 536.406 C 374.918 536.054, 378.688 535.594, 378.917 535.383 C 379.381 534.956, 369.427 535.136, 364 535.654 M 395.768 535.725 C 397.565 535.947, 400.265 535.943, 401.768 535.715 C 403.271 535.486, 401.800 535.304, 398.500 535.310 C 395.200 535.315, 393.971 535.502, 395.768 535.725 M 416.500 537.988 C 432.192 540.523, 443.290 543.668, 452.604 548.221 C 480.457 561.835, 475.638 580.398, 441.384 591.446 C 436.920 592.885, 432.195 594.263, 430.884 594.507 C 429.573 594.751, 426.475 595.388, 424 595.921 C 413.406 598.205, 398.454 599.223, 380.750 598.866 C 370.438 598.657, 362 598.827, 362 599.243 C 362 600.593, 406.882 600.027, 417 598.550 C 443.416 594.693, 463.543 585.917, 469.358 575.718 C 473.171 569.031, 473.295 566.938, 470.233 560.894 C 465.001 550.566, 447.733 542.102, 422.500 537.497 C 418.100 536.694, 412.475 536.076, 410 536.124 C 406.802 536.186, 408.684 536.725, 416.500 537.988 M 301.482 572.292 C 302.739 578.374, 312.906 586.293, 325.543 591.032 C 339.058 596.100, 362.228 600.795, 360.582 598.133 C 360.197 597.510, 358.425 597, 356.644 597 C 351.865 597, 335.920 593.335, 328.750 590.589 C 313.654 584.807, 306.824 580.194, 302.924 573.148 C 301.108 569.866, 300.963 569.780, 301.482 572.292" stroke="none" fill="#b2b4b3" fill-rule="evenodd"/></svg>