<?xml version="1.0" standalone="no"?>
<!DOCTYPE svg PUBLIC "-//W3C//DTD SVG 20010904//EN"
 "http://www.w3.org/TR/2001/REC-SVG-20010904/DTD/svg10.dtd">
<svg version="1.0" xmlns="http://www.w3.org/2000/svg"
 width="300.000000pt" height="319.000000pt" viewBox="0 0 300.000000 319.000000"
 preserveAspectRatio="xMidYMid meet">

<g transform="translate(0.000000,319.000000) scale(0.100000,-0.100000)"
fill="#000000" stroke="none">
<path d="M1396 2990 c-52 -4 -91 -12 -96 -19 -4 -7 -18 -12 -31 -11 -13 1 -27
1 -31 0 -5 -1 -11 -3 -15 -4 -20 -3 -73 -29 -73 -35 0 -4 -10 -8 -22 -8 -13
-1 -24 -7 -26 -13 -2 -5 -13 -10 -23 -10 -13 0 -18 -4 -13 -12 4 -6 3 -8 -4
-4 -15 9 -80 -29 -120 -70 -18 -18 -36 -34 -40 -35 -4 0 -6 -5 -4 -10 1 -5 -5
-9 -13 -9 -18 0 -56 -40 -49 -52 3 -5 0 -7 -8 -6 -7 2 -12 -3 -10 -10 1 -8 -2
-11 -7 -8 -13 8 -104 -122 -98 -139 3 -7 -4 -21 -15 -32 -21 -19 -56 -79 -40
-69 5 3 2 -10 -8 -30 -11 -20 -16 -43 -13 -51 4 -10 2 -14 -4 -10 -19 12 -45
-167 -39 -268 7 -135 16 -190 28 -174 6 10 7 7 3 -10 -8 -27 13 -113 26 -105
5 3 6 -2 3 -10 -3 -9 -1 -16 6 -16 6 0 9 -4 6 -9 -3 -5 1 -22 9 -37 8 -16 15
-35 15 -42 0 -7 7 -15 15 -18 8 -4 15 -12 15 -20 0 -8 4 -14 9 -14 5 0 11 -10
15 -22 3 -13 26 -44 50 -70 24 -27 41 -48 38 -48 -3 0 6 -10 19 -22 13 -13 32
-36 42 -51 10 -15 23 -25 29 -21 7 5 8 2 3 -6 -5 -8 -2 -18 6 -24 8 -6 19 -20
26 -31 6 -11 16 -19 23 -17 6 1 8 -2 5 -9 -8 -11 34 -56 48 -51 5 1 6 -2 2 -7
-8 -14 26 -51 39 -44 6 3 8 3 4 -1 -7 -9 24 -56 104 -152 96 -117 201 -247
250 -312 27 -34 51 -62 56 -62 4 0 66 72 137 160 72 88 150 185 175 215 212
255 461 577 490 633 19 37 48 108 65 157 28 83 30 101 30 235 0 169 -6 218
-42 320 -62 176 -178 332 -323 434 -84 59 -134 86 -162 86 -10 0 -18 4 -18 9
0 20 -131 55 -142 38 -6 -9 -8 -9 -8 -1 0 12 -28 24 -65 28 -91 11 -153 13
-229 6z m509 -118 c-3 -3 -11 0 -18 7 -9 10 -8 11 6 5 10 -3 15 -9 12 -12z
m-642 -78 c11 -15 29 -24 45 -24 20 0 23 3 13 9 -9 6 54 9 162 9 97 -1 175 -4
172 -6 -2 -3 30 -19 73 -36 42 -17 99 -46 125 -64 27 -18 53 -29 59 -26 6 4 8
2 4 -4 -3 -6 12 -26 34 -45 22 -18 40 -37 40 -40 0 -4 15 -27 34 -51 87 -114
132 -274 123 -436 -6 -119 -53 -255 -112 -330 -35 -43 -139 -146 -167 -164
-15 -10 -25 -23 -21 -29 4 -6 0 -8 -9 -5 -8 4 -34 -5 -58 -18 -23 -13 -49 -24
-59 -24 -22 0 -47 -17 -38 -26 3 -4 13 -1 21 5 8 7 17 8 20 3 8 -13 -34 -23
-53 -12 -9 4 -40 4 -71 -2 -52 -10 -231 -6 -275 6 -44 11 -126 45 -158 65 -19
11 -37 18 -40 14 -4 -3 -7 0 -7 8 0 18 -37 42 -45 29 -11 -17 -27 -11 -21 8 4
12 -7 29 -39 56 -25 22 -45 46 -45 53 0 7 -5 13 -10 13 -6 0 -14 8 -17 18 -12
29 -51 83 -55 75 -3 -5 -3 -2 -2 5 2 7 -8 43 -23 80 -25 62 -27 78 -27 224
l-1 158 -26 10 c-68 29 -65 153 8 294 39 75 166 189 226 201 17 4 37 11 42 15
19 15 50 19 104 13 42 -4 59 -10 74 -29z m-446 -626 c-3 -8 -6 -5 -6 6 -1 11
2 17 5 13 3 -3 4 -12 1 -19z m293 -988 c0 -5 -2 -10 -4 -10 -3 0 -8 5 -11 10
-3 6 -1 10 4 10 6 0 11 -4 11 -10z"/>
<path d="M1383 2552 c-9 -5 -13 -52 -15 -152 l-3 -145 -150 -5 -150 -5 0 -115
0 -115 152 -3 152 -3 3 -147 3 -147 115 0 115 0 3 147 3 147 152 3 152 3 0
115 0 115 -152 3 -153 3 0 143 c0 103 -4 146 -12 154 -16 12 -198 16 -215 4z"/>
</g>
</svg>
