<?xml version="1.0" encoding="UTF-8"?>
<svg id="Layer_2" data-name="Layer 2" xmlns="http://www.w3.org/2000/svg" xmlns:xlink="http://www.w3.org/1999/xlink" viewBox="0 0 1848.83 500">
  <defs>
    <style>
      .cls-1 {
        stroke-width: 3px;
      }

      .cls-1, .cls-2, .cls-3, .cls-4, .cls-5, .cls-6, .cls-7, .cls-8 {
        fill: none;
      }

      .cls-1, .cls-3, .cls-4, .cls-5, .cls-6, .cls-7, .cls-8 {
        stroke-miterlimit: 10;
      }

      .cls-1, .cls-6 {
        stroke: #fff;
      }

      .cls-9 {
        clip-path: url(#clippath);
      }

      .cls-2, .cls-10, .cls-11, .cls-12, .cls-13, .cls-14, .cls-15, .cls-16, .cls-17, .cls-18, .cls-19, .cls-20, .cls-21, .cls-22, .cls-23, .cls-24, .cls-25, .cls-26, .cls-27 {
        stroke-width: 0px;
      }

      .cls-3 {
        stroke-width: 1.51px;
      }

      .cls-3, .cls-5 {
        stroke: #152639;
      }

      .cls-3, .cls-5, .cls-7 {
        stroke-linecap: round;
      }

      .cls-28 {
        clip-path: url(#clippath-1);
      }

      .cls-29 {
        clip-path: url(#clippath-4);
      }

      .cls-30 {
        clip-path: url(#clippath-3);
      }

      .cls-31 {
        clip-path: url(#clippath-2);
      }

      .cls-32 {
        clip-path: url(#clippath-7);
      }

      .cls-33 {
        clip-path: url(#clippath-8);
      }

      .cls-34 {
        clip-path: url(#clippath-6);
      }

      .cls-35 {
        clip-path: url(#clippath-5);
      }

      .cls-36 {
        clip-path: url(#clippath-9);
      }

      .cls-37 {
        clip-path: url(#clippath-13);
      }

      .cls-38 {
        clip-path: url(#clippath-12);
      }

      .cls-39 {
        clip-path: url(#clippath-10);
      }

      .cls-40 {
        clip-path: url(#clippath-11);
      }

      .cls-4 {
        stroke: #ebe3c6;
        stroke-width: 2px;
      }

      .cls-5, .cls-7 {
        stroke-width: 2.04px;
      }

      .cls-6 {
        stroke-dasharray: 0 3.16;
        stroke-width: .26px;
      }

      .cls-7 {
        stroke: #f7f3e1;
      }

      .cls-8 {
        stroke: #7295b8;
        stroke-width: 1.78px;
      }

      .cls-10 {
        fill: #f7e9e9;
      }

      .cls-11 {
        fill: #f7f3e1;
      }

      .cls-12 {
        fill: #79befa;
      }

      .cls-13 {
        fill: #59778e;
      }

      .cls-14 {
        fill: #1a2942;
      }

      .cls-15 {
        fill: #4477b4;
      }

      .cls-16 {
        fill: #152639;
      }

      .cls-17 {
        fill: #caf8ff;
      }

      .cls-18 {
        fill: #c6e1ef;
      }

      .cls-19 {
        fill: #da4949;
      }

      .cls-20 {
        fill: #aeddf0;
      }

      .cls-21 {
        fill: #aed9eb;
      }

      .cls-22 {
        fill: #d7ecf7;
      }

      .cls-23 {
        fill: #8ec5e4;
      }

      .cls-24 {
        fill: #7295b8;
      }

      .cls-25 {
        fill: #fff;
      }

      .cls-26 {
        fill: #eee9fb;
      }

      .cls-27 {
        fill: #ebe3c6;
      }
    </style>
    <clipPath id="clippath">
      <rect class="cls-2" width="1848.83" height="500" transform="translate(1848.83 500) rotate(180)"/>
    </clipPath>
    <clipPath id="clippath-1">
      <rect class="cls-2" x="1274.29" width="574.54" height="500"/>
    </clipPath>
    <clipPath id="clippath-2">
      <path class="cls-2" d="M1739.52,79.93h0c-1.85-5.21-7.57-7.92-12.78-6.07l-21.19,7.54c-5.21,1.85-7.92,7.57-6.07,12.78h0c1.85,5.21,7.57,7.92,12.78,6.07l21.19-7.54c5.21-1.85,7.92-7.57,6.07-12.78Z"/>
    </clipPath>
    <clipPath id="clippath-3">
      <path class="cls-2" d="M1642.17,60.43h0c5.28-1.64,8.22-7.25,6.58-12.53l-6.68-21.47c-1.64-5.28-7.25-8.22-12.53-6.58h0c-5.28,1.64-8.22,7.25-6.58,12.53l6.68,21.47c1.64,5.28,7.25,8.22,12.53,6.58Z"/>
    </clipPath>
    <clipPath id="clippath-4">
      <path class="cls-2" d="M1581.78,163.59l-99.28-79.27c-2.31-1.84-3.21-4.78-2.55-7.46-1.29-3.42-2.91-6.52-5.04-9.24l-22.87-18.26c-1.72-1.38-2-3.88-.63-5.62.99-1.23,2.53-1.73,3.97-1.41.58.13,1.14.4,1.64.8l22.77,18.18c4.29,1.49,8.68,2.63,13.13,3.41.08,0,.18.02.26.04,1.32.13,2.62.64,3.73,1.53l99.28,79.27c3.18,2.55,3.7,7.16,1.16,10.34l-5.22,6.53c-2.53,3.18-7.16,3.7-10.34,1.18Z"/>
    </clipPath>
    <clipPath id="clippath-5">
      <path class="cls-2" d="M1489.37,389.7h103.58c2.24,0,4.06,1.82,4.06,4.06v14.87c0,2.49-2.02,4.51-4.51,4.51h-101.84c-2.95,0-5.35-2.4-5.35-5.35v-14.04c0-2.24,1.82-4.06,4.06-4.06Z" transform="translate(-48.46 498.45) rotate(-18.09)"/>
    </clipPath>
    <clipPath id="clippath-6">
      <path class="cls-2" d="M1332.93,229.34h25.51c3.56,0,6.46,2.89,6.46,6.46v5.17c0,3.56-2.89,6.46-6.46,6.46h-25.51c-3.56,0-6.46-2.89-6.46-6.46v-5.17c0-3.56,2.89-6.46,6.46-6.46Z" transform="translate(228.29 -548.46) rotate(25.11)"/>
    </clipPath>
    <clipPath id="clippath-7">
      <path class="cls-2" d="M1332.93,229.34h25.51c3.56,0,6.46,2.89,6.46,6.46v5.17c0,3.56-2.89,6.46-6.46,6.46h-25.51c-3.56,0-6.46-2.89-6.46-6.46v-5.17c0-3.56,2.89-6.46,6.46-6.46Z" transform="translate(228.29 -548.46) rotate(25.11)"/>
    </clipPath>
    <clipPath id="clippath-8">
      <rect class="cls-2" x="1368.99" y="249.99" width="38.43" height="18.09" rx="6.46" ry="6.46" transform="translate(241.08 -564.56) rotate(25.11)"/>
    </clipPath>
    <clipPath id="clippath-9">
      <path class="cls-2" d="M1416.9,269.69h25.51c3.56,0,6.46,2.89,6.46,6.46v5.17c0,3.56-2.89,6.46-6.46,6.46h-25.51c-3.56,0-6.46-2.89-6.46-6.46v-5.17c0-3.56,2.89-6.46,6.46-6.46Z" transform="translate(253.36 -580.3) rotate(25.11)"/>
    </clipPath>
    <clipPath id="clippath-10">
      <path class="cls-2" d="M1400.08,304.26h25.51c3.56,0,6.46,2.89,6.46,6.46v5.17c0,3.56-2.89,6.46-6.46,6.46h-25.51c-3.56,0-6.46-2.89-6.46-6.46v-5.17c0-3.56,2.89-6.46,6.46-6.46Z" transform="translate(266.43 -569.88) rotate(25.11)"/>
    </clipPath>
    <clipPath id="clippath-11">
      <path class="cls-2" d="M1356.3,281.76h25.51c3.56,0,6.46,2.89,6.46,6.46v5.17c0,3.56-2.89,6.46-6.46,6.46h-25.51c-3.56,0-6.46-2.89-6.46-6.46v-5.18c0-3.56,2.89-6.46,6.46-6.46Z" transform="translate(252.76 -553.45) rotate(25.11)"/>
    </clipPath>
    <clipPath id="clippath-12">
      <path class="cls-2" d="M1317.43,261.84h25.51c3.56,0,6.46,2.89,6.46,6.46v5.17c0,3.56-2.89,6.46-6.46,6.46h-25.51c-3.56,0-6.46-2.89-6.46-6.46v-5.18c0-3.56,2.89-6.46,6.46-6.46Z" transform="translate(240.64 -538.85) rotate(25.11)"/>
    </clipPath>
    <clipPath id="clippath-13">
      <path class="cls-2" d="M1635.96,201.88c-4.82,12.28-15.86,29.29-10.68,42.97,0,0,48.11,139.62,49.61,140.46,15.03,4.31,31.14,4.56,46.22.73l.43-.15c14.29-6.15,26.92-16.11,36.23-28.57.68-1.56-45.75-139.39-45.75-139.39-4.19-13.82-23.31-20.35-34.51-26.97l-41.6,13.01"/>
    </clipPath>
  </defs>
  <g id="BACKGROUND">
    <g>
      <rect class="cls-18" width="1848.83" height="500"/>
      <g class="cls-9">
        <path class="cls-22" d="M1588.39,836.38c-35.87-16.54-58.34-47.71-88.28-71.23-82.69-64.96-156.27,1.34-205.46,57.94-23.83,27.41-56.28,54.64-97.51,56.13-47.99,1.74-85.39-31.13-119.85-58.29-44.78-35.29-96.22-64.96-151.89-87.82-54.76-22.49-115.29-31.27-161.04-66.48-47.93-36.88-73.67-98.64-41.64-145.61,16.4-24.04,45.51-41.02,76.78-51.47,45.52-15.22,95.88-15.1,139.45-33.08,45.89-18.94,82.44-52.07,108.83-87.42,41.68-55.83,65.64-119.81,111.4-173.49,45.76-53.68,124.62-97.4,202.73-82.36,87.75,16.89,106.65,77.49,154.86,128.3,50.09,52.8,121.88,92.25,201.67,108.42,49.79,10.09,103.56,12.07,147.43,33.7,68.6,33.82,93.1,108.19,79.19,172.47-16.46,76.07-77.13,160-132.26,221.87-25.56,28.69-54.93,56.2-92.94,73.52-38.01,17.32-86.16,23.04-125.29,7.54-2.1-.83-4.15-1.71-6.16-2.64Z"/>
        <path class="cls-21" d="M620.38,152.49c32.27-7.28,58.64-26.52,88.45-39.45,82.33-35.71,118.92,20.13,139.76,66.12,10.1,22.28,26.83,45.48,57.87,51.6,36.13,7.12,74.39-11.5,108.73-26.44,44.62-19.42,92.66-34.05,141.92-43.36,48.45-9.16,97.27-7.93,142.6-27.16,47.49-20.15,85.39-60.6,74.81-97.69-5.42-18.98-22.63-34.55-43.42-45.77-30.26-16.33-68.75-22.43-96.7-40.47-29.44-19-47.56-46.88-57.27-75.08-15.33-44.53-14.72-92.65-33.81-136.16-19.08-43.51-66.38-84.06-130.46-83.03-71.99,1.15-104.33,41.61-156.15,71.57-53.85,31.13-120.31,50.17-186.01,51.79-41,1.01-82.64-4.19-122.53,5.69-62.37,15.45-103.05,64.96-111.42,112.05-9.9,55.73,11.62,122.43,35.44,172.88,11.04,23.39,25.34,46.42,49.24,63.32,23.9,16.89,58.98,26.85,93.44,20.7,1.85-.33,3.68-.7,5.49-1.11Z"/>
        <path class="cls-21" d="M-24.14,638.62c30.88,1.55,61.17-8.35,92.06-12.14,85.3-10.45,95.95,45.17,96.63,88.76.33,21.12,6.08,44.59,30.8,57.1,28.77,14.56,69.18,8.01,104.78,3.61,46.25-5.72,93.67-6.6,140.13-2.71,45.69,3.82,87.76,16.45,134.56,11.05,49.03-5.65,97.43-30.63,102.31-64.31,3.58-24.72-19.27-46.54-40.8-64.64-50.12-42.12-74.6-86.84-66.55-142.13,8.63-59.25,56.66-168.44-60.83-194.78-47.25-10.59-103.4,1.92-148.89,12.15-51.21,11.51-106.37,18.62-159.5,10.87-32.54-4.75-62.77-14.76-94.54-21.42-79.77-16.74-157.68,7.53-192.88,60.04-29.81,44.47-36.41,105.63-34.84,153.68.73,22.28,4.43,45.02,18.83,64.9,14.4,19.87,41.18,36.57,73.53,39.59,1.74.16,3.47.29,5.2.37Z"/>
        <path class="cls-22" d="M53.98-117.93c21.72,1.09,43.48,5.6,63.17,12.79,56.36,20.58,144.75,63.95,134.95,123.51-7.1,43.18-109.69,101.15-150.71,123.65-36.07,19.78-83.4,29.48-123.74,16.25-47.62-15.62-73.76-59.5-75.52-101.23-1.88-44.65,14.81-122.48,59.43-152.82,25.52-17.36,58.92-23.82,92.42-22.14Z"/>
        <path class="cls-6" d="M863.1,84.39c-28.65,5.25-58.13,8.38-87.41,6.49-29.28-1.9-58.45-9.04-82.34-22.92-19.31-11.22-34.55-26.37-49.4-41.42-14.85-15.05-29.78-30.36-48.67-42.04-18.89-11.68-42.53-19.52-66.11-17.34"/>
        <path class="cls-1" d="M-86.6,244.51c123.73-52.66,269.86-76.36,405.48-49.11,134.71,27.07,246.72,100.3,358.34,167.21,123.91,74.27,253.82,143.4,395.91,191.71,142.09,48.31,297.56,75.22,450.84,62.65"/>
        <path class="cls-1" d="M786.96-90.34c46.8-13.88,98.46,5.57,138.75,29.34,83.78,49.44,147.84,119.13,235.3,164.18,77.39,39.86,171.2,58.3,262.49,51.59,63.96-4.7,130.03-23.49,169.46-64.61,30.6-31.92,41.69-73.91,40.32-114.34-1.37-40.43-14.17-79.96-27.06-119.02"/>
      </g>
      <g class="cls-28">
        <g class="cls-31">
          <path class="cls-10" d="M1739.52,79.93h0c-1.85-5.21-7.57-7.92-12.78-6.07l-21.19,7.54c-5.21,1.85-7.92,7.57-6.07,12.78h0c1.85,5.21,7.57,7.92,12.78,6.07l21.19-7.54c5.21-1.85,7.92-7.57,6.07-12.78Z"/>
          <path class="cls-19" d="M1717.24,74.82c-2.86,3.91-3.01,9.34-1.38,13.9,1.63,4.56,4.82,8.4,8.26,11.82,5-1.96,10.11-3.99,14.11-7.56,4-3.58,6.72-9.08,5.52-14.31-1.21-5.27-6.31-9.13-11.68-9.76-5.37-.63-11.34,1.13-14.82,5.91Z"/>
        </g>
        <g class="cls-30">
          <path class="cls-10" d="M1642.17,60.43h0c5.28-1.64,8.22-7.25,6.58-12.53l-6.68-21.47c-1.64-5.28-7.25-8.22-12.53-6.58h0c-5.28,1.64-8.22,7.25-6.58,12.53l6.68,21.47c1.64,5.28,7.25,8.22,12.53,6.58Z"/>
          <path class="cls-19" d="M1648.18,38.36c-3.8-3.01-9.21-3.39-13.84-1.94-4.63,1.45-8.59,4.48-12.14,7.78,1.76,5.07,3.58,10.26,6.99,14.4,3.41,4.14,8.8,7.08,14.08,6.09,5.32-1,9.37-5.94,10.22-11.28.85-5.34-.68-11.37-5.31-15.05Z"/>
        </g>
        <path class="cls-13" d="M1411.44,141.41l-3.13,16.1,7.05,1.18s3.63-11.23-3.92-17.28Z"/>
        <path class="cls-14" d="M1378.02,160.74c-2.87,3.85-5.19,8.11-6.84,11.82,18.78,58.23,35.45,117.14,50.06,176.91,3.81,2.28,7.61,4.57,11.42,6.85,0,0,112.43-23.65,112.58-23.82,2.81-2.72,5.63-5.44,8.44-8.16,0,0-54.4-173.97-54.97-174.72-2.09-2.25-4.19-4.5-6.28-6.75l-114.41,17.88Z"/>
        <polygon class="cls-11" points="1383.17 169.74 1492.48 151.05 1541.76 320.28 1431.74 344.19 1383.17 169.74"/>
        <path class="cls-24" d="M1411.44,141.41c3.04,4.52,4.71,11.9,3.92,17.28,0,0,44.4-5.97,45.02-6.56,1.43-6.25-.85-13.21-5.71-17.41l-43.24,6.68Z"/>
        <path class="cls-24" d="M1426.13,140.49c1.59-4.01,4.84-7.52,9.01-8.61,4.17-1.09,9.15.74,10.98,4.64l-19.99,3.97Z"/>
        <path class="cls-8" d="M1410.57,187.6c2.47,1.63,5.72,2,8.49.98,2.77-1.02,5-3.42,5.82-6.25-.72,1.1.88,2.46,2.18,2.21,1.29-.25,2.26-1.3,3.43-1.92,2.3-1.22,5.45-.49,6.97,1.62,1.26-3.97,6.63-5.94,10.16-3.74,0,.69-.62,1.32-1.31,1.32,2.56-4.53,8.48-6.83,13.42-5.22,2.27-2.75,6.19-3.32,9.73-3.71,4.09-.45,8.17-.9,12.26-1.34"/>
        <path class="cls-8" d="M1419.07,200.78c2.75.91,5.89,1.8,8.42.37.77-.44,1.44-1.07,2.3-1.31,1.59-.44,3.15.62,4.69,1.2,3.48,1.3,7.77-.13,9.77-3.25.6-.94,1.03-2.02,1.87-2.75,1.51-1.31,4.17-.86,5.17.87.22.38.36.87.12,1.23-.23.37-.95.32-.98-.12,3.03-2.97,8.02-3.72,11.79-1.77,2.53-2.33,5.66-4.83,9.01-4.09,1.89.41,3.59,1.84,5.5,1.6,1.91-.23,4.25-1.93,5.39-.38"/>
        <path class="cls-8" d="M1490.02,301.18c2.18-1,4.28-2.17,6.28-3.48.5-.33,1.04-.73,1.16-1.32.12-.59-.53-1.29-1.05-.97,1.07,2.16,3.96,2.87,6.28,2.22,2.32-.65,4.2-2.31,5.99-3.93.52.85.07,2.01.49,2.92.68,1.46,2.93,1.12,4.18.1,1.25-1.02,2.26-2.51,3.84-2.84.84-.18,1.71.01,2.57.08,2.68.2,5.43-.92,7.19-2.95"/>
        <path class="cls-8" d="M1492.57,307.88c3.03-.56,6.23-1.19,8.52-3.26.35-.32.69-.67,1.14-.82,1.86-.62,2.96,2.55,4.92,2.75,2.24.23,3.41-3.48,5.64-3.21.76.1,1.38.67,2.12.88,1.29.37,2.79-.61,2.97-1.94,1.74.15,3.52-.07,5.17-.64"/>
        <path class="cls-8" d="M1500.77,313.7c1.89-.66,3.77-1.32,5.66-1.97.57-.2,1.17-.4,1.76-.3,1.15.19,1.96,1.46,3.12,1.47,1.84.01,2.58-2.99,4.42-2.97.54,0,1.04.29,1.53.51,1.49.64,3.25.65,4.74.02"/>
        <polygon class="cls-27" points="1418.12 218.76 1437.15 292.7 1516.1 278.09 1494.16 204.92 1418.12 218.76"/>
        <g class="cls-29">
          <path class="cls-11" d="M1581.78,163.59l-99.28-79.27c-2.31-1.84-3.21-4.78-2.55-7.46-1.29-3.42-2.91-6.52-5.04-9.24l-22.87-18.26c-1.72-1.38-2-3.88-.63-5.62.99-1.23,2.53-1.73,3.97-1.41.58.13,1.14.4,1.64.8l22.77,18.18c4.29,1.49,8.68,2.63,13.13,3.41.08,0,.18.02.26.04,1.32.13,2.62.64,3.73,1.53l99.28,79.27c3.18,2.55,3.7,7.16,1.16,10.34l-5.22,6.53c-2.53,3.18-7.16,3.7-10.34,1.18Z"/>
          <path class="cls-24" d="M1466.72,42.19c-5.02,7.21-10.93,13.8-17.55,19.58-3.76-1.5-7.45-3.51-9.98-6.67-2.53-3.16-3.67-7.67-2.01-11.36,1.12-2.49,3.35-4.31,5.69-5.72,4.39-2.62,9.61-4.09,14.66-3.31,5.05.78,11.18,4.61,9.18,7.48Z"/>
        </g>
        <rect class="cls-24" x="1563.3" y="139.15" width="26.96" height="10.99" rx="1.79" ry="1.79" transform="translate(464.47 -982.27) rotate(40.13)"/>
        <line class="cls-4" x1="1497.87" y1="76.55" x2="1558.11" y2="126.18"/>
        <line class="cls-4" x1="1494.75" y1="81.35" x2="1554.98" y2="130.98"/>
        <path class="cls-11" d="M1489.37,389.7h103.58c2.24,0,4.06,1.82,4.06,4.06v14.87c0,2.49-2.02,4.51-4.51,4.51h-101.84c-2.95,0-5.35-2.4-5.35-5.35v-14.04c0-2.24,1.82-4.06,4.06-4.06Z" transform="translate(-48.46 498.45) rotate(-18.09)"/>
        <path class="cls-11" d="M1589.03,382.32c10.2-3.39,20.4-6.78,30.55-10.05-.89-2.8-1.77-5.6-2.15-8.94,2.2-.91,4.4-1.82,6.98-3.16,3.41,7.17,6.17,14.64,8.65,22.11-2.71.72-5.41,1.44-8.06,2.13-1.37-2.52-2.75-5.05-4.12-7.57l.24.34-31.48,9.29-.62-4.16Z"/>
        <path class="cls-16" d="M1487.24,416.11s-18.33,5.33-17.86,5.54c-1.49.67-2.57,2.19-2.2,3.98,1.23,1.2,3.12,1.67,4.77,1.18l17.53-4.91-2.25-5.79Z"/>
        <path class="cls-3" d="M1528.1,400.64c-.76,4.48.78,9.3,4.02,12.5"/>
        <path class="cls-3" d="M1538.68,397.71c-1.45,4.02-.27,8.85,2.87,11.74"/>
        <path class="cls-3" d="M1549.38,394.63c-1.6,3.91-.44,8.77,2.75,11.54"/>
        <path class="cls-3" d="M1560.58,390.19c-1.74,3.77-.55,8.67,2.73,11.21"/>
        <path class="cls-3" d="M1572.44,386.69c-1.14,3.78.12,8.18,3.09,10.78"/>
        <g class="cls-35">
          <path class="cls-19" d="M1507.59,394.64c-.19,1.2,2.18,23.92,10.55,29.57,8.37,5.64-27.66,11.52-27.66,11.52l-11.71-14.12,1.3-15.13,12.84-13.3,13.11,2.55,1.59-1.09Z"/>
          <path class="cls-20" d="M1508.07,392.44c-3.25,12.66,1.25,27,11.35,35.4,2.3-.76,4.54-1.71,6.92-2.93-7.68-9.46-11.22-22.17-9.85-34.18-2.76.93-5.63,1.53-8.41,1.71Z"/>
        </g>
        <rect class="cls-12" x="1306.28" y="235.19" width="145.67" height="85.44" rx="6.95" ry="6.95" transform="translate(257.3 -571.05) rotate(25.72)"/>
        <rect class="cls-17" x="1305.5" y="232.94" width="145.67" height="85.44" rx="6.95" ry="6.95" transform="translate(256.25 -570.93) rotate(25.72)"/>
        <g class="cls-34">
          <path class="cls-10" d="M1332.93,229.34h25.51c3.56,0,6.46,2.89,6.46,6.46v5.17c0,3.56-2.89,6.46-6.46,6.46h-25.51c-3.56,0-6.46-2.89-6.46-6.46v-5.17c0-3.56,2.89-6.46,6.46-6.46Z" transform="translate(228.29 -548.46) rotate(25.11)"/>
          <path class="cls-19" d="M1348.78,227.57c2.23,3.77,1.9,8.67.03,12.63-1.86,3.97-5.07,7.14-8.46,9.92-4.33-2.2-8.75-4.47-12.04-8.03-3.29-3.57-5.26-8.76-3.72-13.36,1.55-4.64,6.48-7.66,11.36-7.76,4.89-.1,10.1,2.01,12.83,6.61Z"/>
        </g>
        <g class="cls-32">
          <path class="cls-26" d="M1332.93,229.34h25.51c3.56,0,6.46,2.89,6.46,6.46v5.17c0,3.56-2.89,6.46-6.46,6.46h-25.51c-3.56,0-6.46-2.89-6.46-6.46v-5.17c0-3.56,2.89-6.46,6.46-6.46Z" transform="translate(228.29 -548.46) rotate(25.11)"/>
          <path class="cls-25" d="M1332.93,229.34h25.51c3.56,0,6.46,2.89,6.46,6.46v5.17c0,3.56-2.89,6.46-6.46,6.46h-25.51c-3.56,0-6.46-2.89-6.46-6.46v-5.17c0-3.56,2.89-6.46,6.46-6.46Z" transform="translate(228.29 -548.46) rotate(25.11)"/>
          <path class="cls-12" d="M1348.78,227.57c2.23,3.77,1.9,8.67.03,12.63-1.86,3.97-5.07,7.14-8.46,9.92-4.33-2.2-8.75-4.47-12.04-8.03-3.29-3.57-5.26-8.76-3.72-13.36,1.55-4.64,6.48-7.66,11.36-7.76,4.89-.1,10.1,2.01,12.83,6.61Z"/>
        </g>
        <g class="cls-33">
          <rect class="cls-26" x="1368.99" y="249.99" width="38.43" height="18.09" rx="6.46" ry="6.46" transform="translate(241.08 -564.56) rotate(25.11)"/>
          <rect class="cls-25" x="1368.99" y="249.99" width="38.43" height="18.09" rx="6.46" ry="6.46" transform="translate(241.08 -564.56) rotate(25.11)"/>
          <path class="cls-12" d="M1391.31,248.23c2.23,3.77,1.9,8.67.03,12.63-1.86,3.97-5.07,7.14-8.46,9.92-4.33-2.2-8.75-4.47-12.04-8.04-3.29-3.57-5.26-8.76-3.72-13.36,1.55-4.64,6.48-7.66,11.36-7.76,4.89-.1,10.1,2.01,12.83,6.61Z"/>
        </g>
        <g class="cls-36">
          <path class="cls-26" d="M1416.9,269.69h25.51c3.56,0,6.46,2.89,6.46,6.46v5.17c0,3.56-2.89,6.46-6.46,6.46h-25.51c-3.56,0-6.46-2.89-6.46-6.46v-5.17c0-3.56,2.89-6.46,6.46-6.46Z" transform="translate(253.36 -580.3) rotate(25.11)"/>
          <path class="cls-25" d="M1416.9,269.69h25.51c3.56,0,6.46,2.89,6.46,6.46v5.17c0,3.56-2.89,6.46-6.46,6.46h-25.51c-3.56,0-6.46-2.89-6.46-6.46v-5.17c0-3.56,2.89-6.46,6.46-6.46Z" transform="translate(253.36 -580.3) rotate(25.11)"/>
          <path class="cls-12" d="M1432.75,267.92c2.23,3.77,1.9,8.67.03,12.63-1.87,3.97-5.07,7.14-8.46,9.92-4.33-2.2-8.75-4.47-12.04-8.04-3.29-3.57-5.26-8.76-3.72-13.36,1.55-4.64,6.48-7.66,11.36-7.76s10.1,2.01,12.83,6.61Z"/>
        </g>
        <g class="cls-39">
          <path class="cls-26" d="M1400.08,304.26h25.51c3.56,0,6.46,2.89,6.46,6.46v5.17c0,3.56-2.89,6.46-6.46,6.46h-25.51c-3.56,0-6.46-2.89-6.46-6.46v-5.17c0-3.56,2.89-6.46,6.46-6.46Z" transform="translate(266.43 -569.88) rotate(25.11)"/>
          <path class="cls-25" d="M1400.08,304.26h25.51c3.56,0,6.46,2.89,6.46,6.46v5.17c0,3.56-2.89,6.46-6.46,6.46h-25.51c-3.56,0-6.46-2.89-6.46-6.46v-5.17c0-3.56,2.89-6.46,6.46-6.46Z" transform="translate(266.43 -569.88) rotate(25.11)"/>
          <path class="cls-12" d="M1415.94,302.5c2.23,3.77,1.9,8.67.03,12.63-1.86,3.97-5.07,7.14-8.46,9.92-4.33-2.2-8.75-4.47-12.04-8.03-3.29-3.57-5.26-8.76-3.72-13.36,1.55-4.64,6.48-7.66,11.36-7.76,4.89-.1,10.1,2.01,12.83,6.61Z"/>
        </g>
        <g class="cls-40">
          <path class="cls-26" d="M1356.3,281.76h25.51c3.56,0,6.46,2.89,6.46,6.46v5.17c0,3.56-2.89,6.46-6.46,6.46h-25.51c-3.56,0-6.46-2.89-6.46-6.46v-5.18c0-3.56,2.89-6.46,6.46-6.46Z" transform="translate(252.76 -553.45) rotate(25.11)"/>
          <path class="cls-25" d="M1356.3,281.76h25.51c3.56,0,6.46,2.89,6.46,6.46v5.17c0,3.56-2.89,6.46-6.46,6.46h-25.51c-3.56,0-6.46-2.89-6.46-6.46v-5.18c0-3.56,2.89-6.46,6.46-6.46Z" transform="translate(252.76 -553.45) rotate(25.11)"/>
          <path class="cls-12" d="M1372.15,279.99c2.23,3.77,1.9,8.67.03,12.63-1.86,3.97-5.07,7.14-8.46,9.92-4.33-2.2-8.75-4.47-12.04-8.03-3.29-3.57-5.26-8.76-3.72-13.36,1.55-4.64,6.48-7.66,11.36-7.76,4.89-.1,10.1,2.01,12.83,6.61Z"/>
        </g>
        <g class="cls-38">
          <path class="cls-26" d="M1317.43,261.84h25.51c3.56,0,6.46,2.89,6.46,6.46v5.17c0,3.56-2.89,6.46-6.46,6.46h-25.51c-3.56,0-6.46-2.89-6.46-6.46v-5.18c0-3.56,2.89-6.46,6.46-6.46Z" transform="translate(240.64 -538.85) rotate(25.11)"/>
          <path class="cls-25" d="M1317.43,261.84h25.51c3.56,0,6.46,2.89,6.46,6.46v5.17c0,3.56-2.89,6.46-6.46,6.46h-25.51c-3.56,0-6.46-2.89-6.46-6.46v-5.18c0-3.56,2.89-6.46,6.46-6.46Z" transform="translate(240.64 -538.85) rotate(25.11)"/>
          <path class="cls-12" d="M1333.28,260.07c2.23,3.77,1.9,8.67.03,12.63-1.86,3.97-5.07,7.14-8.46,9.92-4.33-2.2-8.75-4.47-12.04-8.03-3.29-3.57-5.26-8.76-3.72-13.36,1.55-4.64,6.48-7.66,11.36-7.76s10.1,2.01,12.83,6.61Z"/>
        </g>
        <path class="cls-14" d="M1635.96,201.88c-4.82,12.28-15.86,29.29-10.68,42.97,0,0,48.11,139.62,49.61,140.46,15.03,4.31,31.14,4.56,46.22.73l.43-.15c14.29-6.15,26.92-16.11,36.23-28.57.68-1.56-45.75-139.39-45.75-139.39-4.19-13.82-23.31-20.35-34.51-26.97l-41.6,13.01"/>
        <g class="cls-37">
          <path class="cls-23" d="M1750.15,302.23c-14.29,12.71-29.84,24.47-47.71,31.27-17.87,6.8-38.42,8.23-55.43.44-7.03-21.58-14.07-43.17-21.39-64.92,19.04,1.51,36.37-2.8,55.01-6.94s36.4-20.19,45.46-37.15c1.24,23.19,10.64,57.21,24.07,77.31Z"/>
        </g>
        <path class="cls-11" d="M1678.66,192.34c-2.84-8.01-4.91-15.21-7.39-22.15-14.13-3.76-29.99-.24-42.84,10.25,2.11,7.66,4.21,15.33,6.46,22.58,14.76,1.8,29.63-2.59,43.76-10.69Z"/>
        <path class="cls-5" d="M1671.29,170.24c-12.55,8.69-28.21,12.77-43.32,10.55"/>
        <path class="cls-5" d="M1666.85,174.13c2.08,7.26,4.17,14.52,6.25,21.77"/>
        <path class="cls-5" d="M1658.95,177.82c1.89,7.15,3.78,14.3,5.67,21.45"/>
        <path class="cls-5" d="M1648.76,180.46c1.9,7.1,3.8,14.19,5.7,21.29"/>
        <path class="cls-5" d="M1638.04,181.32c1.55,7.18,3.11,14.35,4.66,21.53"/>
        <path class="cls-7" d="M1630.09,239.84c10.61,4.26,22.43,5.47,33.69,3.45"/>
        <path class="cls-25" d="M1665.53,300.86l3.52,10.33c.48,1.41,2.01,2.16,3.42,1.68l9.01-3.07c1.41-.48,2.94.27,3.42,1.68l2.8,8.21c.48,1.41,2.01,2.16,3.42,1.68l10.33-3.52c1.41-.48,2.16-2.01,1.68-3.42l-2.8-8.21c-.48-1.41.27-2.94,1.68-3.42l7.41-2.53c1.41-.48,2.16-2.01,1.68-3.42l-3.52-10.33c-.48-1.41-2.01-2.16-3.42-1.68l-7.41,2.53c-1.41.48-2.94-.27-3.42-1.68l-2.8-8.21c-.48-1.41-2.01-2.16-3.42-1.68l-10.33,3.52c-1.41.48-2.16,2.01-1.68,3.42l2.8,8.21c.48,1.41-.27,2.94-1.68,3.42l-9.01,3.07c-1.41.48-2.16,2.01-1.68,3.42Z"/>
        <path class="cls-7" d="M1747.66,349.2c-2.36,3.76-5.31,7.15-8.71,10.01"/>
        <path class="cls-7" d="M1749.81,355.51c-2.36,3.76-5.31,7.15-8.71,10.01"/>
        <path class="cls-15" d="M1853.27,524.09c19.79-52.18,21.68-110.95,5.3-164.3-10.45,46.56-20.91,93.12-31.36,139.67,11.89-61.77,10.8-127.78-15-185.15-1.73,51.48-3.46,102.95-5.19,154.43.07-56.68-19.9-113.18-55.56-157.24,7.76,49.97,19.81,99.27,35.21,148.45-22.96-38.93-50.6-75.09-82.15-107.45,10.96,55.77,38.95,108.08,78.32,147.67-30.47-18.4-62.66-33.93-96.02-46.33,32.67,36.73,77.47,62.49,124.32,73.5-30.88,3.7-61.12,12.66-89.03,26.38,41.55,17.04,112.46,19.65,131.15-29.64Z"/>
      </g>
    </g>
  </g>
</svg>