<?xml version="1.0" standalone="no"?>
<!DOCTYPE svg PUBLIC "-//W3C//DTD SVG 20010904//EN"
 "http://www.w3.org/TR/2001/REC-SVG-20010904/DTD/svg10.dtd">
<svg version="1.0" xmlns="http://www.w3.org/2000/svg"
 width="1024.000000pt" height="91.000000pt" viewBox="0 0 1024.000000 91.000000"
 preserveAspectRatio="xMidYMid meet">

<g transform="translate(0.000000,91.000000) scale(0.100000,-0.100000)"
fill="#000000" stroke="none">
<path d="M1443 630 c-46 -19 -57 -87 -20 -124 l23 -23 -32 -18 c-40 -21 -64
-69 -64 -124 0 -35 4 -42 24 -47 22 -5 25 -13 33 -77 l8 -72 60 0 c46 0 60 4
62 15 1 8 5 40 8 72 5 49 9 57 31 62 52 13 21 136 -44 173 l-28 16 23 23 c29
29 30 77 3 104 -11 11 -24 20 -29 20 -5 0 -15 2 -23 4 -7 3 -23 1 -35 -4z m72
-51 c11 -18 -4 -57 -25 -64 -50 -16 -82 48 -38 79 21 15 49 9 63 -15z m21
-163 c41 -41 46 -81 10 -90 -22 -5 -25 -13 -31 -81 l-7 -75 -33 0 c-31 0 -33
2 -39 46 -3 26 -6 59 -6 74 0 21 -6 29 -25 34 -42 11 -25 84 26 112 40 22 69
16 105 -20z"/>
<path d="M1930 590 c-29 -29 -27 -83 5 -108 25 -20 25 -21 6 -27 -38 -12 -61
-54 -61 -111 0 -39 4 -54 14 -54 9 0 15 -20 19 -65 4 -36 9 -70 12 -75 4 -6
28 -10 55 -10 54 0 57 3 62 79 4 65 -19 66 -28 2 -6 -47 -9 -51 -34 -51 -30 0
-40 15 -40 60 0 50 -12 90 -27 90 -12 0 -14 8 -8 38 15 83 80 100 141 36 38
-42 40 -47 19 -64 -8 -7 -15 -17 -15 -23 0 -5 8 -3 18 6 26 24 49 21 69 -9 13
-21 14 -30 5 -45 -6 -10 -15 -36 -18 -59 -5 -30 -11 -40 -25 -40 -14 0 -19 7
-19 30 0 17 -5 30 -11 30 -8 0 -9 -11 -5 -31 3 -17 6 -36 6 -41 0 -5 15 -8 33
-6 30 3 32 6 35 43 2 22 8 44 13 50 17 17 10 74 -12 96 -16 16 -18 23 -9 34 6
8 10 26 8 42 -2 21 -9 29 -27 31 -13 2 -28 -1 -34 -7 -7 -7 -18 -4 -35 9 -14
11 -32 20 -41 20 -12 1 -12 3 4 12 50 27 59 75 20 113 -29 30 -68 32 -95 5z
m78 -22 c21 -21 14 -57 -14 -70 -23 -11 -29 -10 -45 11 -23 28 -23 35 -3 55
18 19 45 21 62 4z m117 -173 c0 -13 -8 -21 -22 -23 -19 -3 -23 1 -23 23 0 22
4 26 23 23 14 -2 22 -10 22 -23z"/>
<path d="M237 492 l-107 -107 0 -118 c0 -71 4 -117 10 -117 6 0 10 43 10 108
l0 107 98 98 c53 53 102 97 107 97 6 0 52 -42 102 -92 l92 -93 3 -109 c2 -77
7 -111 16 -114 9 -3 12 23 12 110 l0 113 -113 113 c-62 61 -115 112 -117 112
-3 0 -54 -48 -113 -108z"/>
<path d="M719 576 c-13 -6 -28 -24 -33 -39 -8 -22 -6 -33 12 -56 l22 -30 -21
-6 c-51 -16 -83 -141 -39 -152 21 -6 28 -24 32 -88 3 -40 3 -40 47 -43 24 -2
47 0 52 5 13 14 15 76 2 80 -9 3 -13 -6 -13 -26 0 -27 -3 -31 -29 -31 -32 0
-41 17 -41 83 0 30 -4 40 -20 44 -13 4 -20 14 -20 30 0 79 96 102 151 36 15
-18 14 -21 -3 -42 -22 -28 -25 -91 -4 -91 9 0 17 -18 23 -47 8 -46 9 -48 43
-48 33 0 35 2 43 45 5 25 15 49 23 53 20 11 17 61 -5 88 -18 22 -18 23 6 50
32 35 66 43 102 25 45 -24 59 -89 21 -99 -16 -4 -20 -14 -20 -44 0 -66 -9 -84
-39 -81 -20 2 -27 9 -29 31 -5 44 -23 31 -20 -15 l3 -43 50 0 c46 0 50 2 53
25 10 99 13 110 33 110 15 0 19 7 19 34 0 50 -16 84 -49 104 l-29 17 20 24
c25 32 20 69 -13 94 -65 48 -133 -40 -77 -100 14 -15 17 -23 8 -23 -7 0 -21
-7 -31 -16 -16 -14 -18 -14 -24 5 -12 38 -78 39 -90 1 -6 -18 -7 -18 -35 -2
-29 17 -29 17 -9 38 48 51 -9 132 -72 100z m61 -36 c22 -40 -26 -80 -58 -48
-25 25 -6 68 30 68 9 0 22 -9 28 -20z m268 -11 c4 -31 -20 -53 -47 -44 -45 14
-30 79 17 73 21 -2 28 -9 30 -29z m-141 -95 c8 -21 -19 -46 -40 -38 -17 6 -23
35 -10 47 12 13 44 7 50 -9z m13 -104 c23 -23 27 -60 6 -60 -9 0 -16 -18 -20
-50 -5 -40 -11 -50 -25 -50 -20 0 -31 26 -31 73 0 17 -5 27 -15 27 -20 0 -19
39 2 62 21 24 58 23 83 -2z"/>
<path d="M220 380 c-28 -28 -26 -75 4 -97 l24 -18 -29 -25 c-31 -26 -44 -79
-21 -87 7 -3 12 3 12 14 0 32 29 63 59 63 32 0 45 -13 55 -52 9 -38 26 -35 26
3 0 21 -9 39 -28 57 l-28 25 23 23 c29 29 29 65 0 92 -29 27 -71 28 -97 2z
m80 -25 c15 -18 10 -45 -12 -59 -33 -20 -69 20 -54 60 7 18 50 18 66 -1z"/>
<path d="M390 380 c-28 -28 -26 -74 6 -99 25 -19 25 -20 5 -31 -12 -6 -21 -17
-21 -25 0 -17 16 -20 25 -5 3 6 19 10 35 10 31 0 60 -30 60 -62 0 -10 5 -18
10 -18 23 0 10 62 -18 88 l-28 25 23 23 c28 29 29 54 2 88 -25 32 -70 35 -99
6z m86 -35 c11 -43 -34 -73 -64 -43 -13 13 -16 50 -5 61 3 4 19 7 34 7 22 0
30 -6 35 -25z"/>
</g>
</svg>
